STARTFONT 2.1
FONT -wenquanyi-wenquanyi bitmap song-medium-r-normal--18-180-75-75-P-80-iso10646-1
COMMENT ========================================================== 
COMMENT                Wen Quan Yi Bitmap Song 
COMMENT ----------------------------------------------------------
COMMENT Summary:
COMMENT 
COMMENT     	Developer: The WenQuanYi Project Contributors
COMMENT     	Webpage  : http://wqy.sourceforge.net/en/
COMMENT     	Font Name: WenQuanYi Bitmap Song
COMMENT     	Version  : 0.8.1
COMMENT     	Release  : 7
COMMENT     	Copyright: (C)2004-2007, The WenQuanYi Project 
COMMENT     		   Board of Trustees and Qianqian Fang
COMMENT     	License  : GPL v2.0 (with font embedding exception)
COMMENT 
COMMENT           May the Font be with you, forever!
COMMENT ----------------------------------------------------------
COMMENT The Wen Quan Yi bitmap font includes complete CJK Unified 
COMMENT Ideograph (U4E00 - U9FA5) glyphs at four different sizes 
COMMENT (9pt-12X12 pixel, 10pt-13X13 pixel, 11pt-15X15 pixel, 
COMMENT 12pt-16x16 pixel) and two weights (medium and bold). 
COMMENT Use of this bitmap font for on-screen display of Chinese 
COMMENT (traditional and simplified) in web pages and elsewhere 
COMMENT eliminates the annoying "blurring" problems caused by 
COMMENT the high stroke density of many Chinese characters and 
COMMENT insufficient "hinting" of anti-aliased Chinese fonts. 
COMMENT For the 12pt font, Hangul glyphs (U+AC00~U+D7A3) from 
COMMENT	GNU Unifont (Roman Czyborra/David Starner et al.) were 
COMMENT	used for bold face while those from Hanterm 3.x were used 
COMMENT for the medium face.
COMMENT ----------------------------------------------------------
COMMENT Project starting date       2004/10/26
COMMENT CJK Basic completed on      2005/4/10
COMMENT Sourceforge registration    2005/1/7
COMMENT CJK Basic character total   20902
COMMENT Total glyphs from firefly   15832 X 3 sizes
COMMENT New glyphs                  15210

STARTCHAR nounicode-3-1-c
ENCODING 12
SWIDTH 333 0
DWIDTH 8 0
BBX 1 1 0 0
BITMAP
00
ENDCHAR
STARTCHAR nounicode-3-1-d
ENCODING 13
SWIDTH 333 0
DWIDTH 5 0
BBX 1 1 4 -2
BITMAP
00
ENDCHAR
STARTCHAR space
ENCODING 32
SWIDTH 333 0
DWIDTH 5 0
BBX 1 1 0 0
BITMAP
00
ENDCHAR
STARTCHAR exclam
ENCODING 33
SWIDTH 500 0
DWIDTH 8 0
BBX 1 14 3 -1
BITMAP
80
80
80
80
80
80
80
80
80
80
00
00
80
80
ENDCHAR
STARTCHAR quotedbl
ENCODING 34
SWIDTH 500 0
DWIDTH 8 0
BBX 4 6 2 5
BITMAP
90
90
90
90
90
90
ENDCHAR
STARTCHAR numbersign
ENCODING 35
SWIDTH 500 0
DWIDTH 8 0
BBX 8 12 0 0
BITMAP
12
12
12
7F
24
24
24
24
FE
48
48
48
ENDCHAR
STARTCHAR dollar
ENCODING 36
SWIDTH 500 0
DWIDTH 8 0
BBX 7 13 0 -1
BITMAP
10
38
54
92
90
50
38
14
12
92
54
38
10
ENDCHAR
STARTCHAR percent
ENCODING 37
SWIDTH 833 0
DWIDTH 13 0
BBX 11 12 1 0
BITMAP
6080
9080
9100
9200
9200
6400
04C0
0920
1120
1120
2120
20C0
ENDCHAR
STARTCHAR ampersand
ENCODING 38
SWIDTH 758 0
DWIDTH 12 0
BBX 10 12 1 0
BITMAP
1800
2400
2400
2400
2800
3000
3080
5080
8980
8D00
8600
79C0
ENDCHAR
STARTCHAR quotesingle
ENCODING 39
SWIDTH 278 0
DWIDTH 4 0
BBX 1 6 2 5
BITMAP
80
80
80
80
80
80
ENDCHAR
STARTCHAR parenleft
ENCODING 40
SWIDTH 389 0
DWIDTH 6 0
BBX 4 16 1 -4
BITMAP
10
20
40
40
80
80
80
80
80
80
80
80
40
40
20
10
ENDCHAR
STARTCHAR parenright
ENCODING 41
SWIDTH 389 0
DWIDTH 6 0
BBX 4 16 1 -4
BITMAP
80
40
20
20
10
10
10
10
10
10
10
10
20
20
40
80
ENDCHAR
STARTCHAR asterisk
ENCODING 42
SWIDTH 666 0
DWIDTH 8 0
BBX 7 9 0 2
BITMAP
10
10
92
54
38
54
92
10
10
ENDCHAR
STARTCHAR plus
ENCODING 43
SWIDTH 778 0
DWIDTH 13 0
BBX 11 11 1 -2
BITMAP
0400
0400
0400
0400
0400
FFE0
0400
0400
0400
0400
0400
ENDCHAR
STARTCHAR comma
ENCODING 44
SWIDTH 500 0
DWIDTH 8 0
BBX 2 4 2 -2
BITMAP
C0
C0
40
80
ENDCHAR
STARTCHAR hyphen
ENCODING 45
SWIDTH 333 0
DWIDTH 5 0
BBX 4 1 0 3
BITMAP
F0
ENDCHAR
STARTCHAR period
ENCODING 46
SWIDTH 500 0
DWIDTH 8 0
BBX 2 2 2 -1
BITMAP
C0
C0
ENDCHAR
STARTCHAR slash
ENCODING 47
SWIDTH 500 0
DWIDTH 8 0
BBX 6 16 1 -4
BITMAP
04
04
08
08
08
10
10
10
20
20
20
40
40
40
80
80
ENDCHAR
STARTCHAR zero
ENCODING 48
SWIDTH 500 0
DWIDTH 8 0
BBX 6 11 1 0
BITMAP
30
48
84
84
84
84
84
84
84
48
30
ENDCHAR
STARTCHAR one
ENCODING 49
SWIDTH 500 0
DWIDTH 8 0
BBX 5 11 2 0
BITMAP
20
E0
20
20
20
20
20
20
20
20
F8
ENDCHAR
STARTCHAR two
ENCODING 50
SWIDTH 500 0
DWIDTH 8 0
BBX 6 11 1 0
BITMAP
78
84
84
04
04
08
10
20
40
80
FC
ENDCHAR
STARTCHAR three
ENCODING 51
SWIDTH 500 0
DWIDTH 8 0
BBX 6 11 1 0
BITMAP
70
88
04
04
08
70
08
04
04
88
70
ENDCHAR
STARTCHAR four
ENCODING 52
SWIDTH 500 0
DWIDTH 8 0
BBX 7 11 1 0
BITMAP
18
18
28
28
48
48
88
FE
08
08
08
ENDCHAR
STARTCHAR five
ENCODING 53
SWIDTH 500 0
DWIDTH 8 0
BBX 6 11 1 0
BITMAP
FC
80
80
80
B8
C4
04
04
04
88
70
ENDCHAR
STARTCHAR six
ENCODING 54
SWIDTH 500 0
DWIDTH 8 0
BBX 6 11 1 0
BITMAP
38
40
80
80
B8
C4
84
84
84
84
78
ENDCHAR
STARTCHAR seven
ENCODING 55
SWIDTH 500 0
DWIDTH 8 0
BBX 7 11 0 0
BITMAP
FE
02
04
08
08
10
10
10
20
20
20
ENDCHAR
STARTCHAR eight
ENCODING 56
SWIDTH 500 0
DWIDTH 8 0
BBX 6 11 1 0
BITMAP
78
84
84
84
48
30
48
84
84
84
78
ENDCHAR
STARTCHAR nine
ENCODING 57
SWIDTH 500 0
DWIDTH 8 0
BBX 6 11 1 0
BITMAP
78
84
84
84
84
8C
74
04
04
84
78
ENDCHAR
STARTCHAR colon
ENCODING 58
SWIDTH 278 0
DWIDTH 4 0
BBX 1 7 2 0
BITMAP
80
00
00
00
00
00
80
ENDCHAR
STARTCHAR semicolon
ENCODING 59
SWIDTH 278 0
DWIDTH 4 0
BBX 1 8 2 -1
BITMAP
80
00
00
00
00
00
80
80
ENDCHAR
STARTCHAR less
ENCODING 60
SWIDTH 778 0
DWIDTH 12 0
BBX 9 10 2 -1
BITMAP
0080
0300
0C00
3000
C000
C000
3000
0800
0600
0180
ENDCHAR
STARTCHAR equal
ENCODING 61
SWIDTH 778 0
DWIDTH 12 0
BBX 10 4 1 2
BITMAP
FFC0
0000
0000
FFC0
ENDCHAR
STARTCHAR greater
ENCODING 62
SWIDTH 778 0
DWIDTH 12 0
BBX 10 10 1 -1
BITMAP
8000
6000
1800
0600
0180
00C0
0300
0C00
3000
C000
ENDCHAR
STARTCHAR question
ENCODING 63
SWIDTH 472 0
DWIDTH 8 0
BBX 5 11 1 0
BITMAP
70
88
08
08
10
20
20
20
00
00
20
ENDCHAR
STARTCHAR at
ENCODING 64
SWIDTH 667 0
DWIDTH 11 0
BBX 8 11 1 0
BITMAP
3E
42
4F
91
91
91
91
91
4E
40
3E
ENDCHAR
STARTCHAR A
ENCODING 65
SWIDTH 667 0
DWIDTH 11 0
BBX 10 11 0 0
BITMAP
0C00
0C00
1200
1200
2100
2100
2100
7F80
4080
8040
8040
ENDCHAR
STARTCHAR B
ENCODING 66
SWIDTH 667 0
DWIDTH 11 0
BBX 7 11 2 0
BITMAP
FC
82
82
82
84
F8
84
82
82
82
FC
ENDCHAR
STARTCHAR C
ENCODING 67
SWIDTH 639 0
DWIDTH 10 0
BBX 8 11 1 0
BITMAP
1F
21
40
80
80
80
80
80
40
21
1E
ENDCHAR
STARTCHAR D
ENCODING 68
SWIDTH 722 0
DWIDTH 12 0
BBX 8 11 2 0
BITMAP
FC
82
82
81
81
81
81
81
82
82
FC
ENDCHAR
STARTCHAR E
ENCODING 69
SWIDTH 597 0
DWIDTH 10 0
BBX 7 11 2 0
BITMAP
FE
80
80
80
80
FC
80
80
80
80
FE
ENDCHAR
STARTCHAR F
ENCODING 70
SWIDTH 569 0
DWIDTH 9 0
BBX 6 11 2 0
BITMAP
FC
80
80
80
80
FC
80
80
80
80
80
ENDCHAR
STARTCHAR G
ENCODING 71
SWIDTH 667 0
DWIDTH 11 0
BBX 8 11 1 0
BITMAP
1F
21
40
80
80
80
87
81
41
21
1F
ENDCHAR
STARTCHAR H
ENCODING 72
SWIDTH 708 0
DWIDTH 11 0
BBX 7 11 2 0
BITMAP
82
82
82
82
82
FE
82
82
82
82
82
ENDCHAR
STARTCHAR I
ENCODING 73
SWIDTH 278 0
DWIDTH 4 0
BBX 1 11 2 0
BITMAP
80
80
80
80
80
80
80
80
80
80
80
ENDCHAR
STARTCHAR J
ENCODING 74
SWIDTH 472 0
DWIDTH 8 0
BBX 5 12 1 -1
BITMAP
08
08
08
08
08
08
08
08
08
08
10
E0
ENDCHAR
STARTCHAR K
ENCODING 75
SWIDTH 694 0
DWIDTH 11 0
BBX 8 11 2 0
BITMAP
81
82
84
88
90
A0
D0
88
84
82
81
ENDCHAR
STARTCHAR L
ENCODING 76
SWIDTH 542 0
DWIDTH 9 0
BBX 6 11 2 0
BITMAP
80
80
80
80
80
80
80
80
80
80
FC
ENDCHAR
STARTCHAR M
ENCODING 77
SWIDTH 875 0
DWIDTH 14 0
BBX 10 11 2 0
BITMAP
C0C0
C0C0
A140
A140
9240
9240
8C40
8C40
8040
8040
8040
ENDCHAR
STARTCHAR N
ENCODING 78
SWIDTH 708 0
DWIDTH 11 0
BBX 7 11 2 0
BITMAP
C2
C2
A2
A2
B2
92
9A
8A
8A
86
86
ENDCHAR
STARTCHAR O
ENCODING 79
SWIDTH 736 0
DWIDTH 12 0
BBX 9 11 1 0
BITMAP
1C00
2200
4100
8080
8080
8080
8080
8080
4100
2200
1C00
ENDCHAR
STARTCHAR P
ENCODING 80
SWIDTH 639 0
DWIDTH 10 0
BBX 7 11 2 0
BITMAP
F8
84
82
82
82
84
F8
80
80
80
80
ENDCHAR
STARTCHAR Q
ENCODING 81
SWIDTH 736 0
DWIDTH 12 0
BBX 9 13 1 -2
BITMAP
1C00
2200
4100
8080
8080
8080
8080
8080
4900
2600
1E00
0100
0080
ENDCHAR
STARTCHAR R
ENCODING 82
SWIDTH 646 0
DWIDTH 10 0
BBX 7 11 2 0
BITMAP
FC
82
82
82
82
FC
88
88
84
84
82
ENDCHAR
STARTCHAR S
ENCODING 83
SWIDTH 555 0
DWIDTH 9 0
BBX 7 11 1 0
BITMAP
38
44
80
80
40
38
04
02
02
84
78
ENDCHAR
STARTCHAR T
ENCODING 84
SWIDTH 680 0
DWIDTH 11 0
BBX 9 11 1 0
BITMAP
FF80
0800
0800
0800
0800
0800
0800
0800
0800
0800
0800
ENDCHAR
STARTCHAR U
ENCODING 85
SWIDTH 687 0
DWIDTH 11 0
BBX 7 11 2 0
BITMAP
82
82
82
82
82
82
82
82
82
44
38
ENDCHAR
STARTCHAR V
ENCODING 86
SWIDTH 667 0
DWIDTH 11 0
BBX 10 11 0 0
BITMAP
8040
8040
4080
4080
2100
2100
2100
1200
1200
0C00
0C00
ENDCHAR
STARTCHAR W
ENCODING 87
SWIDTH 944 0
DWIDTH 15 0
BBX 13 11 1 0
BITMAP
8208
8208
8208
4510
4510
4510
28A0
28A0
28A0
1040
1040
ENDCHAR
STARTCHAR X
ENCODING 88
SWIDTH 667 0
DWIDTH 11 0
BBX 10 10 0 0
BITMAP
8040
4080
2100
1200
0C00
0C00
1200
2100
4080
8040
ENDCHAR
STARTCHAR Y
ENCODING 89
SWIDTH 667 0
DWIDTH 11 0
BBX 9 11 0 0
BITMAP
8080
8080
4100
2200
1400
0800
0800
0800
0800
0800
0800
ENDCHAR
STARTCHAR Z
ENCODING 90
SWIDTH 611 0
DWIDTH 10 0
BBX 8 11 1 0
BITMAP
FF
02
02
04
08
08
10
20
20
40
FF
ENDCHAR
STARTCHAR bracketleft
ENCODING 91
SWIDTH 289 0
DWIDTH 5 0
BBX 3 16 1 -4
BITMAP
E0
80
80
80
80
80
80
80
80
80
80
80
80
80
80
E0
ENDCHAR
STARTCHAR backslash
ENCODING 92
SWIDTH 500 0
DWIDTH 8 0
BBX 6 16 1 -4
BITMAP
80
80
40
40
40
20
20
20
10
10
10
08
08
08
04
04
ENDCHAR
STARTCHAR bracketright
ENCODING 93
SWIDTH 289 0
DWIDTH 5 0
BBX 3 16 0 -4
BITMAP
E0
20
20
20
20
20
20
20
20
20
20
20
20
20
20
E0
ENDCHAR
STARTCHAR asciicircum
ENCODING 94
SWIDTH 611 0
DWIDTH 10 0
BBX 5 3 2 7
BITMAP
20
50
88
ENDCHAR
STARTCHAR underscore
ENCODING 95
SWIDTH 778 0
DWIDTH 12 0
BBX 10 1 1 -4
BITMAP
FFC0
ENDCHAR
STARTCHAR grave
ENCODING 96
SWIDTH 500 0
DWIDTH 8 0
BBX 2 2 3 8
BITMAP
80
40
ENDCHAR
STARTCHAR a
ENCODING 97
SWIDTH 480 0
DWIDTH 8 0
BBX 6 7 1 0
BITMAP
78
84
04
7C
84
84
7C
ENDCHAR
STARTCHAR b
ENCODING 98
SWIDTH 517 0
DWIDTH 8 0
BBX 6 11 1 0
BITMAP
80
80
80
80
B8
C4
84
84
84
84
F8
ENDCHAR
STARTCHAR c
ENCODING 99
SWIDTH 444 0
DWIDTH 7 0
BBX 6 7 1 0
BITMAP
78
84
80
80
80
84
78
ENDCHAR
STARTCHAR d
ENCODING 100
SWIDTH 517 0
DWIDTH 8 0
BBX 6 11 1 0
BITMAP
04
04
04
04
74
8C
84
84
84
8C
74
ENDCHAR
STARTCHAR e
ENCODING 101
SWIDTH 444 0
DWIDTH 7 0
BBX 6 7 0 0
BITMAP
78
84
84
FC
80
84
78
ENDCHAR
STARTCHAR f
ENCODING 102
SWIDTH 305 0
DWIDTH 5 0
BBX 5 11 1 0
BITMAP
38
40
40
40
F0
40
40
40
40
40
40
ENDCHAR
STARTCHAR g
ENCODING 103
SWIDTH 500 0
DWIDTH 8 0
BBX 7 11 0 -3
BITMAP
06
3C
44
44
44
78
80
7E
82
82
7C
ENDCHAR
STARTCHAR h
ENCODING 104
SWIDTH 517 0
DWIDTH 8 0
BBX 6 11 1 0
BITMAP
80
80
80
80
B8
C4
84
84
84
84
84
ENDCHAR
STARTCHAR i
ENCODING 105
SWIDTH 239 0
DWIDTH 4 0
BBX 1 11 1 0
BITMAP
80
00
00
00
80
80
80
80
80
80
80
ENDCHAR
STARTCHAR j
ENCODING 106
SWIDTH 267 0
DWIDTH 4 0
BBX 4 14 -1 -3
BITMAP
10
00
00
00
10
10
10
10
10
10
10
10
10
E0
ENDCHAR
STARTCHAR k
ENCODING 107
SWIDTH 489 0
DWIDTH 8 0
BBX 6 11 1 0
BITMAP
80
80
80
80
88
90
A0
E0
90
88
84
ENDCHAR
STARTCHAR l
ENCODING 108
SWIDTH 239 0
DWIDTH 4 0
BBX 1 11 1 0
BITMAP
80
80
80
80
80
80
80
80
80
80
80
ENDCHAR
STARTCHAR m
ENCODING 109
SWIDTH 794 0
DWIDTH 13 0
BBX 10 7 1 0
BITMAP
B980
C640
8440
8440
8440
8440
8440
ENDCHAR
STARTCHAR n
ENCODING 110
SWIDTH 517 0
DWIDTH 8 0
BBX 6 7 1 0
BITMAP
B8
C4
84
84
84
84
84
ENDCHAR
STARTCHAR o
ENCODING 111
SWIDTH 500 0
DWIDTH 8 0
BBX 6 7 1 0
BITMAP
78
84
84
84
84
84
78
ENDCHAR
STARTCHAR p
ENCODING 112
SWIDTH 517 0
DWIDTH 8 0
BBX 6 10 1 -3
BITMAP
B8
C4
84
84
84
84
F8
80
80
80
ENDCHAR
STARTCHAR q
ENCODING 113
SWIDTH 517 0
DWIDTH 8 0
BBX 6 10 1 -3
BITMAP
74
8C
84
84
84
8C
74
04
04
04
ENDCHAR
STARTCHAR r
ENCODING 114
SWIDTH 342 0
DWIDTH 5 0
BBX 4 7 1 0
BITMAP
B0
C0
80
80
80
80
80
ENDCHAR
STARTCHAR s
ENCODING 115
SWIDTH 383 0
DWIDTH 6 0
BBX 5 7 1 0
BITMAP
78
80
80
70
08
08
F0
ENDCHAR
STARTCHAR t
ENCODING 116
SWIDTH 361 0
DWIDTH 6 0
BBX 4 9 1 0
BITMAP
40
40
F0
40
40
40
40
40
30
ENDCHAR
STARTCHAR u
ENCODING 117
SWIDTH 517 0
DWIDTH 8 0
BBX 6 7 1 0
BITMAP
84
84
84
84
84
8C
74
ENDCHAR
STARTCHAR v
ENCODING 118
SWIDTH 461 0
DWIDTH 7 0
BBX 7 7 0 0
BITMAP
82
82
44
44
28
28
10
ENDCHAR
STARTCHAR w
ENCODING 119
SWIDTH 683 0
DWIDTH 11 0
BBX 9 7 0 0
BITMAP
8880
8880
5500
5500
5500
2200
2200
ENDCHAR
STARTCHAR x
ENCODING 120
SWIDTH 461 0
DWIDTH 7 0
BBX 7 7 0 0
BITMAP
82
44
28
10
28
44
82
ENDCHAR
STARTCHAR y
ENCODING 121
SWIDTH 461 0
DWIDTH 7 0
BBX 7 10 0 -3
BITMAP
82
44
44
28
28
10
10
10
20
C0
ENDCHAR
STARTCHAR z
ENCODING 122
SWIDTH 435 0
DWIDTH 7 0
BBX 6 7 0 0
BITMAP
FC
08
10
20
40
80
FC
ENDCHAR
STARTCHAR braceleft
ENCODING 123
SWIDTH 500 0
DWIDTH 8 0
BBX 6 16 1 -4
BITMAP
1C
20
20
20
20
20
20
60
80
60
20
20
20
20
20
1C
ENDCHAR
STARTCHAR bar
ENCODING 124
SWIDTH 278 0
DWIDTH 4 0
BBX 1 16 2 -4
BITMAP
80
80
80
80
80
80
80
80
80
80
80
80
80
80
80
80
ENDCHAR
STARTCHAR braceright
ENCODING 125
SWIDTH 500 0
DWIDTH 8 0
BBX 6 16 1 -4
BITMAP
C0
20
20
20
20
20
20
10
0C
30
20
20
20
20
20
C0
ENDCHAR
STARTCHAR asciitilde
ENCODING 126
SWIDTH 611 0
DWIDTH 10 0
BBX 7 2 1 9
BITMAP
72
8C
ENDCHAR
STARTCHAR nounicode-3-1-80
ENCODING 128
SWIDTH 636 0
DWIDTH 8 0
BBX 7 12 0 0
BITMAP
1C
22
40
40
F8
40
F8
40
40
40
22
1C
ENDCHAR
STARTCHAR nonbreakingspace
ENCODING 160
SWIDTH 500 0
DWIDTH 10 0
BBX 1 1 0 0
BITMAP
00
ENDCHAR
STARTCHAR exclamdown
ENCODING 161
SWIDTH 500 0
DWIDTH 8 0
BBX 1 12 3 -1
BITMAP
80
00
00
00
80
80
80
80
80
80
80
80
ENDCHAR
STARTCHAR cent
ENCODING 162
SWIDTH 500 0
DWIDTH 8 0
BBX 6 11 1 -1
BITMAP
10
38
54
94
90
90
90
90
54
38
10
ENDCHAR
STARTCHAR sterling
ENCODING 163
SWIDTH 500 0
DWIDTH 8 0
BBX 7 11 0 -1
BITMAP
0C
12
12
10
10
FC
10
20
40
A2
5C
ENDCHAR
STARTCHAR currency
ENCODING 164
SWIDTH 500 0
DWIDTH 8 0
BBX 7 7 0 1
BITMAP
BA
44
82
82
82
44
BA
ENDCHAR
STARTCHAR yen
ENCODING 165
SWIDTH 500 0
DWIDTH 8 0
BBX 7 10 0 0
BITMAP
EE
44
28
7C
10
10
7C
10
10
38
ENDCHAR
STARTCHAR brokenbar
ENCODING 166
SWIDTH 500 0
DWIDTH 8 0
BBX 1 13 3 -2
BITMAP
80
80
80
80
80
00
00
00
80
80
80
80
80
ENDCHAR
STARTCHAR section
ENCODING 167
SWIDTH 500 0
DWIDTH 8 0
BBX 6 14 1 -2
BITMAP
30
48
48
40
20
50
88
84
44
38
10
48
48
30
ENDCHAR
STARTCHAR dieresis
ENCODING 168
SWIDTH 500 0
DWIDTH 8 0
BBX 4 2 2 8
BITMAP
90
90
ENDCHAR
STARTCHAR copyright
ENCODING 169
SWIDTH 500 0
DWIDTH 8 0
BBX 8 9 0 1
BITMAP
3C
42
99
A5
A1
A5
99
42
3C
ENDCHAR
STARTCHAR ordfeminine
ENCODING 170
SWIDTH 500 0
DWIDTH 8 0
BBX 5 8 1 3
BITMAP
60
90
70
90
90
68
00
F8
ENDCHAR
STARTCHAR guillemotleft
ENCODING 171
SWIDTH 500 0
DWIDTH 8 0
BBX 7 7 0 1
BITMAP
12
24
48
90
48
24
12
ENDCHAR
STARTCHAR logicalnot
ENCODING 172
SWIDTH 500 0
DWIDTH 8 0
BBX 6 3 1 3
BITMAP
FC
04
04
ENDCHAR
STARTCHAR softhyphen
ENCODING 173
SWIDTH 500 0
DWIDTH 8 0
BBX 4 1 2 4
BITMAP
F0
ENDCHAR
STARTCHAR registered
ENCODING 174
SWIDTH 500 0
DWIDTH 8 0
BBX 8 9 0 1
BITMAP
3C
42
B9
A5
B9
A9
A5
42
3C
ENDCHAR
STARTCHAR macron
ENCODING 175
SWIDTH 500 0
DWIDTH 8 0
BBX 5 1 1 9
BITMAP
F8
ENDCHAR
STARTCHAR degree
ENCODING 176
SWIDTH 500 0
DWIDTH 8 0
BBX 4 4 2 7
BITMAP
60
90
90
60
ENDCHAR
STARTCHAR plusminus
ENCODING 177
SWIDTH 500 0
DWIDTH 8 0
BBX 7 9 0 0
BITMAP
10
10
10
FE
10
10
10
00
FE
ENDCHAR
STARTCHAR uni00B2
ENCODING 178
SWIDTH 500 0
DWIDTH 8 0
BBX 4 7 2 4
BITMAP
60
90
90
20
40
90
F0
ENDCHAR
STARTCHAR uni00B3
ENCODING 179
SWIDTH 500 0
DWIDTH 8 0
BBX 4 7 2 4
BITMAP
60
90
10
60
10
90
60
ENDCHAR
STARTCHAR acute
ENCODING 180
SWIDTH 500 0
DWIDTH 8 0
BBX 3 4 2 7
BITMAP
20
20
40
80
ENDCHAR
STARTCHAR mu
ENCODING 181
SWIDTH 500 0
DWIDTH 8 0
BBX 7 10 0 -2
BITMAP
44
44
44
44
44
44
64
5A
40
80
ENDCHAR
STARTCHAR paragraph
ENCODING 182
SWIDTH 500 0
DWIDTH 8 0
BBX 7 12 0 -1
BITMAP
7E
E4
E4
E4
E4
64
24
24
24
24
24
24
ENDCHAR
STARTCHAR periodcentered
ENCODING 183
SWIDTH 500 0
DWIDTH 8 0
BBX 2 2 3 4
BITMAP
C0
C0
ENDCHAR
STARTCHAR cedilla
ENCODING 184
SWIDTH 500 0
DWIDTH 8 0
BBX 4 4 2 -2
BITMAP
20
40
30
C0
ENDCHAR
STARTCHAR uni00B9
ENCODING 185
SWIDTH 500 0
DWIDTH 8 0
BBX 3 7 2 4
BITMAP
40
C0
40
40
40
40
E0
ENDCHAR
STARTCHAR ordmasculine
ENCODING 186
SWIDTH 500 0
DWIDTH 8 0
BBX 4 7 2 4
BITMAP
60
90
90
90
60
00
F0
ENDCHAR
STARTCHAR guillemotright
ENCODING 187
SWIDTH 500 0
DWIDTH 8 0
BBX 7 7 0 1
BITMAP
90
48
24
12
24
48
90
ENDCHAR
STARTCHAR onequarter
ENCODING 188
SWIDTH 500 0
DWIDTH 8 0
BBX 8 12 0 -1
BITMAP
40
C4
44
48
48
53
55
29
29
4F
41
01
ENDCHAR
STARTCHAR onehalf
ENCODING 189
SWIDTH 500 0
DWIDTH 8 0
BBX 8 12 0 -1
BITMAP
42
C2
44
44
48
48
57
11
23
24
44
47
ENDCHAR
STARTCHAR threequarters
ENCODING 190
SWIDTH 500 0
DWIDTH 8 0
BBX 8 12 0 -1
BITMAP
60
92
12
64
14
98
6B
15
29
29
4F
81
ENDCHAR
STARTCHAR questiondown
ENCODING 191
SWIDTH 1000 0
DWIDTH 8 0
BBX 6 12 1 -1
BITMAP
30
30
00
10
10
20
40
40
80
84
84
78
ENDCHAR
STARTCHAR multiply
ENCODING 215
SWIDTH 1000 0
DWIDTH 16 0
BBX 10 10 3 1
BITMAP
8040
4080
2100
1200
0C00
0C00
1200
2100
4080
8040
ENDCHAR
STARTCHAR agrave
ENCODING 224
SWIDTH 1000 0
DWIDTH 16 0
BBX 8 13 4 1
BITMAP
30
0C
00
00
3C
02
02
3E
42
82
82
42
3F
ENDCHAR
STARTCHAR aacute
ENCODING 225
SWIDTH 1000 0
DWIDTH 16 0
BBX 8 14 4 0
BITMAP
06
18
20
00
00
3C
02
02
3E
42
82
82
42
3F
ENDCHAR
STARTCHAR egrave
ENCODING 232
SWIDTH 1000 0
DWIDTH 16 0
BBX 7 13 1 0
BITMAP
40
60
10
00
38
44
82
82
FE
80
82
44
38
ENDCHAR
STARTCHAR eacute
ENCODING 233
SWIDTH 1000 0
DWIDTH 16 0
BBX 7 13 1 0
BITMAP
08
18
20
00
38
44
82
82
FE
80
82
44
38
ENDCHAR
STARTCHAR ecircumflex
ENCODING 234
SWIDTH 1000 0
DWIDTH 16 0
BBX 7 13 1 0
BITMAP
10
38
44
00
38
44
82
82
FE
80
82
44
38
ENDCHAR
STARTCHAR igrave
ENCODING 236
SWIDTH 1000 0
DWIDTH 16 0
BBX 3 13 1 0
BITMAP
80
C0
20
00
40
40
40
40
40
40
40
40
40
ENDCHAR
STARTCHAR iacute
ENCODING 237
SWIDTH 1000 0
DWIDTH 16 0
BBX 3 13 1 0
BITMAP
20
60
80
00
40
40
40
40
40
40
40
40
40
ENDCHAR
STARTCHAR ograve
ENCODING 242
SWIDTH 1000 0
DWIDTH 16 0
BBX 7 14 4 0
BITMAP
30
08
00
00
00
38
44
82
82
82
82
82
44
38
ENDCHAR
STARTCHAR oacute
ENCODING 243
SWIDTH 1000 0
DWIDTH 16 0
BBX 7 13 4 1
BITMAP
0C
30
00
00
00
38
44
82
82
82
82
44
38
ENDCHAR
STARTCHAR divide
ENCODING 247
SWIDTH 1000 0
DWIDTH 16 0
BBX 11 9 2 2
BITMAP
0600
0600
0000
0000
FFE0
0000
0000
0600
0600
ENDCHAR
STARTCHAR ugrave
ENCODING 249
SWIDTH 1000 0
DWIDTH 16 0
BBX 7 13 1 0
BITMAP
20
30
08
00
82
82
82
82
82
82
82
86
7A
ENDCHAR
STARTCHAR uacute
ENCODING 250
SWIDTH 1000 0
DWIDTH 16 0
BBX 7 13 1 0
BITMAP
04
0C
10
00
82
82
82
82
82
82
82
86
7A
ENDCHAR
STARTCHAR udieresis
ENCODING 252
SWIDTH 1000 0
DWIDTH 16 0
BBX 7 12 1 0
BITMAP
28
28
00
82
82
82
82
82
82
82
86
7A
ENDCHAR
STARTCHAR amacron
ENCODING 257
SWIDTH 1000 0
DWIDTH 16 0
BBX 7 11 4 1
BITMAP
7E
00
00
74
8C
84
84
84
84
8C
72
ENDCHAR
STARTCHAR emacron
ENCODING 275
SWIDTH 1000 0
DWIDTH 16 0
BBX 7 12 4 1
BITMAP
7E
00
00
00
3C
44
82
FE
80
80
42
3C
ENDCHAR
STARTCHAR ecaron
ENCODING 283
SWIDTH 1000 0
DWIDTH 16 0
BBX 7 13 4 1
BITMAP
04
28
18
00
00
3C
44
82
FE
80
80
42
3C
ENDCHAR
STARTCHAR imacron
ENCODING 299
SWIDTH 1000 0
DWIDTH 16 0
BBX 6 12 5 1
BITMAP
FC
00
00
00
20
60
20
20
20
20
20
70
ENDCHAR
STARTCHAR nacute
ENCODING 324
SWIDTH 1000 0
DWIDTH 16 0
BBX 1 1 15 -2
BITMAP
00
ENDCHAR
STARTCHAR ncaron
ENCODING 328
SWIDTH 1000 0
DWIDTH 16 0
BBX 1 1 15 -2
BITMAP
00
ENDCHAR
STARTCHAR omacron
ENCODING 333
SWIDTH 1000 0
DWIDTH 16 0
BBX 7 12 4 1
BITMAP
7E
00
00
00
38
44
82
82
82
82
44
38
ENDCHAR
STARTCHAR umacron
ENCODING 363
SWIDTH 1000 0
DWIDTH 16 0
BBX 7 12 5 1
BITMAP
FC
00
00
00
84
84
84
84
84
84
8C
76
ENDCHAR
STARTCHAR U_01CE
ENCODING 462
SWIDTH 1000 0
DWIDTH 16 0
BBX 7 13 4 1
BITMAP
40
28
18
00
00
78
04
7C
84
84
84
84
7E
ENDCHAR
STARTCHAR U_01D0
ENCODING 464
SWIDTH 1000 0
DWIDTH 16 0
BBX 5 13 5 1
BITMAP
88
50
20
00
00
20
60
20
20
20
20
20
70
ENDCHAR
STARTCHAR U_01D2
ENCODING 466
SWIDTH 1000 0
DWIDTH 16 0
BBX 7 13 4 1
BITMAP
40
2C
18
00
00
38
44
82
82
82
82
44
38
ENDCHAR
STARTCHAR U_01D4
ENCODING 468
SWIDTH 1000 0
DWIDTH 16 0
BBX 7 13 5 1
BITMAP
84
48
30
00
00
84
84
84
84
84
84
8C
76
ENDCHAR
STARTCHAR U_01D6
ENCODING 470
SWIDTH 1000 0
DWIDTH 16 0
BBX 7 13 5 1
BITMAP
FC
00
00
84
00
84
84
84
84
84
84
8C
76
ENDCHAR
STARTCHAR U_01D8
ENCODING 472
SWIDTH 1000 0
DWIDTH 16 0
BBX 7 13 5 1
BITMAP
08
30
40
84
00
84
84
84
84
84
84
8C
76
ENDCHAR
STARTCHAR U_01DA
ENCODING 474
SWIDTH 1000 0
DWIDTH 16 0
BBX 7 12 5 1
BITMAP
48
30
84
00
84
84
84
84
84
84
8C
76
ENDCHAR
STARTCHAR U_01DC
ENCODING 476
SWIDTH 1000 0
DWIDTH 16 0
BBX 7 13 5 1
BITMAP
60
10
00
84
00
84
84
84
84
84
84
8C
76
ENDCHAR
STARTCHAR caron
ENCODING 711
SWIDTH 1000 0
DWIDTH 16 0
BBX 7 6 4 4
BITMAP
82
44
24
28
38
10
ENDCHAR
STARTCHAR U_02C9
ENCODING 713
SWIDTH 1000 0
DWIDTH 16 0
BBX 7 1 5 10
BITMAP
FE
ENDCHAR
STARTCHAR U_02CA
ENCODING 714
SWIDTH 1000 0
DWIDTH 16 0
BBX 5 6 5 4
BITMAP
08
08
10
60
E0
40
ENDCHAR
STARTCHAR U_02CB
ENCODING 715
SWIDTH 1000 0
DWIDTH 16 0
BBX 6 6 5 4
BITMAP
80
C0
60
30
18
04
ENDCHAR
STARTCHAR U_02CD
ENCODING 717
SWIDTH 1000 0
DWIDTH 16 0
BBX 16 1 0 -1
BITMAP
FFFF
ENDCHAR
STARTCHAR dotaccent
ENCODING 729
SWIDTH 1000 0
DWIDTH 16 0
BBX 4 5 6 5
BITMAP
60
F0
F0
F0
60
ENDCHAR
STARTCHAR Alpha
ENCODING 913
SWIDTH 1000 0
DWIDTH 16 0
BBX 13 13 2 0
BITMAP
0200
0200
0500
0500
0880
0880
1040
1FC0
1040
2020
2020
4010
E038
ENDCHAR
STARTCHAR Beta
ENCODING 914
SWIDTH 1000 0
DWIDTH 16 0
BBX 12 13 2 0
BITMAP
FF80
2040
2020
2020
2040
3F80
2040
2020
2010
2010
2020
20C0
FF00
ENDCHAR
STARTCHAR Gamma
ENCODING 915
SWIDTH 1000 0
DWIDTH 16 0
BBX 11 13 3 0
BITMAP
FFC0
2040
2020
2000
2000
2000
2000
2000
2000
2000
2000
2000
7000
ENDCHAR
STARTCHAR U_0394
ENCODING 916
SWIDTH 1000 0
DWIDTH 16 0
BBX 13 13 1 0
BITMAP
0200
0200
0500
0500
0880
0880
1040
1040
1020
2020
2020
4010
FFF8
ENDCHAR
STARTCHAR Epsilon
ENCODING 917
SWIDTH 1000 0
DWIDTH 16 0
BBX 12 13 2 0
BITMAP
FFE0
2020
2010
2000
2000
2100
3F00
2100
2000
2000
2010
2020
FFE0
ENDCHAR
STARTCHAR Zeta
ENCODING 918
SWIDTH 1000 0
DWIDTH 16 0
BBX 10 13 3 0
BITMAP
7FC0
4080
8100
0200
0200
0400
0800
0800
1000
2000
2040
4040
FFC0
ENDCHAR
STARTCHAR Eta
ENCODING 919
SWIDTH 1000 0
DWIDTH 16 0
BBX 12 13 2 0
BITMAP
E070
4020
4020
4020
4020
4020
7FE0
4020
4020
4020
4020
4020
E070
ENDCHAR
STARTCHAR Theta
ENCODING 920
SWIDTH 1000 0
DWIDTH 16 0
BBX 12 13 2 0
BITMAP
0F00
30C0
6060
4020
8010
9090
9F90
9090
8010
4020
6060
30C0
0F00
ENDCHAR
STARTCHAR Iota
ENCODING 921
SWIDTH 1000 0
DWIDTH 16 0
BBX 3 13 6 0
BITMAP
E0
40
40
40
40
40
40
40
40
40
40
40
E0
ENDCHAR
STARTCHAR Kappa
ENCODING 922
SWIDTH 1000 0
DWIDTH 16 0
BBX 12 13 3 0
BITMAP
E0E0
4080
4100
4200
4400
4800
5800
6400
4200
4100
4080
4040
E070
ENDCHAR
STARTCHAR Lambda
ENCODING 923
SWIDTH 1000 0
DWIDTH 16 0
BBX 13 13 2 0
BITMAP
0200
0200
0500
0500
0880
0880
1040
1040
1040
2020
2020
4010
E038
ENDCHAR
STARTCHAR Mu
ENCODING 924
SWIDTH 1000 0
DWIDTH 16 0
BBX 13 13 1 0
BITMAP
C018
4010
6030
6030
5050
5050
4890
4890
4890
4510
4510
4210
E238
ENDCHAR
STARTCHAR Nu
ENCODING 925
SWIDTH 1000 0
DWIDTH 16 0
BBX 12 13 2 0
BITMAP
E070
6020
5020
5020
4820
4420
4420
4220
4120
4120
40A0
4060
E020
ENDCHAR
STARTCHAR Xi
ENCODING 926
SWIDTH 1000 0
DWIDTH 16 0
BBX 12 13 2 0
BITMAP
FFF0
8010
0000
0000
0000
4020
7FE0
4020
0000
0000
0000
8010
FFF0
ENDCHAR
STARTCHAR Omicron
ENCODING 927
SWIDTH 1000 0
DWIDTH 16 0
BBX 12 13 2 0
BITMAP
0F00
30C0
6060
4020
8010
8010
8010
8010
8010
4020
6060
30C0
0F00
ENDCHAR
STARTCHAR Pi
ENCODING 928
SWIDTH 1000 0
DWIDTH 16 0
BBX 10 13 3 0
BITMAP
FFC0
4080
4080
4080
4080
4080
4080
4080
4080
4080
4080
4080
E1C0
ENDCHAR
STARTCHAR Rho
ENCODING 929
SWIDTH 1000 0
DWIDTH 16 0
BBX 11 13 3 0
BITMAP
FF00
20C0
2020
2020
2020
20C0
3F00
2000
2000
2000
2000
2000
7000
ENDCHAR
STARTCHAR Sigma
ENCODING 931
SWIDTH 1000 0
DWIDTH 16 0
BBX 10 13 3 0
BITMAP
FF80
4080
2040
1000
0800
0400
0600
0400
0800
1000
2040
4040
FFC0
ENDCHAR
STARTCHAR Tau
ENCODING 932
SWIDTH 1000 0
DWIDTH 16 0
BBX 13 13 1 0
BITMAP
7FF0
4210
8208
0200
0200
0200
0200
0200
0200
0200
0200
0200
0700
ENDCHAR
STARTCHAR Upsilon
ENCODING 933
SWIDTH 1000 0
DWIDTH 16 0
BBX 13 13 2 0
BITMAP
38E0
4510
8208
0200
0200
0200
0200
0200
0200
0200
0200
0200
0700
ENDCHAR
STARTCHAR Phi
ENCODING 934
SWIDTH 1000 0
DWIDTH 16 0
BBX 11 13 3 0
BITMAP
0E00
0400
1F00
64C0
4440
8420
8420
8420
4440
64C0
1F00
0400
0E00
ENDCHAR
STARTCHAR Chi
ENCODING 935
SWIDTH 1000 0
DWIDTH 16 0
BBX 11 13 2 0
BITMAP
E0E0
4040
2080
1100
1100
0A00
0400
0A00
1100
1100
2080
4040
E0E0
ENDCHAR
STARTCHAR Psi
ENCODING 936
SWIDTH 1000 0
DWIDTH 16 0
BBX 15 13 0 0
BITMAP
0380
610C
9112
1110
1110
1110
1110
1930
0920
07C0
0100
0100
0380
ENDCHAR
STARTCHAR U_03A9
ENCODING 937
SWIDTH 1000 0
DWIDTH 16 0
BBX 11 13 3 0
BITMAP
0E00
3180
60C0
4040
8020
8020
8020
4040
60C0
3180
8A20
8A20
FBE0
ENDCHAR
STARTCHAR alpha
ENCODING 945
SWIDTH 1000 0
DWIDTH 16 0
BBX 10 9 3 0
BITMAP
0040
1C40
2280
4280
4300
8200
8600
8A40
7180
ENDCHAR
STARTCHAR beta
ENCODING 946
SWIDTH 1000 0
DWIDTH 16 0
BBX 10 15 3 -2
BITMAP
0380
0440
0840
0840
1040
1080
2700
2100
2080
4080
4080
5100
4E00
8000
8000
ENDCHAR
STARTCHAR gamma
ENCODING 947
SWIDTH 1000 0
DWIDTH 16 0
BBX 11 10 2 -2
BITMAP
3860
4480
8500
0600
0600
0400
0800
0800
1000
1000
ENDCHAR
STARTCHAR delta
ENCODING 948
SWIDTH 1000 0
DWIDTH 16 0
BBX 10 13 3 0
BITMAP
0C00
1300
1080
0840
0400
1A00
2200
4100
8100
8200
8200
4400
3800
ENDCHAR
STARTCHAR epsilon
ENCODING 949
SWIDTH 1000 0
DWIDTH 16 0
BBX 7 8 5 0
BITMAP
3C
42
40
38
40
80
84
78
ENDCHAR
STARTCHAR zeta
ENCODING 950
SWIDTH 1000 0
DWIDTH 16 0
BBX 8 16 4 -2
BITMAP
20
41
42
3C
08
10
20
40
80
80
40
30
08
04
04
18
ENDCHAR
STARTCHAR eta
ENCODING 951
SWIDTH 1000 0
DWIDTH 16 0
BBX 9 10 3 -2
BITMAP
6700
9880
1080
2080
2080
2100
4100
4100
0200
0200
ENDCHAR
STARTCHAR theta
ENCODING 952
SWIDTH 1000 0
DWIDTH 16 0
BBX 9 13 4 0
BITMAP
0600
0900
1080
2080
2080
7F80
4100
8100
8200
8200
8400
4800
3000
ENDCHAR
STARTCHAR iota
ENCODING 953
SWIDTH 1000 0
DWIDTH 16 0
BBX 7 8 4 0
BITMAP
20
20
40
40
80
82
8C
70
ENDCHAR
STARTCHAR kappa
ENCODING 954
SWIDTH 1000 0
DWIDTH 16 0
BBX 10 8 3 0
BITMAP
2180
2240
2C00
3000
4800
4800
8880
8700
ENDCHAR
STARTCHAR lambda
ENCODING 955
SWIDTH 1000 0
DWIDTH 16 0
BBX 10 13 3 0
BITMAP
0400
0200
0200
0200
0200
0200
0600
0A00
0A00
1100
2100
4080
8040
ENDCHAR
STARTCHAR U_03BC
ENCODING 956
SWIDTH 1000 0
DWIDTH 16 0
BBX 11 10 2 -2
BITMAP
1080
1080
1080
1100
2100
2100
3320
4CC0
4000
8000
ENDCHAR
STARTCHAR nu
ENCODING 957
SWIDTH 1000 0
DWIDTH 16 0
BBX 9 8 3 0
BITMAP
C080
2080
2100
2100
2200
4400
5800
E000
ENDCHAR
STARTCHAR xi
ENCODING 958
SWIDTH 1000 0
DWIDTH 16 0
BBX 9 16 3 -2
BITMAP
0080
0700
0800
0400
1F00
2000
2000
1000
7E00
8000
8000
7000
0C00
0200
0200
7C00
ENDCHAR
STARTCHAR omicron
ENCODING 959
SWIDTH 1000 0
DWIDTH 16 0
BBX 8 8 4 0
BITMAP
1C
22
41
81
81
82
44
38
ENDCHAR
STARTCHAR pi
ENCODING 960
SWIDTH 1000 0
DWIDTH 16 0
BBX 10 9 3 0
BITMAP
0040
7F80
9200
1200
1200
2400
2400
4480
8300
ENDCHAR
STARTCHAR rho
ENCODING 961
SWIDTH 1000 0
DWIDTH 16 0
BBX 9 10 3 -2
BITMAP
0E00
1100
2080
2080
2080
4080
5100
4E00
8000
8000
ENDCHAR
STARTCHAR sigma
ENCODING 963
SWIDTH 1000 0
DWIDTH 16 0
BBX 8 9 5 0
BITMAP
01
1E
24
42
82
82
84
48
30
ENDCHAR
STARTCHAR tau
ENCODING 964
SWIDTH 1000 0
DWIDTH 16 0
BBX 10 9 3 0
BITMAP
0040
7F80
8800
0800
1000
1000
2100
2200
1C00
ENDCHAR
STARTCHAR upsilon
ENCODING 965
SWIDTH 1000 0
DWIDTH 16 0
BBX 7 8 6 0
BITMAP
44
42
42
44
84
88
90
60
ENDCHAR
STARTCHAR phi
ENCODING 966
SWIDTH 1000 0
DWIDTH 16 0
BBX 8 15 4 -2
BITMAP
02
02
02
04
04
1E
69
89
89
91
96
78
20
20
20
ENDCHAR
STARTCHAR chi
ENCODING 967
SWIDTH 1000 0
DWIDTH 16 0
BBX 10 10 2 -2
BITMAP
1840
2480
0500
0600
0400
0C00
1400
2400
4240
8180
ENDCHAR
STARTCHAR psi
ENCODING 968
SWIDTH 1000 0
DWIDTH 16 0
BBX 10 15 3 -2
BITMAP
0100
0100
0200
0200
0200
4440
A440
2480
2880
4900
4A00
3C00
1000
1000
1000
ENDCHAR
STARTCHAR omega
ENCODING 969
SWIDTH 1000 0
DWIDTH 16 0
BBX 11 8 2 0
BITMAP
1040
2240
4220
4220
8420
8420
8A40
7180
ENDCHAR
STARTCHAR afii10023
ENCODING 1025
SWIDTH 1000 0
DWIDTH 16 0
BBX 9 13 3 1
BITMAP
2200
0000
FF80
2080
2000
2200
2200
3E00
2200
2200
2000
2080
FF80
ENDCHAR
STARTCHAR afii10017
ENCODING 1040
SWIDTH 1000 0
DWIDTH 16 0
BBX 13 13 2 0
BITMAP
0200
0200
0500
0500
0880
0880
1040
1FC0
1040
2020
2020
4010
E038
ENDCHAR
STARTCHAR afii10018
ENCODING 1041
SWIDTH 1000 0
DWIDTH 16 0
BBX 12 13 2 0
BITMAP
FFC0
2040
2020
2000
2000
3F80
2040
2020
2010
2010
2020
20C0
FF00
ENDCHAR
STARTCHAR afii10019
ENCODING 1042
SWIDTH 1000 0
DWIDTH 16 0
BBX 12 13 2 0
BITMAP
FF80
2040
2020
2020
2040
3F80
2040
2020
2010
2010
2020
20C0
FF00
ENDCHAR
STARTCHAR afii10020
ENCODING 1043
SWIDTH 1000 0
DWIDTH 16 0
BBX 11 13 3 0
BITMAP
FFC0
2040
2020
2000
2000
2000
2000
2000
2000
2000
2000
2000
7000
ENDCHAR
STARTCHAR afii10021
ENCODING 1044
SWIDTH 1000 0
DWIDTH 16 0
BBX 12 15 2 -2
BITMAP
3FF0
0840
0840
0840
0840
0840
0840
0840
0840
1040
1040
2040
FFF0
8010
8010
ENDCHAR
STARTCHAR afii10022
ENCODING 1045
SWIDTH 1000 0
DWIDTH 16 0
BBX 12 13 2 0
BITMAP
FFE0
2020
2010
2000
2000
2100
3F00
2100
2000
2000
2010
2020
FFE0
ENDCHAR
STARTCHAR afii10024
ENCODING 1046
SWIDTH 1000 0
DWIDTH 16 0
BBX 15 13 1 0
BITMAP
638C
9112
1110
1110
1110
0920
0FE0
1110
2108
2108
4104
4104
E38E
ENDCHAR
STARTCHAR afii10025
ENCODING 1047
SWIDTH 1000 0
DWIDTH 16 0
BBX 10 13 3 0
BITMAP
1E00
6180
80C0
0040
0040
0080
1F00
0080
0040
0040
8080
6180
1E00
ENDCHAR
STARTCHAR afii10026
ENCODING 1048
SWIDTH 1000 0
DWIDTH 16 0
BBX 12 13 2 0
BITMAP
E070
4060
40A0
40A0
4120
4220
4220
4420
4820
4820
5020
6020
4070
ENDCHAR
STARTCHAR afii10027
ENCODING 1049
SWIDTH 1000 0
DWIDTH 16 0
BBX 12 14 2 0
BITMAP
1980
1080
EF30
4060
4060
40A0
4120
4220
4220
4420
4820
5020
6020
4070
ENDCHAR
STARTCHAR afii10028
ENCODING 1050
SWIDTH 1000 0
DWIDTH 16 0
BBX 11 13 3 0
BITMAP
E1C0
4220
4200
4400
4400
4800
7800
4400
4200
4100
4080
4040
E0E0
ENDCHAR
STARTCHAR afii10029
ENCODING 1051
SWIDTH 1000 0
DWIDTH 16 0
BBX 12 13 1 0
BITMAP
1FF0
0420
0420
0420
0420
0420
0420
0420
0820
0820
1020
A020
C070
ENDCHAR
STARTCHAR afii10030
ENCODING 1052
SWIDTH 1000 0
DWIDTH 16 0
BBX 14 13 1 0
BITMAP
6018
2010
3030
3030
2850
2850
2450
2490
4488
4288
4308
4108
F11C
ENDCHAR
STARTCHAR afii10031
ENCODING 1053
SWIDTH 1000 0
DWIDTH 16 0
BBX 12 13 2 0
BITMAP
E070
4020
4020
4020
4020
4020
7FE0
4020
4020
4020
4020
4020
E070
ENDCHAR
STARTCHAR afii10032
ENCODING 1054
SWIDTH 1000 0
DWIDTH 16 0
BBX 12 13 2 0
BITMAP
0F00
30C0
6060
4020
8010
8010
8010
8010
8010
4020
6060
30C0
0F00
ENDCHAR
STARTCHAR afii10033
ENCODING 1055
SWIDTH 1000 0
DWIDTH 16 0
BBX 11 13 3 0
BITMAP
FFE0
4040
4040
4040
4040
4040
4040
4040
4040
4040
4040
4040
E0E0
ENDCHAR
STARTCHAR afii10034
ENCODING 1056
SWIDTH 1000 0
DWIDTH 16 0
BBX 11 13 3 0
BITMAP
FF00
20C0
2020
2020
2020
20C0
3F00
2000
2000
2000
2000
2000
7000
ENDCHAR
STARTCHAR afii10035
ENCODING 1057
SWIDTH 1000 0
DWIDTH 16 0
BBX 11 13 2 0
BITMAP
0F00
30A0
6060
4020
8000
8000
8000
8000
8000
4020
6060
30C0
0F00
ENDCHAR
STARTCHAR afii10036
ENCODING 1058
SWIDTH 1000 0
DWIDTH 16 0
BBX 13 13 1 0
BITMAP
7FF0
4210
8208
0200
0200
0200
0200
0200
0200
0200
0200
0200
0700
ENDCHAR
STARTCHAR afii10037
ENCODING 1059
SWIDTH 1000 0
DWIDTH 16 0
BBX 11 13 3 0
BITMAP
E0E0
4040
2080
2080
1100
1100
0A00
0A00
0400
0400
0800
9000
6000
ENDCHAR
STARTCHAR afii10038
ENCODING 1060
SWIDTH 1000 0
DWIDTH 16 0
BBX 11 13 3 0
BITMAP
0E00
0400
1F00
64C0
4440
8420
8420
8420
4440
64C0
1F00
0400
0E00
ENDCHAR
STARTCHAR afii10039
ENCODING 1061
SWIDTH 1000 0
DWIDTH 16 0
BBX 11 13 2 0
BITMAP
E0E0
4040
2080
1100
1100
0A00
0400
0A00
1100
1100
2080
4040
E0E0
ENDCHAR
STARTCHAR afii10040
ENCODING 1062
SWIDTH 1000 0
DWIDTH 16 0
BBX 12 15 2 -2
BITMAP
E0E0
4040
4040
4040
4040
4040
4040
4040
4040
4040
4040
4040
FFF0
0010
0010
ENDCHAR
STARTCHAR afii10041
ENCODING 1063
SWIDTH 1000 0
DWIDTH 16 0
BBX 10 13 3 0
BITMAP
E1C0
4080
4080
4080
4080
4080
2180
1E80
0080
0080
0080
0080
01C0
ENDCHAR
STARTCHAR afii10042
ENCODING 1064
SWIDTH 1000 0
DWIDTH 16 0
BBX 13 13 2 0
BITMAP
E738
4210
4210
4210
4210
4210
4210
4210
4210
4210
4210
4210
FFF8
ENDCHAR
STARTCHAR afii10043
ENCODING 1065
SWIDTH 1000 0
DWIDTH 16 0
BBX 14 15 2 -2
BITMAP
E738
4210
4210
4210
4210
4210
4210
4210
4210
4210
4210
4210
FFFC
0004
0004
ENDCHAR
STARTCHAR afii10044
ENCODING 1066
SWIDTH 1000 0
DWIDTH 16 0
BBX 14 13 1 0
BITMAP
7E00
4400
8400
0400
0400
07E0
0418
040C
0404
0404
040C
0418
0FE0
ENDCHAR
STARTCHAR afii10045
ENCODING 1067
SWIDTH 1000 0
DWIDTH 16 0
BBX 12 13 2 0
BITMAP
E070
4020
4020
4020
4020
7820
4620
4320
4120
4120
4320
4620
F870
ENDCHAR
STARTCHAR afii10046
ENCODING 1068
SWIDTH 1000 0
DWIDTH 16 0
BBX 10 13 3 0
BITMAP
E000
4000
4000
4000
4000
7E00
4180
40C0
4040
4040
40C0
4180
FE00
ENDCHAR
STARTCHAR afii10047
ENCODING 1069
SWIDTH 1000 0
DWIDTH 16 0
BBX 11 13 3 0
BITMAP
1E00
6180
40C0
8040
0060
38A0
4720
0020
0020
8040
40C0
6180
1E00
ENDCHAR
STARTCHAR afii10048
ENCODING 1070
SWIDTH 1000 0
DWIDTH 16 0
BBX 13 13 2 0
BITMAP
E1C0
4220
4410
4410
4808
4808
7808
4808
4808
4410
4410
4220
E1C0
ENDCHAR
STARTCHAR afii10049
ENCODING 1071
SWIDTH 1000 0
DWIDTH 16 0
BBX 12 13 1 0
BITMAP
07F0
1820
2020
2020
2020
1820
07E0
0220
0420
0820
0820
3020
C070
ENDCHAR
STARTCHAR afii10065
ENCODING 1072
SWIDTH 1000 0
DWIDTH 16 0
BBX 9 9 4 0
BITMAP
3C00
4200
0200
3A00
4600
8200
8600
8A80
7180
ENDCHAR
STARTCHAR afii10066
ENCODING 1073
SWIDTH 1000 0
DWIDTH 16 0
BBX 8 13 4 0
BITMAP
01
1E
20
40
40
BC
C2
81
81
81
81
42
3C
ENDCHAR
STARTCHAR afii10067
ENCODING 1074
SWIDTH 1000 0
DWIDTH 16 0
BBX 8 9 4 0
BITMAP
FE
41
41
42
7E
41
41
41
FE
ENDCHAR
STARTCHAR afii10068
ENCODING 1075
SWIDTH 1000 0
DWIDTH 16 0
BBX 8 9 4 0
BITMAP
FF
41
41
40
40
40
40
40
E0
ENDCHAR
STARTCHAR afii10069
ENCODING 1076
SWIDTH 1000 0
DWIDTH 16 0
BBX 10 11 3 -2
BITMAP
3F80
1100
1100
1100
1100
1100
2100
2100
FFC0
8040
8040
ENDCHAR
STARTCHAR afii10070
ENCODING 1077
SWIDTH 1000 0
DWIDTH 16 0
BBX 7 9 4 0
BITMAP
38
44
82
82
FE
80
80
42
3C
ENDCHAR
STARTCHAR afii10072
ENCODING 1078
SWIDTH 1000 0
DWIDTH 16 0
BBX 11 9 3 0
BITMAP
CE60
4440
2480
1F00
1500
2480
2480
4440
8E20
ENDCHAR
STARTCHAR afii10073
ENCODING 1079
SWIDTH 1000 0
DWIDTH 16 0
BBX 7 9 5 0
BITMAP
7C
C2
02
04
3C
02
02
C2
7C
ENDCHAR
STARTCHAR afii10074
ENCODING 1080
SWIDTH 1000 0
DWIDTH 16 0
BBX 10 9 4 0
BITMAP
E1C0
4080
4180
4280
4480
5880
6080
4080
E1C0
ENDCHAR
STARTCHAR afii10075
ENCODING 1081
SWIDTH 1000 0
DWIDTH 16 0
BBX 10 12 4 0
BITMAP
3300
2100
1E00
E1C0
4080
4180
4280
4480
5880
6080
4080
E1C0
ENDCHAR
STARTCHAR afii10076
ENCODING 1082
SWIDTH 1000 0
DWIDTH 16 0
BBX 9 9 4 0
BITMAP
E300
4500
4800
5000
7000
4800
4400
4200
E380
ENDCHAR
STARTCHAR afii10077
ENCODING 1083
SWIDTH 1000 0
DWIDTH 16 0
BBX 10 9 3 0
BITMAP
1FC0
0880
0880
0880
0880
0880
8880
9080
61C0
ENDCHAR
STARTCHAR afii10078
ENCODING 1084
SWIDTH 1000 0
DWIDTH 16 0
BBX 11 9 3 0
BITMAP
E0E0
60C0
5140
5140
4A40
4A40
4440
4440
E0E0
ENDCHAR
STARTCHAR afii10079
ENCODING 1085
SWIDTH 1000 0
DWIDTH 16 0
BBX 9 9 4 0
BITMAP
E380
4100
4100
4100
7F00
4100
4100
4100
E380
ENDCHAR
STARTCHAR afii10080
ENCODING 1086
SWIDTH 1000 0
DWIDTH 16 0
BBX 8 9 4 0
BITMAP
3C
42
81
81
81
81
81
42
3C
ENDCHAR
STARTCHAR afii10081
ENCODING 1087
SWIDTH 1000 0
DWIDTH 16 0
BBX 9 9 3 0
BITMAP
FF80
4100
4100
4100
4100
4100
4100
4100
E380
ENDCHAR
STARTCHAR afii10082
ENCODING 1088
SWIDTH 1000 0
DWIDTH 16 0
BBX 8 11 4 -2
BITMAP
DC
62
41
41
41
41
62
5C
40
40
E0
ENDCHAR
STARTCHAR afii10083
ENCODING 1089
SWIDTH 1000 0
DWIDTH 16 0
BBX 7 9 4 0
BITMAP
38
44
82
80
80
80
82
44
38
ENDCHAR
STARTCHAR afii10084
ENCODING 1090
SWIDTH 1000 0
DWIDTH 16 0
BBX 9 9 3 0
BITMAP
FF80
8880
8880
0800
0800
0800
0800
0800
1C00
ENDCHAR
STARTCHAR afii10085
ENCODING 1091
SWIDTH 1000 0
DWIDTH 16 0
BBX 9 11 4 -2
BITMAP
E380
4100
4100
2200
2200
1400
1400
0800
1000
9000
6000
ENDCHAR
STARTCHAR afii10086
ENCODING 1092
SWIDTH 1000 0
DWIDTH 16 0
BBX 11 15 3 -2
BITMAP
0C00
0400
0400
0400
0400
3580
4E40
8420
8420
8420
8420
4E40
3580
0400
0E00
ENDCHAR
STARTCHAR afii10087
ENCODING 1093
SWIDTH 1000 0
DWIDTH 16 0
BBX 9 9 4 0
BITMAP
E380
4100
2200
1400
0800
1400
2200
4100
E380
ENDCHAR
STARTCHAR afii10088
ENCODING 1094
SWIDTH 1000 0
DWIDTH 16 0
BBX 10 11 3 -2
BITMAP
E380
4100
4100
4100
4100
4100
4100
4100
FFC0
0040
0040
ENDCHAR
STARTCHAR afii10089
ENCODING 1095
SWIDTH 1000 0
DWIDTH 16 0
BBX 8 8 4 1
BITMAP
E7
42
42
42
46
3A
02
07
ENDCHAR
STARTCHAR afii10090
ENCODING 1096
SWIDTH 1000 0
DWIDTH 16 0
BBX 11 8 2 1
BITMAP
EEE0
4440
4440
4440
4440
4440
4440
FFE0
ENDCHAR
STARTCHAR afii10091
ENCODING 1097
SWIDTH 1000 0
DWIDTH 16 0
BBX 12 10 2 -1
BITMAP
EEE0
4440
4440
4440
4440
4440
4440
4440
FFF0
0010
ENDCHAR
STARTCHAR afii10092
ENCODING 1098
SWIDTH 1000 0
DWIDTH 16 0
BBX 10 8 3 1
BITMAP
F800
9000
1000
1000
1F80
1040
1040
3F80
ENDCHAR
STARTCHAR afii10093
ENCODING 1099
SWIDTH 1000 0
DWIDTH 16 0
BBX 11 8 2 1
BITMAP
E0E0
4040
4040
4040
7C40
4240
4240
FCE0
ENDCHAR
STARTCHAR afii10094
ENCODING 1100
SWIDTH 1000 0
DWIDTH 16 0
BBX 7 8 4 1
BITMAP
E0
40
40
40
7C
42
42
FC
ENDCHAR
STARTCHAR afii10095
ENCODING 1101
SWIDTH 1000 0
DWIDTH 16 0
BBX 8 9 4 0
BITMAP
3C
42
81
01
3F
01
81
42
3C
ENDCHAR
STARTCHAR afii10096
ENCODING 1102
SWIDTH 1000 0
DWIDTH 16 0
BBX 11 9 3 0
BITMAP
E380
4440
4820
4820
7820
4820
4820
4440
E380
ENDCHAR
STARTCHAR afii10097
ENCODING 1103
SWIDTH 1000 0
DWIDTH 16 0
BBX 9 9 3 0
BITMAP
3F80
4100
4100
4100
3F00
1100
2100
2100
C380
ENDCHAR
STARTCHAR afii10071
ENCODING 1105
SWIDTH 1000 0
DWIDTH 16 0
BBX 7 10 4 1
BITMAP
24
00
3C
44
82
FE
80
80
42
3C
ENDCHAR
STARTCHAR U_1103
ENCODING 4355
SWIDTH 1000 0
DWIDTH 18 0
BBX 17 18 0 -3
BITMAP
000000
000000
1FFF00
200000
200000
200000
200000
200000
200000
200000
1FFF00
000000
000000
000000
000000
000000
000000
000000
ENDCHAR
STARTCHAR U_11D6
ENCODING 4566
SWIDTH 1000 0
DWIDTH 18 0
BBX 17 18 0 -3
BITMAP
000000
000000
000000
000000
000000
000000
000000
000000
FC8800
048800
048800
FC8800
808800
815400
8D5400
F22300
000000
000000
ENDCHAR
STARTCHAR U_2010
ENCODING 8208
SWIDTH 1000 0
DWIDTH 18 0
BBX 17 18 0 -3
BITMAP
000000
000000
000000
000000
000000
000000
000000
07E000
000000
000000
000000
000000
000000
000000
000000
000000
000000
000000
ENDCHAR
STARTCHAR endash
ENCODING 8211
SWIDTH 1000 0
DWIDTH 16 0
BBX 14 1 1 6
BITMAP
FFFC
ENDCHAR
STARTCHAR emdash
ENCODING 8212
SWIDTH 1000 0
DWIDTH 16 0
BBX 14 1 1 6
BITMAP
FFFC
ENDCHAR
STARTCHAR U_2016
ENCODING 8214
SWIDTH 1000 0
DWIDTH 16 0
BBX 5 14 6 -1
BITMAP
88
88
88
88
88
88
88
88
88
88
88
88
88
88
ENDCHAR
STARTCHAR quoteleft
ENCODING 8216
SWIDTH 1000 0
DWIDTH 16 0
BBX 2 4 11 10
BITMAP
40
80
C0
C0
ENDCHAR
STARTCHAR quoteright
ENCODING 8217
SWIDTH 1000 0
DWIDTH 16 0
BBX 2 4 3 10
BITMAP
C0
C0
40
80
ENDCHAR
STARTCHAR quotedblleft
ENCODING 8220
SWIDTH 1000 0
DWIDTH 16 0
BBX 6 4 9 10
BITMAP
44
88
CC
CC
ENDCHAR
STARTCHAR quotedblright
ENCODING 8221
SWIDTH 1000 0
DWIDTH 16 0
BBX 6 4 1 10
BITMAP
CC
CC
44
88
ENDCHAR
STARTCHAR bullet
ENCODING 8226
SWIDTH 1000 0
DWIDTH 16 0
BBX 2 2 7 5
BITMAP
C0
C0
ENDCHAR
STARTCHAR twodotenleader
ENCODING 8229
SWIDTH 1000 0
DWIDTH 16 0
BBX 10 2 3 5
BITMAP
C0C0
C0C0
ENDCHAR
STARTCHAR ellipsis
ENCODING 8230
SWIDTH 1000 0
DWIDTH 16 0
BBX 13 2 2 5
BITMAP
C618
C618
ENDCHAR
STARTCHAR U_2027
ENCODING 8231
SWIDTH 1000 0
DWIDTH 16 0
BBX 2 2 7 5
BITMAP
C0
C0
ENDCHAR
STARTCHAR perthousand
ENCODING 8240
SWIDTH 1000 0
DWIDTH 16 0
BBX 14 14 1 -1
BITMAP
6080
9100
9100
9200
9200
9400
6400
0B18
14A4
14A4
24A4
24A4
44A4
8318
ENDCHAR
STARTCHAR minute
ENCODING 8242
SWIDTH 1000 0
DWIDTH 16 0
BBX 3 3 2 10
BITMAP
20
40
80
ENDCHAR
STARTCHAR second
ENCODING 8243
SWIDTH 1000 0
DWIDTH 16 0
BBX 6 3 1 10
BITMAP
24
48
90
ENDCHAR
STARTCHAR U_2035
ENCODING 8245
SWIDTH 1000 0
DWIDTH 16 0
BBX 3 3 10 10
BITMAP
80
60
20
ENDCHAR
STARTCHAR U_203B
ENCODING 8251
SWIDTH 1000 0
DWIDTH 16 0
BBX 13 13 1 0
BITMAP
8008
4310
2320
1040
0880
0500
6230
6530
0880
1040
2320
4310
8008
ENDCHAR
STARTCHAR U_203E
ENCODING 8254
SWIDTH 1000 0
DWIDTH 16 0
BBX 16 1 0 13
BITMAP
FFFF
ENDCHAR
STARTCHAR U_205E
ENCODING 8286
SWIDTH 1000 0
DWIDTH 18 0
BBX 17 15 0 -3
BITMAP
000000
000000
600000
600000
000000
600000
600000
000000
600000
600000
000000
600000
600000
000000
000000
ENDCHAR
STARTCHAR Euro
ENCODING 8364
SWIDTH 1000 0
DWIDTH 16 0
BBX 9 13 3 -1
BITMAP
0E00
1100
2080
4080
4000
FE00
4000
F800
4000
4080
2080
1100
0E00
ENDCHAR
STARTCHAR U_2103
ENCODING 8451
SWIDTH 1000 0
DWIDTH 16 0
BBX 13 13 1 1
BITMAP
6000
91D0
9230
6410
0800
0800
0800
0800
0800
0800
0408
0210
01E0
ENDCHAR
STARTCHAR afii61248
ENCODING 8453
SWIDTH 1000 0
DWIDTH 16 0
BBX 14 14 1 -1
BITMAP
3804
4408
8010
8020
8040
8080
4570
3A88
0504
0904
1104
2104
4088
8070
ENDCHAR
STARTCHAR U_2109
ENCODING 8457
SWIDTH 1000 0
DWIDTH 16 0
BBX 14 13 1 1
BITMAP
6000
97FC
9204
6200
0200
0210
0210
03F0
0210
0200
0200
0200
0780
ENDCHAR
STARTCHAR afii61352
ENCODING 8470
SWIDTH 1000 0
DWIDTH 16 0
BBX 15 12 0 1
BITMAP
C380
6100
6100
5118
5124
4942
4942
4542
4542
4324
4318
E17E
ENDCHAR
STARTCHAR U_2154
ENCODING 8532
SWIDTH 1000 0
DWIDTH 18 0
BBX 17 18 0 -3
BITMAP
380800
441000
041000
082000
104000
204000
408000
7D1C00
012200
020200
040200
040C00
080200
100200
102200
201C00
000000
000000
ENDCHAR
STARTCHAR U_2155
ENCODING 8533
SWIDTH 1000 0
DWIDTH 18 0
BBX 17 18 0 -3
BITMAP
002000
104000
304000
108000
108000
110000
110000
120000
027C00
044000
044000
087800
080400
100400
104400
203800
000000
000000
ENDCHAR
STARTCHAR U_2156
ENCODING 8534
SWIDTH 1000 0
DWIDTH 18 0
BBX 17 18 0 -3
BITMAP
382000
444000
044000
088000
108000
210000
7D0000
020000
027C00
044000
044000
087800
080400
100400
104400
203800
000000
000000
ENDCHAR
STARTCHAR U_2160
ENCODING 8544
SWIDTH 1000 0
DWIDTH 16 0
BBX 5 12 5 1
BITMAP
F8
20
20
20
20
20
20
20
20
20
20
F8
ENDCHAR
STARTCHAR U_2161
ENCODING 8545
SWIDTH 1000 0
DWIDTH 16 0
BBX 9 12 3 1
BITMAP
E380
4100
4100
4100
4100
4100
4100
4100
4100
4100
4100
E380
ENDCHAR
STARTCHAR U_2162
ENCODING 8546
SWIDTH 1000 0
DWIDTH 16 0
BBX 13 12 1 1
BITMAP
E738
4210
4210
4210
4210
4210
4210
4210
4210
4210
4210
E738
ENDCHAR
STARTCHAR U_2163
ENCODING 8547
SWIDTH 1000 0
DWIDTH 16 0
BBX 14 12 1 1
BITMAP
F71C
4208
4208
4208
4110
4110
4110
40A0
40A0
4040
4040
F040
ENDCHAR
STARTCHAR U_2164
ENCODING 8548
SWIDTH 1000 0
DWIDTH 16 0
BBX 9 12 3 1
BITMAP
E380
4100
4100
4100
2200
2200
2200
1400
1400
0800
0800
0800
ENDCHAR
STARTCHAR U_2165
ENCODING 8549
SWIDTH 1000 0
DWIDTH 16 0
BBX 13 12 1 1
BITMAP
E3B8
4110
4110
4110
2210
2210
2210
1410
1410
0810
0810
0838
ENDCHAR
STARTCHAR U_2166
ENCODING 8550
SWIDTH 1000 0
DWIDTH 16 0
BBX 15 12 0 1
BITMAP
E3FE
4124
4124
4124
2224
2224
2224
1424
1424
0824
0824
087E
ENDCHAR
STARTCHAR U_2167
ENCODING 8551
SWIDTH 1000 0
DWIDTH 16 0
BBX 15 12 0 1
BITMAP
EEFE
4454
4454
4454
2854
2854
2854
1054
1054
1054
1054
10FE
ENDCHAR
STARTCHAR U_2168
ENCODING 8552
SWIDTH 1000 0
DWIDTH 16 0
BBX 13 12 1 1
BITMAP
F738
4210
4210
4120
4120
40C0
40C0
4120
4120
4210
4210
F738
ENDCHAR
STARTCHAR U_2169
ENCODING 8553
SWIDTH 1000 0
DWIDTH 16 0
BBX 8 12 3 1
BITMAP
E7
42
42
24
24
18
18
24
24
42
42
E7
ENDCHAR
STARTCHAR U_216A
ENCODING 8554
SWIDTH 1000 0
DWIDTH 16 0
BBX 13 12 2 1
BITMAP
E778
4210
4210
2410
2410
1810
1810
2410
2410
4210
4210
E778
ENDCHAR
STARTCHAR U_216B
ENCODING 8555
SWIDTH 1000 0
DWIDTH 16 0
BBX 15 12 0 1
BITMAP
E77E
4224
4224
2424
2424
1824
1824
2424
2424
4224
4224
E77E
ENDCHAR
STARTCHAR uni2170
ENCODING 8560
SWIDTH 1000 0
DWIDTH 16 0
BBX 3 11 6 0
BITMAP
40
00
00
40
C0
40
40
40
40
40
E0
ENDCHAR
STARTCHAR uni2171
ENCODING 8561
SWIDTH 1000 0
DWIDTH 16 0
BBX 7 11 4 0
BITMAP
44
00
00
44
CC
44
44
44
44
44
EE
ENDCHAR
STARTCHAR uni2172
ENCODING 8562
SWIDTH 1000 0
DWIDTH 16 0
BBX 11 11 2 0
BITMAP
4440
0000
0000
4440
CCC0
4440
4440
4440
4440
4440
EEE0
ENDCHAR
STARTCHAR uni2173
ENCODING 8563
SWIDTH 1000 0
DWIDTH 16 0
BBX 10 11 3 0
BITMAP
4000
0000
0000
5DC0
C880
4880
4500
4500
4200
4200
E200
ENDCHAR
STARTCHAR U_2174
ENCODING 8564
SWIDTH 1000 0
DWIDTH 16 0
BBX 7 8 4 0
BITMAP
EE00
4400
4400
2800
2800
2800
1000
1000
ENDCHAR
STARTCHAR uni2175
ENCODING 8565
SWIDTH 1000 0
DWIDTH 16 0
BBX 12 11 2 0
BITMAP
0020
0000
0000
EE20
4460
4420
2820
2820
1020
1020
1070
ENDCHAR
STARTCHAR uni2176
ENCODING 8566
SWIDTH 1000 0
DWIDTH 16 0
BBX 14 11 1 0
BITMAP
0048
0000
0000
EE48
44D8
4448
2848
2848
1048
1048
10FC
ENDCHAR
STARTCHAR uni2177
ENCODING 8567
SWIDTH 1000 0
DWIDTH 16 0
BBX 14 11 1 0
BITMAP
00A8
0000
0000
EEA8
45F8
44A8
28A8
28A8
10A8
10A8
11FC
ENDCHAR
STARTCHAR uni2178
ENCODING 8568
SWIDTH 1000 0
DWIDTH 16 0
BBX 12 11 2 0
BITMAP
4000
0000
0000
4E70
C420
4240
4180
4180
4240
4420
EE70
ENDCHAR
STARTCHAR U_2179
ENCODING 8569
SWIDTH 1000 0
DWIDTH 18 0
BBX 17 18 0 -3
BITMAP
000000
C00600
E00E00
701C00
383800
1C7000
0EE000
07C000
038000
07C000
0EE000
1C7000
383800
701C00
E00E00
C00600
000000
000000
ENDCHAR
STARTCHAR U_2180
ENCODING 8576
SWIDTH 1000 0
DWIDTH 18 0
BBX 17 18 0 -3
BITMAP
000000
07F000
188C00
208200
208200
408100
408100
408100
408100
408100
408100
208200
208200
188C00
07F000
000000
000000
000000
ENDCHAR
STARTCHAR arrowleft
ENCODING 8592
SWIDTH 1000 0
DWIDTH 16 0
BBX 15 7 0 3
BITMAP
1000
3000
7000
FFFE
7000
3000
1000
ENDCHAR
STARTCHAR arrowup
ENCODING 8593
SWIDTH 1000 0
DWIDTH 16 0
BBX 7 15 4 -2
BITMAP
10
38
7C
FE
10
10
10
10
10
10
10
10
10
10
10
ENDCHAR
STARTCHAR arrowright
ENCODING 8594
SWIDTH 1000 0
DWIDTH 16 0
BBX 15 7 0 3
BITMAP
0010
0018
001C
FFFE
001C
0018
0010
ENDCHAR
STARTCHAR arrowdown
ENCODING 8595
SWIDTH 1000 0
DWIDTH 16 0
BBX 7 15 4 -1
BITMAP
10
10
10
10
10
10
10
10
10
10
10
FE
7C
38
10
ENDCHAR
STARTCHAR U_2196
ENCODING 8598
SWIDTH 1000 0
DWIDTH 16 0
BBX 15 15 0 -2
BITMAP
F800
F000
E000
D000
8800
0400
0200
0100
0080
0040
0020
0010
0008
0004
0002
ENDCHAR
STARTCHAR U_2197
ENCODING 8599
SWIDTH 1000 0
DWIDTH 16 0
BBX 16 16 0 -2
BITMAP
001F
000F
0007
000B
0011
0020
0040
0080
0100
0200
0400
0800
1000
2000
4000
8000
ENDCHAR
STARTCHAR U_2198
ENCODING 8600
SWIDTH 1000 0
DWIDTH 16 0
BBX 16 16 0 -2
BITMAP
8000
4000
2000
1000
0800
0400
0200
0100
0080
0040
0021
0013
000F
000F
001F
003F
ENDCHAR
STARTCHAR U_2199
ENCODING 8601
SWIDTH 1000 0
DWIDTH 16 0
BBX 16 16 0 -2
BITMAP
0001
0002
0004
0008
0010
0020
0040
0080
0100
0200
8400
C800
F000
F000
F800
FC00
ENDCHAR
STARTCHAR element
ENCODING 8712
SWIDTH 1000 0
DWIDTH 16 0
BBX 7 13 4 0
BITMAP
0E
10
20
40
80
80
FE
80
80
40
20
10
0E
ENDCHAR
STARTCHAR product
ENCODING 8719
SWIDTH 1000 0
DWIDTH 16 0
BBX 12 12 2 1
BITMAP
FFF0
2040
2040
2040
2040
2040
2040
2040
2040
2040
2040
79E0
ENDCHAR
STARTCHAR summation
ENCODING 8721
SWIDTH 1000 0
DWIDTH 16 0
BBX 10 12 3 1
BITMAP
FF80
4180
2080
1000
0800
0400
0600
0800
1000
2040
40C0
FFC0
ENDCHAR
STARTCHAR U_2215
ENCODING 8725
SWIDTH 1000 0
DWIDTH 16 0
BBX 8 14 4 -1
BITMAP
0100
0200
0200
0400
0400
0800
0800
1000
1000
2000
2000
4000
4000
8000
ENDCHAR
STARTCHAR U_2216
ENCODING 8726
SWIDTH 1000 0
DWIDTH 18 0
BBX 17 18 0 -3
BITMAP
800000
400000
400000
200000
200000
100000
100000
080000
080000
040000
040000
020000
020000
010000
010000
008000
000000
000000
ENDCHAR
STARTCHAR radical
ENCODING 8730
SWIDTH 1000 0
DWIDTH 16 0
BBX 16 16 0 -2
BITMAP
007F
0080
0080
0100
0100
0100
0200
0200
0400
2400
6400
A800
2800
1800
1000
1000
ENDCHAR
STARTCHAR U_221C
ENCODING 8732
SWIDTH 1000 0
DWIDTH 18 0
BBX 17 18 0 -3
BITMAP
000000
020000
040000
0A3000
0F2000
024000
004000
008000
008000
010000
010000
E20000
220000
140000
140000
080000
000000
000000
ENDCHAR
STARTCHAR U_221D
ENCODING 8733
SWIDTH 1000 0
DWIDTH 16 0
BBX 16 7 1 3
BITMAP
3C1E00
422100
814000
808000
814000
422100
3C1E00
ENDCHAR
STARTCHAR U_221E
ENCODING 8734
SWIDTH 1000 0
DWIDTH 16 0
BBX 15 7 1 3
BITMAP
3838
4444
8282
8102
8282
4444
3838
ENDCHAR
STARTCHAR orthogonal
ENCODING 8735
SWIDTH 1000 0
DWIDTH 16 0
BBX 12 11 2 1
BITMAP
8000
8000
8000
8000
8000
8000
8000
8000
8000
8000
FFF0
ENDCHAR
STARTCHAR angle
ENCODING 8736
SWIDTH 1000 0
DWIDTH 16 0
BBX 12 11 2 1
BITMAP
0030
0060
00C0
0180
0300
0600
0C00
1800
3000
6000
FFF0
ENDCHAR
STARTCHAR U_2221
ENCODING 8737
SWIDTH 1000 0
DWIDTH 18 0
BBX 17 18 0 -3
BITMAP
000200
000400
000800
001000
012000
00C000
00C000
016000
022000
043000
081000
101800
200800
400800
FFFF00
000800
000000
000000
ENDCHAR
STARTCHAR U_2223
ENCODING 8739
SWIDTH 1000 0
DWIDTH 16 0
BBX 1 16 8 -2
BITMAP
80
80
80
80
80
80
80
80
80
80
80
80
80
80
80
80
ENDCHAR
STARTCHAR U_2225
ENCODING 8741
SWIDTH 1000 0
DWIDTH 16 0
BBX 4 16 6 -2
BITMAP
90
90
90
90
90
90
90
90
90
90
90
90
90
90
90
90
ENDCHAR
STARTCHAR U_2227
ENCODING 8743
SWIDTH 1000 0
DWIDTH 18 0
BBX 17 18 0 -3
BITMAP
010000
010000
028000
028000
044000
044000
082000
082000
101000
101000
200800
200800
400400
400400
800200
800200
000000
000000
ENDCHAR
STARTCHAR logicalor
ENCODING 8744
SWIDTH 1000 0
DWIDTH 16 0
BBX 14 12 1 1
BITMAP
8004
4008
4008
2010
2020
1020
1040
0840
0880
0500
0500
0200
ENDCHAR
STARTCHAR intersection
ENCODING 8745
SWIDTH 1000 0
DWIDTH 16 0
BBX 9 12 3 1
BITMAP
3E00
4100
8080
8080
8080
8080
8080
8080
8080
8080
8080
8080
ENDCHAR
STARTCHAR U_on
ENCODING 8746
SWIDTH 1000 0
DWIDTH 16 0
BBX 9 12 3 1
BITMAP
8080
8080
8080
8080
8080
8080
8080
8080
8080
8080
4100
3E00
ENDCHAR
STARTCHAR integral
ENCODING 8747
SWIDTH 1000 0
DWIDTH 16 0
BBX 6 16 5 -2
BITMAP
18
24
20
20
20
20
10
10
10
10
08
08
08
08
90
60
ENDCHAR
STARTCHAR U_222E
ENCODING 8750
SWIDTH 1000 0
DWIDTH 16 0
BBX 8 16 4 -2
BITMAP
18
24
20
20
7C
52
91
91
89
4B
3E
08
08
08
68
30
ENDCHAR
STARTCHAR U_2234
ENCODING 8756
SWIDTH 1000 0
DWIDTH 16 0
BBX 12 11 2 0
BITMAP
0600
0600
0000
0000
0000
0000
0000
0000
0000
C030
C030
ENDCHAR
STARTCHAR U_2235
ENCODING 8757
SWIDTH 1000 0
DWIDTH 16 0
BBX 11 11 2 0
BITMAP
C060
C060
0000
0000
0000
0000
0000
0000
0000
0600
0600
ENDCHAR
STARTCHAR U_2236
ENCODING 8758
SWIDTH 1000 0
DWIDTH 16 0
BBX 2 9 8 2
BITMAP
C000
C000
0000
0000
0000
0000
0000
C000
C000
ENDCHAR
STARTCHAR U_2237
ENCODING 8759
SWIDTH 1000 0
DWIDTH 16 0
BBX 9 9 3 2
BITMAP
C180
C180
0000
0000
0000
0000
0000
C180
C180
ENDCHAR
STARTCHAR U_2238
ENCODING 8760
SWIDTH 1000 0
DWIDTH 18 0
BBX 17 18 0 -3
BITMAP
000000
000000
000000
000000
000000
01C000
01C000
01C000
000000
000000
000000
FFFF00
FFFF00
000000
000000
000000
000000
000000
ENDCHAR
STARTCHAR U_2239
ENCODING 8761
SWIDTH 1000 0
DWIDTH 18 0
BBX 17 18 0 -3
BITMAP
000000
000000
000000
000000
000000
000000
000600
000600
000000
000000
FFF000
000000
000000
000600
000600
000000
000000
000000
ENDCHAR
STARTCHAR U_223A
ENCODING 8762
SWIDTH 1000 0
DWIDTH 18 0
BBX 17 18 0 -3
BITMAP
000000
000000
000000
000000
000000
000000
000000
C00300
C00300
000000
000000
FFFF00
000000
000000
C00300
C00300
000000
000000
ENDCHAR
STARTCHAR U_223B
ENCODING 8763
SWIDTH 1000 0
DWIDTH 18 0
BBX 17 18 0 -3
BITMAP
000000
000000
000000
000000
000000
030000
030000
380000
440000
830400
008800
007000
030000
030000
000000
000000
000000
000000
ENDCHAR
STARTCHAR U_223C
ENCODING 8764
SWIDTH 1000 0
DWIDTH 16 0
BBX 14 4 1 4
BITMAP
3C00
4204
8108
00F0
ENDCHAR
STARTCHAR U_223D
ENCODING 8765
SWIDTH 1000 0
DWIDTH 16 0
BBX 16 6 1 3
BITMAP
203C00
404200
808100
810100
420200
3C0400
ENDCHAR
STARTCHAR U_2240
ENCODING 8768
SWIDTH 1000 0
DWIDTH 18 0
BBX 17 18 0 -3
BITMAP
000000
010000
008000
004000
002000
002000
002000
004000
008000
010000
020000
020000
020000
010000
008000
004000
000000
000000
ENDCHAR
STARTCHAR approxequal
ENCODING 8776
SWIDTH 1000 0
DWIDTH 16 0
BBX 13 10 1 1
BITMAP
3C00
C200
0188
0070
0000
0000
3C00
C200
0188
0070
ENDCHAR
STARTCHAR U_224C
ENCODING 8780
SWIDTH 1000 0
DWIDTH 16 0
BBX 12 12 2 1
BITMAP
20E0
4130
8210
8410
8C10
7060
0000
0000
FFF0
0000
0000
FFF0
ENDCHAR
STARTCHAR U_2252
ENCODING 8786
SWIDTH 1000 0
DWIDTH 16 0
BBX 12 10 2 1
BITMAP
C000
C000
0000
FFF0
0000
0000
FFF0
0000
0030
0030
ENDCHAR
STARTCHAR notequal
ENCODING 8800
SWIDTH 1000 0
DWIDTH 16 0
BBX 10 10 3 1
BITMAP
0400
0400
0400
FFC0
0800
0800
FFC0
1000
1000
1000
ENDCHAR
STARTCHAR equivalence
ENCODING 8801
SWIDTH 1000 0
DWIDTH 16 0
BBX 12 7 2 3
BITMAP
FFF0
0000
0000
FFF0
0000
0000
FFF0
ENDCHAR
STARTCHAR lessequal
ENCODING 8804
SWIDTH 1000 0
DWIDTH 16 0
BBX 10 13 3 0
BITMAP
0040
0180
0600
1800
6000
8000
6000
1800
8400
6300
18C0
0600
0180
ENDCHAR
STARTCHAR greaterequal
ENCODING 8805
SWIDTH 1000 0
DWIDTH 16 0
BBX 10 13 3 0
BITMAP
8000
6000
1800
0600
0180
0040
0080
0300
0C40
3180
C600
1800
6000
ENDCHAR
STARTCHAR U_2266
ENCODING 8806
SWIDTH 1000 0
DWIDTH 16 0
BBX 11 12 2 0
BITMAP
0020
01C0
0E00
7000
C000
3800
0780
00E0
0000
FFE0
0000
FFE0
ENDCHAR
STARTCHAR U_2267
ENCODING 8807
SWIDTH 1000 0
DWIDTH 16 0
BBX 11 12 2 0
BITMAP
8000
7000
0E00
01C0
0060
0380
3C00
E000
0000
FFE0
0000
FFE0
ENDCHAR
STARTCHAR U_226E
ENCODING 8814
SWIDTH 1000 0
DWIDTH 16 0
BBX 11 12 3 0
BITMAP
0420
04C0
0700
0C00
3400
C400
C400
3400
0C00
0700
04C0
0420
ENDCHAR
STARTCHAR U_226F
ENCODING 8815
SWIDTH 1000 0
DWIDTH 16 0
BBX 11 12 3 0
BITMAP
8400
6400
1C00
0600
0580
0460
0460
0480
0700
0C00
3400
C400
ENDCHAR
STARTCHAR circleplus
ENCODING 8853
SWIDTH 1000 0
DWIDTH 16 0
BBX 12 12 2 0
BITMAP
0F00
34C0
4420
4420
8410
8410
FFF0
8410
4420
4420
34C0
0F00
ENDCHAR
STARTCHAR U_2299
ENCODING 8857
SWIDTH 1000 0
DWIDTH 16 0
BBX 12 12 2 0
BITMAP
0F00
30C0
4020
4020
8010
8610
8610
8010
4020
4020
30C0
0F00
ENDCHAR
STARTCHAR perpendicular
ENCODING 8869
SWIDTH 1000 0
DWIDTH 16 0
BBX 12 11 2 1
BITMAP
0400
0400
0400
0400
0400
0400
0400
0400
0400
0400
FFF0
ENDCHAR
STARTCHAR U_22BF
ENCODING 8895
SWIDTH 1000 0
DWIDTH 16 0
BBX 11 11 3 1
BITMAP
0020
0060
00A0
0120
0220
0420
0820
1020
2020
4020
FFE0
ENDCHAR
STARTCHAR U_22EF
ENCODING 8943
SWIDTH 1000 0
DWIDTH 18 0
BBX 17 18 0 -3
BITMAP
000000
000000
000000
000000
000000
000000
000000
318C00
318C00
000000
000000
000000
000000
000000
000000
000000
000000
000000
ENDCHAR
STARTCHAR U_2312
ENCODING 8978
SWIDTH 1000 0
DWIDTH 16 0
BBX 13 6 2 4
BITMAP
0700
18C0
2020
4010
8010
8008
ENDCHAR
STARTCHAR U_2460
ENCODING 9312
SWIDTH 1000 0
DWIDTH 16 0
BBX 15 15 0 -1
BITMAP
07C0
1830
2008
4104
4104
8102
8102
8102
8102
8102
4104
4104
2008
1830
07C0
ENDCHAR
STARTCHAR U_2461
ENCODING 9313
SWIDTH 1000 0
DWIDTH 16 0
BBX 15 15 0 -1
BITMAP
07C0
1830
2008
47C4
4444
8042
8042
8182
8202
8402
4444
47C4
2008
1830
07C0
ENDCHAR
STARTCHAR U_2462
ENCODING 9314
SWIDTH 1000 0
DWIDTH 16 0
BBX 15 15 0 -1
BITMAP
07C0
1830
2008
47C4
4444
8042
80C2
8302
80C2
8042
4444
47C4
2008
1830
07C0
ENDCHAR
STARTCHAR U_2463
ENCODING 9315
SWIDTH 1000 0
DWIDTH 16 0
BBX 15 15 0 -1
BITMAP
07C0
1830
2008
4304
4504
8502
8502
8902
8902
8FC2
4104
4104
2008
1830
07C0
ENDCHAR
STARTCHAR U_2464
ENCODING 9316
SWIDTH 1000 0
DWIDTH 16 0
BBX 15 15 0 -1
BITMAP
07C0
1830
2008
47C4
4404
8402
8402
87C2
8042
8042
4444
47C4
2008
1830
07C0
ENDCHAR
STARTCHAR U_2465
ENCODING 9317
SWIDTH 1000 0
DWIDTH 18 0
BBX 17 18 0 -3
BITMAP
07C000
183000
200800
47C400
444400
840200
840200
87C200
844200
844200
444400
47C400
200800
183000
07C000
000000
000000
000000
ENDCHAR
STARTCHAR U_2466
ENCODING 9318
SWIDTH 1000 0
DWIDTH 18 0
BBX 17 18 0 -3
BITMAP
07C000
183000
200800
47C400
444400
804200
808200
808200
808200
810200
410400
410400
200800
183000
07C000
000000
000000
000000
ENDCHAR
STARTCHAR U_2467
ENCODING 9319
SWIDTH 1000 0
DWIDTH 18 0
BBX 17 18 0 -3
BITMAP
07C000
183000
200800
438400
444400
844200
844200
838200
844200
844200
444400
438400
200800
183000
07C000
000000
000000
000000
ENDCHAR
STARTCHAR U_2468
ENCODING 9320
SWIDTH 1000 0
DWIDTH 18 0
BBX 17 18 0 -3
BITMAP
07C000
183000
200800
47C400
444400
844200
844200
87C200
804200
804200
444400
47C400
200800
183000
07C000
000000
000000
000000
ENDCHAR
STARTCHAR U_2469
ENCODING 9321
SWIDTH 1000 0
DWIDTH 18 0
BBX 17 18 0 -3
BITMAP
07C000
183000
200800
4BE400
4A2400
8A2200
8A2200
8A2200
8A2200
8A2200
4A2400
4BE400
200800
183000
07C000
000000
000000
000000
ENDCHAR
STARTCHAR U_246A
ENCODING 9322
SWIDTH 1000 0
DWIDTH 18 0
BBX 17 18 0 -3
BITMAP
07C000
183000
200800
444400
4CC400
954200
844200
844200
844200
844200
444400
444400
200800
183000
07C000
000000
000000
000000
ENDCHAR
STARTCHAR U_2474
ENCODING 9332
SWIDTH 1000 0
DWIDTH 16 0
BBX 15 14 0 -1
BITMAP
4004
8102
8302
8102
8102
8102
8102
8102
8102
8102
8102
8102
8382
4004
ENDCHAR
STARTCHAR U_2475
ENCODING 9333
SWIDTH 1000 0
DWIDTH 16 0
BBX 15 14 0 -1
BITMAP
4004
8782
8842
8842
8042
8042
8042
8082
8302
8402
8842
8842
8FC2
4004
ENDCHAR
STARTCHAR U_2476
ENCODING 9334
SWIDTH 1000 0
DWIDTH 16 0
BBX 15 14 0 -1
BITMAP
4004
8782
8842
8842
8042
8082
8302
8082
8042
8042
8842
8842
8782
4004
ENDCHAR
STARTCHAR U_2477
ENCODING 9335
SWIDTH 1000 0
DWIDTH 16 0
BBX 15 14 0 -1
BITMAP
4184
8282
8282
8282
8482
8482
8882
8882
8FE2
8082
8082
8082
8082
4004
ENDCHAR
STARTCHAR U_2478
ENCODING 9336
SWIDTH 1000 0
DWIDTH 16 0
BBX 15 14 0 -1
BITMAP
4004
8FC2
8802
8802
8802
8B82
8C42
8842
8042
8042
8842
8842
8782
4004
ENDCHAR
STARTCHAR U_2479
ENCODING 9337
SWIDTH 1000 0
DWIDTH 16 0
BBX 15 14 0 -1
BITMAP
4004
8782
8842
8842
8802
8802
8B82
8C42
8842
8842
8842
8842
8782
4004
ENDCHAR
STARTCHAR U_247A
ENCODING 9338
SWIDTH 1000 0
DWIDTH 16 0
BBX 15 14 0 -1
BITMAP
4004
8FE2
8822
8822
8042
8082
8082
8082
8102
8102
8102
8102
8102
4004
ENDCHAR
STARTCHAR U_247B
ENCODING 9339
SWIDTH 1000 0
DWIDTH 16 0
BBX 15 14 0 -1
BITMAP
4004
8782
8842
8842
8842
8842
8782
8842
8842
8842
8842
8842
8782
4004
ENDCHAR
STARTCHAR U_247C
ENCODING 9340
SWIDTH 1000 0
DWIDTH 16 0
BBX 15 14 0 -1
BITMAP
4004
8782
8842
8842
8842
8842
88C2
8742
8042
8042
8842
8842
8782
4004
ENDCHAR
STARTCHAR U_247D
ENCODING 9341
SWIDTH 1000 0
DWIDTH 16 0
BBX 15 14 0 -1
BITMAP
4004
88E2
8912
8912
8912
8912
8912
8912
8912
8912
8912
8912
88E2
4004
ENDCHAR
STARTCHAR U_247E
ENCODING 9342
SWIDTH 1000 0
DWIDTH 16 0
BBX 15 14 0 -1
BITMAP
4004
8822
8822
8822
8822
8822
8822
8822
8822
8822
8822
8822
8822
4004
ENDCHAR
STARTCHAR U_247F
ENCODING 9343
SWIDTH 1000 0
DWIDTH 16 0
BBX 15 14 0 -1
BITMAP
4004
91E2
9212
9212
9012
9012
9022
90C2
9102
9202
9212
9212
93F2
4004
ENDCHAR
STARTCHAR U_2480
ENCODING 9344
SWIDTH 1000 0
DWIDTH 16 0
BBX 15 14 0 -1
BITMAP
4004
91E2
9212
9212
9012
9022
90C2
9022
9012
9012
9212
9212
91E2
4004
ENDCHAR
STARTCHAR U_2481
ENCODING 9345
SWIDTH 1000 0
DWIDTH 16 0
BBX 15 14 0 -1
BITMAP
4004
9062
90A2
90A2
90A2
9122
9122
9222
9222
93FA
9022
9022
9022
4004
ENDCHAR
STARTCHAR U_2482
ENCODING 9346
SWIDTH 1000 0
DWIDTH 16 0
BBX 15 14 0 -1
BITMAP
4004
93F2
9202
9202
9202
92E2
9312
9212
9012
9012
9212
9212
91E2
4004
ENDCHAR
STARTCHAR U_2483
ENCODING 9347
SWIDTH 1000 0
DWIDTH 16 0
BBX 15 14 0 -1
BITMAP
4004
91E2
9212
9212
9202
9202
92E2
9312
9212
9212
9212
9212
91E2
4004
ENDCHAR
STARTCHAR U_2484
ENCODING 9348
SWIDTH 1000 0
DWIDTH 16 0
BBX 15 14 0 -1
BITMAP
4004
93F2
9212
9212
9022
9042
9042
9042
9082
9082
9082
9082
9082
4004
ENDCHAR
STARTCHAR U_2485
ENCODING 9349
SWIDTH 1000 0
DWIDTH 16 0
BBX 15 14 0 -1
BITMAP
4004
91E2
9212
9212
9212
9212
91E2
9212
9212
9212
9212
9212
91E2
4004
ENDCHAR
STARTCHAR U_2486
ENCODING 9350
SWIDTH 1000 0
DWIDTH 16 0
BBX 15 14 0 -1
BITMAP
4004
91E2
9212
9212
9212
9212
9232
91D2
9012
9012
9212
9212
91E2
4004
ENDCHAR
STARTCHAR U_2487
ENCODING 9351
SWIDTH 1000 0
DWIDTH 16 0
BBX 15 14 0 -1
BITMAP
4004
9C72
A28A
A28A
828A
828A
848A
888A
908A
A08A
A28A
A28A
BE72
4004
ENDCHAR
STARTCHAR U_2488
ENCODING 9352
SWIDTH 1000 0
DWIDTH 16 0
BBX 6 14 4 -1
BITMAP
20
60
A0
20
20
20
20
20
20
20
20
20
20
24
ENDCHAR
STARTCHAR U_2489
ENCODING 9353
SWIDTH 1000 0
DWIDTH 16 0
BBX 9 14 3 -1
BITMAP
7800
8400
8400
0400
0400
0400
0800
3000
4000
8000
8000
8400
8400
FC80
ENDCHAR
STARTCHAR U_248A
ENCODING 9354
SWIDTH 1000 0
DWIDTH 16 0
BBX 9 14 3 -1
BITMAP
7800
8400
8400
0400
0400
0800
3000
0800
0400
0400
8400
8400
8400
7880
ENDCHAR
STARTCHAR U_248B
ENCODING 9355
SWIDTH 1000 0
DWIDTH 16 0
BBX 10 15 3 -2
BITMAP
1800
2800
2800
2800
4800
4800
4800
8800
8800
FE00
0800
0800
0800
0840
0800
ENDCHAR
STARTCHAR U_248C
ENCODING 9356
SWIDTH 1000 0
DWIDTH 16 0
BBX 9 14 3 -1
BITMAP
FC00
8000
8000
8000
8000
8000
B800
C400
8400
0400
0400
8400
8400
7880
ENDCHAR
STARTCHAR U_248D
ENCODING 9357
SWIDTH 1000 0
DWIDTH 16 0
BBX 9 14 3 -1
BITMAP
7800
8400
8400
8400
8000
8000
B800
C400
8400
8400
8400
8400
8400
7880
ENDCHAR
STARTCHAR U_248E
ENCODING 9358
SWIDTH 1000 0
DWIDTH 16 0
BBX 10 14 3 -1
BITMAP
FE00
8200
8200
0400
0800
0800
0800
1000
1000
1000
1000
1000
1000
1040
ENDCHAR
STARTCHAR U_248F
ENCODING 9359
SWIDTH 1000 0
DWIDTH 16 0
BBX 9 14 3 -1
BITMAP
7800
8400
8400
8400
8400
4800
3000
4800
8400
8400
8400
8400
8400
7880
ENDCHAR
STARTCHAR U_2490
ENCODING 9360
SWIDTH 1000 0
DWIDTH 16 0
BBX 9 14 3 -1
BITMAP
7800
8400
8400
8400
8400
8400
8C00
7400
0400
0400
8400
8400
8400
7880
ENDCHAR
STARTCHAR U_2491
ENCODING 9361
SWIDTH 1000 0
DWIDTH 16 0
BBX 13 14 0 -1
BITMAP
23C0
6420
A420
2420
2420
2420
2420
2420
2420
2420
2420
2420
2420
23C8
ENDCHAR
STARTCHAR U_2492
ENCODING 9362
SWIDTH 1000 0
DWIDTH 16 0
BBX 12 14 0 -1
BITMAP
2080
6180
A280
2080
2080
2080
2080
2080
2080
2080
2080
2080
2080
2090
ENDCHAR
STARTCHAR U_2493
ENCODING 9363
SWIDTH 1000 0
DWIDTH 16 0
BBX 14 14 0 -1
BITMAP
23C0
6420
A420
2020
2020
2020
2040
2180
2200
2400
2400
2420
2420
27E4
ENDCHAR
STARTCHAR U_2494
ENCODING 9364
SWIDTH 1000 0
DWIDTH 16 0
BBX 14 14 0 -1
BITMAP
23C0
6420
A420
2020
2020
2040
2180
2040
2020
2020
2420
2420
2420
23C4
ENDCHAR
STARTCHAR U_2495
ENCODING 9365
SWIDTH 1000 0
DWIDTH 16 0
BBX 13 14 0 -1
BITMAP
20C0
6140
A140
2140
2240
2240
2240
2440
2440
27F0
2040
2040
2040
2048
ENDCHAR
STARTCHAR U_2496
ENCODING 9366
SWIDTH 1000 0
DWIDTH 16 0
BBX 14 14 0 -1
BITMAP
27E0
6400
A400
2400
2400
2400
25C0
2620
2420
2020
2020
2420
2420
23C4
ENDCHAR
STARTCHAR U_2497
ENCODING 9367
SWIDTH 1000 0
DWIDTH 16 0
BBX 14 14 0 -1
BITMAP
23C0
6420
A420
2420
2400
2400
25C0
2620
2420
2420
2420
2420
2420
23C4
ENDCHAR
STARTCHAR U_2498
ENCODING 9368
SWIDTH 1000 0
DWIDTH 16 0
BBX 14 14 0 -1
BITMAP
27F0
6410
A410
2020
2040
2040
2040
2080
2080
2080
2080
2080
2080
2084
ENDCHAR
STARTCHAR U_2499
ENCODING 9369
SWIDTH 1000 0
DWIDTH 16 0
BBX 14 14 0 -1
BITMAP
23C0
6420
A420
2420
2420
2240
2180
2240
2420
2420
2420
2420
2420
23C4
ENDCHAR
STARTCHAR U_249A
ENCODING 9370
SWIDTH 1000 0
DWIDTH 16 0
BBX 14 14 0 -1
BITMAP
23C0
6420
A420
2420
2420
2420
2460
23A0
2020
2020
2420
2420
2420
23C4
ENDCHAR
STARTCHAR U_249B
ENCODING 9371
SWIDTH 1000 0
DWIDTH 16 0
BBX 13 14 1 -1
BITMAP
71C0
8A20
8A20
0A20
0A20
0A20
3220
4220
8220
8220
8220
8A20
8A20
F9C8
ENDCHAR
STARTCHAR U_249C
ENCODING 9372
SWIDTH 1000 0
DWIDTH 18 0
BBX 17 18 0 -3
BITMAP
000000
100800
200400
200400
438200
444200
802100
806100
83A100
842100
842100
446200
43A200
200400
200400
100800
000000
000000
ENDCHAR
STARTCHAR U_24B6
ENCODING 9398
SWIDTH 1000 0
DWIDTH 18 0
BBX 17 18 0 -3
BITMAP
03C000
0C3000
110800
228400
444200
482200
882100
8FE100
882100
882100
482200
482200
200400
100800
0C3000
03C000
000000
000000
ENDCHAR
STARTCHAR U_24B7
ENCODING 9399
SWIDTH 1000 0
DWIDTH 18 0
BBX 17 18 0 -3
BITMAP
03C000
0C3000
100800
27C400
442200
442200
842100
87C100
842100
842100
442200
442200
27C400
100800
0C3000
03C000
000000
000000
ENDCHAR
STARTCHAR U_24BC
ENCODING 9404
SWIDTH 1000 0
DWIDTH 18 0
BBX 17 18 0 -3
BITMAP
03C000
0C3000
100800
27C400
482200
481200
900100
900100
91F100
901100
482200
482200
27C400
100800
0C3000
03C000
000000
000000
ENDCHAR
STARTCHAR U_24C2
ENCODING 9410
SWIDTH 1000 0
DWIDTH 18 0
BBX 17 18 0 -3
BITMAP
03C000
0C3000
100800
200400
482200
4C6200
8C6100
8AA100
8AA100
892100
492200
492200
200400
100800
0C3000
03C000
000000
000000
ENDCHAR
STARTCHAR U_24C6
ENCODING 9414
SWIDTH 1000 0
DWIDTH 18 0
BBX 17 18 0 -3
BITMAP
03C000
0C3000
118800
266400
481200
481200
900900
900900
891100
889100
466200
41D200
200400
100800
0C3000
03C000
000000
000000
ENDCHAR
STARTCHAR U_24C8
ENCODING 9416
SWIDTH 1000 0
DWIDTH 18 0
BBX 17 18 0 -3
BITMAP
03C000
0C3000
100800
23C400
442200
481200
880100
840100
83C100
802100
401200
481200
242400
13C800
0C3000
03C000
000000
000000
ENDCHAR
STARTCHAR U_24CC
ENCODING 9420
SWIDTH 1000 0
DWIDTH 18 0
BBX 17 18 0 -3
BITMAP
03C000
0C3000
100800
200400
511200
511200
911100
8AA100
8AA100
8AA100
444200
444200
244400
100800
0C3000
03C000
000000
000000
ENDCHAR
STARTCHAR U_24D0
ENCODING 9424
SWIDTH 1000 0
DWIDTH 18 0
BBX 17 18 0 -3
BITMAP
03C000
0C3000
100800
200400
43C200
442200
802100
83E100
842100
842100
446200
43A200
200400
100800
0C3000
03C000
000000
000000
ENDCHAR
STARTCHAR U_24D6
ENCODING 9430
SWIDTH 1000 0
DWIDTH 18 0
BBX 17 18 0 -3
BITMAP
03C000
0C3000
100800
23A400
446200
482200
882100
846100
83A100
802100
482200
444200
238400
100800
0C3000
03C000
000000
000000
ENDCHAR
STARTCHAR U_24E0
ENCODING 9440
SWIDTH 1000 0
DWIDTH 18 0
BBX 17 18 0 -3
BITMAP
078000
186000
201000
408800
478800
888400
888400
888400
878400
808400
408800
408800
201000
186000
078000
000000
000000
000000
ENDCHAR
STARTCHAR U_24EC
ENCODING 9452
SWIDTH 1000 0
DWIDTH 18 0
BBX 17 18 0 -3
BITMAP
0FF000
3FFC00
6F1E00
4EEE00
EDF700
EFF700
EFF700
EFEF00
EFDF00
EFBF00
EF7F00
EEFF00
6DFE00
6C0600
3FFC00
0FF000
000000
000000
ENDCHAR
STARTCHAR U_24EE
ENCODING 9454
SWIDTH 1000 0
DWIDTH 18 0
BBX 17 18 0 -3
BITMAP
07E000
0FF000
1FF800
37EC00
77DE00
F7AF00
F76F00
F6EF00
F5EF00
F40700
F7EF00
77EE00
37EC00
17E800
0FF000
07E000
000000
000000
ENDCHAR
STARTCHAR U_24F0
ENCODING 9456
SWIDTH 1000 0
DWIDTH 18 0
BBX 17 18 0 -3
BITMAP
07E000
1FF800
3B0C00
62F600
7AFE00
FAFF00
FAFF00
FA0F00
FAF700
FAF700
FAF700
7AF600
7AF600
3B0C00
1FF800
07E000
000000
000000
ENDCHAR
STARTCHAR SF100000
ENCODING 9472
SWIDTH 1000 0
DWIDTH 16 0
BBX 16 1 0 6
BITMAP
FFFF
ENDCHAR
STARTCHAR U_2501
ENCODING 9473
SWIDTH 1000 0
DWIDTH 16 0
BBX 16 2 0 5
BITMAP
FFFF
FFFF
ENDCHAR
STARTCHAR SF110000
ENCODING 9474
SWIDTH 1000 0
DWIDTH 16 0
BBX 1 16 8 -2
BITMAP
80
80
80
80
80
80
80
80
80
80
80
80
80
80
80
80
ENDCHAR
STARTCHAR U_2503
ENCODING 9475
SWIDTH 1000 0
DWIDTH 16 0
BBX 2 16 7 -2
BITMAP
C0
C0
C0
C0
C0
C0
C0
C0
C0
C0
C0
C0
C0
C0
C0
C0
ENDCHAR
STARTCHAR U_2504
ENCODING 9476
SWIDTH 1000 0
DWIDTH 16 0
BBX 14 1 1 6
BITMAP
F7BC
ENDCHAR
STARTCHAR U_2505
ENCODING 9477
SWIDTH 1000 0
DWIDTH 16 0
BBX 14 2 1 5
BITMAP
F7BC
F7BC
ENDCHAR
STARTCHAR U_2506
ENCODING 9478
SWIDTH 1000 0
DWIDTH 16 0
BBX 1 14 7 -1
BITMAP
80
80
80
80
00
80
80
80
80
00
80
80
80
80
ENDCHAR
STARTCHAR U_2507
ENCODING 9479
SWIDTH 1000 0
DWIDTH 16 0
BBX 2 14 7 -1
BITMAP
C0
C0
C0
C0
00
C0
C0
C0
C0
00
C0
C0
C0
C0
ENDCHAR
STARTCHAR U_2508
ENCODING 9480
SWIDTH 1000 0
DWIDTH 16 0
BBX 15 1 0 6
BITMAP
EEEE
ENDCHAR
STARTCHAR U_2509
ENCODING 9481
SWIDTH 1000 0
DWIDTH 16 0
BBX 15 2 0 5
BITMAP
EEEE
EEEE
ENDCHAR
STARTCHAR U_250A
ENCODING 9482
SWIDTH 1000 0
DWIDTH 16 0
BBX 1 15 7 -1
BITMAP
80
80
80
00
80
80
80
00
80
80
80
00
80
80
80
ENDCHAR
STARTCHAR U_250B
ENCODING 9483
SWIDTH 1000 0
DWIDTH 16 0
BBX 2 15 7 -1
BITMAP
C0
C0
C0
00
C0
C0
C0
00
C0
C0
C0
00
C0
C0
C0
ENDCHAR
STARTCHAR SF010000
ENCODING 9484
SWIDTH 1000 0
DWIDTH 16 0
BBX 8 9 8 -2
BITMAP
FF
80
80
80
80
80
80
80
80
ENDCHAR
STARTCHAR U_250D
ENCODING 9485
SWIDTH 1000 0
DWIDTH 16 0
BBX 9 9 7 -2
BITMAP
FF80
FF80
8000
8000
8000
8000
8000
8000
8000
ENDCHAR
STARTCHAR U_250E
ENCODING 9486
SWIDTH 1000 0
DWIDTH 16 0
BBX 9 9 7 -2
BITMAP
FF80
C000
C000
C000
C000
C000
C000
C000
C000
ENDCHAR
STARTCHAR U_250F
ENCODING 9487
SWIDTH 1000 0
DWIDTH 16 0
BBX 9 9 7 -2
BITMAP
FF80
FF80
C000
C000
C000
C000
C000
C000
C000
ENDCHAR
STARTCHAR SF030000
ENCODING 9488
SWIDTH 1000 0
DWIDTH 16 0
BBX 9 9 0 -2
BITMAP
FF80
0080
0080
0080
0080
0080
0080
0080
0080
ENDCHAR
STARTCHAR U_2511
ENCODING 9489
SWIDTH 1000 0
DWIDTH 16 0
BBX 8 9 0 -2
BITMAP
FF
FF
01
01
01
01
01
01
01
ENDCHAR
STARTCHAR U_2512
ENCODING 9490
SWIDTH 1000 0
DWIDTH 16 0
BBX 9 9 0 -2
BITMAP
FF80
0180
0180
0180
0180
0180
0180
0180
0180
ENDCHAR
STARTCHAR U_2513
ENCODING 9491
SWIDTH 1000 0
DWIDTH 16 0
BBX 9 9 0 -2
BITMAP
FF80
FF80
0180
0180
0180
0180
0180
0180
0180
ENDCHAR
STARTCHAR SF020000
ENCODING 9492
SWIDTH 1000 0
DWIDTH 16 0
BBX 8 8 8 6
BITMAP
80
80
80
80
80
80
80
FF
ENDCHAR
STARTCHAR U_2515
ENCODING 9493
SWIDTH 1000 0
DWIDTH 16 0
BBX 9 9 7 5
BITMAP
8000
8000
8000
8000
8000
8000
8000
FF80
FF80
ENDCHAR
STARTCHAR U_2516
ENCODING 9494
SWIDTH 1000 0
DWIDTH 16 0
BBX 9 8 7 6
BITMAP
C000
C000
C000
C000
C000
C000
C000
FF80
ENDCHAR
STARTCHAR U_2517
ENCODING 9495
SWIDTH 1000 0
DWIDTH 16 0
BBX 9 9 7 5
BITMAP
C000
C000
C000
C000
C000
C000
C000
FF80
FF80
ENDCHAR
STARTCHAR SF040000
ENCODING 9496
SWIDTH 1000 0
DWIDTH 16 0
BBX 9 8 0 6
BITMAP
0080
0080
0080
0080
0080
0080
0080
FF80
ENDCHAR
STARTCHAR U_2519
ENCODING 9497
SWIDTH 1000 0
DWIDTH 16 0
BBX 8 9 0 5
BITMAP
01
01
01
01
01
01
01
FF
FF
ENDCHAR
STARTCHAR U_251A
ENCODING 9498
SWIDTH 1000 0
DWIDTH 16 0
BBX 9 8 0 6
BITMAP
0180
0180
0180
0180
0180
0180
0180
FF80
ENDCHAR
STARTCHAR U_251B
ENCODING 9499
SWIDTH 1000 0
DWIDTH 16 0
BBX 9 9 0 5
BITMAP
0180
0180
0180
0180
0180
0180
0180
FF80
FF80
ENDCHAR
STARTCHAR SF080000
ENCODING 9500
SWIDTH 1000 0
DWIDTH 16 0
BBX 8 16 8 -2
BITMAP
80
80
80
80
80
80
80
FF
80
80
80
80
80
80
80
80
ENDCHAR
STARTCHAR U_251D
ENCODING 9501
SWIDTH 1000 0
DWIDTH 16 0
BBX 9 16 7 -2
BITMAP
8000
8000
8000
8000
8000
8000
8000
FF80
FF80
8000
8000
8000
8000
8000
8000
8000
ENDCHAR
STARTCHAR U_251E
ENCODING 9502
SWIDTH 1000 0
DWIDTH 16 0
BBX 9 15 7 -1
BITMAP
C000
C000
C000
C000
C000
C000
C000
FF80
8000
8000
8000
8000
8000
8000
8000
ENDCHAR
STARTCHAR U_251F
ENCODING 9503
SWIDTH 1000 0
DWIDTH 16 0
BBX 9 15 7 -2
BITMAP
8000
8000
8000
8000
8000
8000
7F80
C000
C000
C000
C000
C000
C000
C000
C000
ENDCHAR
STARTCHAR U_2520
ENCODING 9504
SWIDTH 1000 0
DWIDTH 16 0
BBX 9 16 7 -2
BITMAP
C000
C000
C000
C000
C000
C000
C000
FF80
C000
C000
C000
C000
C000
C000
C000
C000
ENDCHAR
STARTCHAR U_2521
ENCODING 9505
SWIDTH 1000 0
DWIDTH 16 0
BBX 9 15 7 -1
BITMAP
C000
C000
C000
C000
C000
C000
C000
FF80
FF80
8000
8000
8000
8000
8000
8000
ENDCHAR
STARTCHAR U_2522
ENCODING 9506
SWIDTH 1000 0
DWIDTH 16 0
BBX 9 15 7 -2
BITMAP
8000
8000
8000
8000
8000
8000
FF80
FF80
C000
C000
C000
C000
C000
C000
C000
ENDCHAR
STARTCHAR U_2523
ENCODING 9507
SWIDTH 1000 0
DWIDTH 16 0
BBX 9 16 7 -2
BITMAP
C000
C000
C000
C000
C000
C000
C000
FF80
FF80
C000
C000
C000
C000
C000
C000
C000
ENDCHAR
STARTCHAR SF090000
ENCODING 9508
SWIDTH 1000 0
DWIDTH 16 0
BBX 9 16 0 -2
BITMAP
0080
0080
0080
0080
0080
0080
0080
FF80
0080
0080
0080
0080
0080
0080
0080
0080
ENDCHAR
STARTCHAR U_2525
ENCODING 9509
SWIDTH 1000 0
DWIDTH 16 0
BBX 8 16 0 -2
BITMAP
01
01
01
01
01
01
01
FF
FF
01
01
01
01
01
01
01
ENDCHAR
STARTCHAR U_2526
ENCODING 9510
SWIDTH 1000 0
DWIDTH 16 0
BBX 9 15 0 -1
BITMAP
0180
0180
0180
0180
0180
0180
0180
FF80
0100
0100
0100
0100
0100
0100
0100
ENDCHAR
STARTCHAR U_2527
ENCODING 9511
SWIDTH 1000 0
DWIDTH 16 0
BBX 9 15 0 -2
BITMAP
0100
0100
0100
0100
0100
0100
FF80
0180
0180
0180
0180
0180
0180
0180
0180
ENDCHAR
STARTCHAR U_2528
ENCODING 9512
SWIDTH 1000 0
DWIDTH 16 0
BBX 9 16 0 -2
BITMAP
0180
0180
0180
0180
0180
0180
0180
FF80
0180
0180
0180
0180
0180
0180
0180
0180
ENDCHAR
STARTCHAR U_2529
ENCODING 9513
SWIDTH 1000 0
DWIDTH 16 0
BBX 9 15 0 -1
BITMAP
0180
0180
0180
0180
0180
0180
0180
FF80
FF80
0100
0100
0100
0100
0100
0100
ENDCHAR
STARTCHAR U_252A
ENCODING 9514
SWIDTH 1000 0
DWIDTH 16 0
BBX 9 15 0 -2
BITMAP
0100
0100
0100
0100
0100
0100
FF80
FF80
0180
0180
0180
0180
0180
0180
0180
ENDCHAR
STARTCHAR U_252B
ENCODING 9515
SWIDTH 1000 0
DWIDTH 16 0
BBX 9 16 0 -2
BITMAP
0180
0180
0180
0180
0180
0180
0180
FF80
FF80
0180
0180
0180
0180
0180
0180
0180
ENDCHAR
STARTCHAR SF060000
ENCODING 9516
SWIDTH 1000 0
DWIDTH 16 0
BBX 16 9 0 -2
BITMAP
FFFF
0080
0080
0080
0080
0080
0080
0080
0080
ENDCHAR
STARTCHAR U_252D
ENCODING 9517
SWIDTH 1000 0
DWIDTH 16 0
BBX 15 9 0 -2
BITMAP
FF00
FFFE
0100
0100
0100
0100
0100
0100
0100
ENDCHAR
STARTCHAR U_252E
ENCODING 9518
SWIDTH 1000 0
DWIDTH 16 0
BBX 15 9 1 -2
BITMAP
03FE
FFFE
0200
0200
0200
0200
0200
0200
0200
ENDCHAR
STARTCHAR U_252F
ENCODING 9519
SWIDTH 1000 0
DWIDTH 16 0
BBX 16 9 0 -2
BITMAP
FFFF
FFFF
0100
0100
0100
0100
0100
0100
0100
ENDCHAR
STARTCHAR U_2530
ENCODING 9520
SWIDTH 1000 0
DWIDTH 16 0
BBX 16 9 0 -2
BITMAP
FFFF
0180
0180
0180
0180
0180
0180
0180
0180
ENDCHAR
STARTCHAR U_2531
ENCODING 9521
SWIDTH 1000 0
DWIDTH 16 0
BBX 15 9 0 -2
BITMAP
FF80
FFFE
0180
0180
0180
0180
0180
0180
0180
ENDCHAR
STARTCHAR U_2532
ENCODING 9522
SWIDTH 1000 0
DWIDTH 16 0
BBX 15 9 1 -2
BITMAP
03FE
FFFE
0300
0300
0300
0300
0300
0300
0300
ENDCHAR
STARTCHAR U_2533
ENCODING 9523
SWIDTH 1000 0
DWIDTH 16 0
BBX 16 9 0 -2
BITMAP
FFFF
FFFF
0180
0180
0180
0180
0180
0180
0180
ENDCHAR
STARTCHAR SF070000
ENCODING 9524
SWIDTH 1000 0
DWIDTH 16 0
BBX 16 8 0 6
BITMAP
0080
0080
0080
0080
0080
0080
0080
FFFF
ENDCHAR
STARTCHAR U_2535
ENCODING 9525
SWIDTH 1000 0
DWIDTH 16 0
BBX 15 9 0 5
BITMAP
0100
0100
0100
0100
0100
0100
0100
FF00
FFFE
ENDCHAR
STARTCHAR U_2536
ENCODING 9526
SWIDTH 1000 0
DWIDTH 16 0
BBX 15 9 1 5
BITMAP
0200
0200
0200
0200
0200
0200
0200
03FE
FFFE
ENDCHAR
STARTCHAR U_2537
ENCODING 9527
SWIDTH 1000 0
DWIDTH 16 0
BBX 16 9 0 5
BITMAP
0100
0100
0100
0100
0100
0100
0100
FFFF
FFFF
ENDCHAR
STARTCHAR U_2538
ENCODING 9528
SWIDTH 1000 0
DWIDTH 16 0
BBX 16 8 0 6
BITMAP
0180
0180
0180
0180
0180
0180
0180
FFFF
ENDCHAR
STARTCHAR U_2539
ENCODING 9529
SWIDTH 1000 0
DWIDTH 16 0
BBX 15 9 0 5
BITMAP
0180
0180
0180
0180
0180
0180
0180
FF80
FFFE
ENDCHAR
STARTCHAR U_253A
ENCODING 9530
SWIDTH 1000 0
DWIDTH 16 0
BBX 15 9 1 5
BITMAP
0300
0300
0300
0300
0300
0300
0300
03FE
FFFE
ENDCHAR
STARTCHAR U_253B
ENCODING 9531
SWIDTH 1000 0
DWIDTH 16 0
BBX 16 9 0 5
BITMAP
0180
0180
0180
0180
0180
0180
0180
FFFF
FFFF
ENDCHAR
STARTCHAR SF050000
ENCODING 9532
SWIDTH 1000 0
DWIDTH 16 0
BBX 16 16 0 -2
BITMAP
0080
0080
0080
0080
0080
0080
0080
FFFF
0080
0080
0080
0080
0080
0080
0080
0080
ENDCHAR
STARTCHAR U_253D
ENCODING 9533
SWIDTH 1000 0
DWIDTH 16 0
BBX 15 16 0 -2
BITMAP
0100
0100
0100
0100
0100
0100
0100
FF00
FFFE
0100
0100
0100
0100
0100
0100
0100
ENDCHAR
STARTCHAR U_253E
ENCODING 9534
SWIDTH 1000 0
DWIDTH 16 0
BBX 15 16 1 -2
BITMAP
0200
0200
0200
0200
0200
0200
0200
03FE
FFFE
0200
0200
0200
0200
0200
0200
0200
ENDCHAR
STARTCHAR U_253F
ENCODING 9535
SWIDTH 1000 0
DWIDTH 16 0
BBX 16 16 0 -2
BITMAP
0100
0100
0100
0100
0100
0100
0100
FFFF
FFFF
0100
0100
0100
0100
0100
0100
0100
ENDCHAR
STARTCHAR U_2540
ENCODING 9536
SWIDTH 1000 0
DWIDTH 16 0
BBX 16 15 0 -1
BITMAP
0180
0180
0180
0180
0180
0180
0180
FFFF
0100
0100
0100
0100
0100
0100
0100
ENDCHAR
STARTCHAR U_2541
ENCODING 9537
SWIDTH 1000 0
DWIDTH 16 0
BBX 16 15 0 -2
BITMAP
0100
0100
0100
0100
0100
0100
FFFF
0180
0180
0180
0180
0180
0180
0180
0180
ENDCHAR
STARTCHAR U_2542
ENCODING 9538
SWIDTH 1000 0
DWIDTH 16 0
BBX 16 16 0 -2
BITMAP
0180
0180
0180
0180
0180
0180
0180
FFFF
0180
0180
0180
0180
0180
0180
0180
0180
ENDCHAR
STARTCHAR U_2543
ENCODING 9539
SWIDTH 1000 0
DWIDTH 16 0
BBX 15 15 0 -1
BITMAP
0180
0180
0180
0180
0180
0180
0180
FF80
FFFE
0100
0100
0100
0100
0100
0100
ENDCHAR
STARTCHAR U_2544
ENCODING 9540
SWIDTH 1000 0
DWIDTH 16 0
BBX 15 15 1 -1
BITMAP
0300
0300
0300
0300
0300
0300
0300
03FE
FFFE
0200
0200
0200
0200
0200
0200
ENDCHAR
STARTCHAR U_2545
ENCODING 9541
SWIDTH 1000 0
DWIDTH 16 0
BBX 15 15 0 -2
BITMAP
0100
0100
0100
0100
0100
0100
FF80
FFFE
0180
0180
0180
0180
0180
0180
0180
ENDCHAR
STARTCHAR U_2546
ENCODING 9542
SWIDTH 1000 0
DWIDTH 16 0
BBX 15 15 1 -2
BITMAP
0200
0200
0200
0200
0200
0200
03FE
FFFE
0300
0300
0300
0300
0300
0300
0300
ENDCHAR
STARTCHAR U_2547
ENCODING 9543
SWIDTH 1000 0
DWIDTH 16 0
BBX 16 15 0 -1
BITMAP
0180
0180
0180
0180
0180
0180
0180
FFFF
FFFF
0100
0100
0100
0100
0100
0100
ENDCHAR
STARTCHAR U_2548
ENCODING 9544
SWIDTH 1000 0
DWIDTH 16 0
BBX 16 15 0 -2
BITMAP
0100
0100
0100
0100
0100
0100
FFFF
FFFF
0180
0180
0180
0180
0180
0180
0180
ENDCHAR
STARTCHAR U_2549
ENCODING 9545
SWIDTH 1000 0
DWIDTH 16 0
BBX 15 16 0 -2
BITMAP
0180
0180
0180
0180
0180
0180
0180
FF80
FFFE
0180
0180
0180
0180
0180
0180
0180
ENDCHAR
STARTCHAR U_254A
ENCODING 9546
SWIDTH 1000 0
DWIDTH 16 0
BBX 15 16 1 -2
BITMAP
0300
0300
0300
0300
0300
0300
0300
03FE
FFFE
0300
0300
0300
0300
0300
0300
0300
ENDCHAR
STARTCHAR U_254B
ENCODING 9547
SWIDTH 1000 0
DWIDTH 16 0
BBX 16 16 0 -2
BITMAP
0180
0180
0180
0180
0180
0180
0180
FFFF
FFFF
0180
0180
0180
0180
0180
0180
0180
ENDCHAR
STARTCHAR SF430000
ENCODING 9552
SWIDTH 1000 0
DWIDTH 16 0
BBX 16 3 0 4
BITMAP
FFFF
0000
FFFF
ENDCHAR
STARTCHAR SF240000
ENCODING 9553
SWIDTH 1000 0
DWIDTH 16 0
BBX 3 16 6 -2
BITMAP
A0
A0
A0
A0
A0
A0
A0
A0
A0
A0
A0
A0
A0
A0
A0
A0
ENDCHAR
STARTCHAR SF510000
ENCODING 9554
SWIDTH 1000 0
DWIDTH 16 0
BBX 8 9 8 -2
BITMAP
FF
80
FF
80
80
80
80
80
80
ENDCHAR
STARTCHAR SF520000
ENCODING 9555
SWIDTH 1000 0
DWIDTH 16 0
BBX 9 9 7 -2
BITMAP
FF80
A000
A000
A000
A000
A000
A000
A000
A000
ENDCHAR
STARTCHAR SF390000
ENCODING 9556
SWIDTH 1000 0
DWIDTH 16 0
BBX 9 9 7 -2
BITMAP
FF80
8000
BF80
A000
A000
A000
A000
A000
A000
ENDCHAR
STARTCHAR SF220000
ENCODING 9557
SWIDTH 1000 0
DWIDTH 16 0
BBX 9 9 0 -2
BITMAP
FF80
0080
FF80
0080
0080
0080
0080
0080
0080
ENDCHAR
STARTCHAR SF210000
ENCODING 9558
SWIDTH 1000 0
DWIDTH 16 0
BBX 9 9 0 -2
BITMAP
FF80
0280
0280
0280
0280
0280
0280
0280
0280
ENDCHAR
STARTCHAR SF250000
ENCODING 9559
SWIDTH 1000 0
DWIDTH 16 0
BBX 9 9 0 -2
BITMAP
FF80
0080
FE80
0280
0280
0280
0280
0280
0280
ENDCHAR
STARTCHAR SF500000
ENCODING 9560
SWIDTH 1000 0
DWIDTH 16 0
BBX 8 9 8 5
BITMAP
80
80
80
80
80
80
FF
80
FF
ENDCHAR
STARTCHAR SF490000
ENCODING 9561
SWIDTH 1000 0
DWIDTH 16 0
BBX 9 8 7 6
BITMAP
A000
A000
A000
A000
A000
A000
A000
FF80
ENDCHAR
STARTCHAR SF380000
ENCODING 9562
SWIDTH 1000 0
DWIDTH 16 0
BBX 9 9 7 5
BITMAP
A000
A000
A000
A000
A000
A000
BF80
8000
FF80
ENDCHAR
STARTCHAR SF280000
ENCODING 9563
SWIDTH 1000 0
DWIDTH 16 0
BBX 9 9 0 5
BITMAP
0080
0080
0080
0080
0080
0080
FF80
0080
FF80
ENDCHAR
STARTCHAR SF270000
ENCODING 9564
SWIDTH 1000 0
DWIDTH 16 0
BBX 9 8 0 6
BITMAP
0280
0280
0280
0280
0280
0280
0280
FF80
ENDCHAR
STARTCHAR SF260000
ENCODING 9565
SWIDTH 1000 0
DWIDTH 16 0
BBX 9 9 0 5
BITMAP
0280
0280
0280
0280
0280
0280
FE80
0080
FF80
ENDCHAR
STARTCHAR SF360000
ENCODING 9566
SWIDTH 1000 0
DWIDTH 16 0
BBX 8 16 8 -2
BITMAP
80
80
80
80
80
80
FF
80
FF
80
80
80
80
80
80
80
ENDCHAR
STARTCHAR SF370000
ENCODING 9567
SWIDTH 1000 0
DWIDTH 16 0
BBX 9 16 7 -2
BITMAP
A000
A000
A000
A000
A000
A000
A000
BF80
A000
A000
A000
A000
A000
A000
A000
A000
ENDCHAR
STARTCHAR SF420000
ENCODING 9568
SWIDTH 1000 0
DWIDTH 16 0
BBX 9 16 7 -2
BITMAP
A000
A000
A000
A000
A000
A000
BF80
8000
BF80
A000
A000
A000
A000
A000
A000
A000
ENDCHAR
STARTCHAR SF190000
ENCODING 9569
SWIDTH 1000 0
DWIDTH 16 0
BBX 9 16 0 -2
BITMAP
0080
0080
0080
0080
0080
0080
0080
FF80
0080
FF80
0080
0080
0080
0080
0080
0080
ENDCHAR
STARTCHAR SF200000
ENCODING 9570
SWIDTH 1000 0
DWIDTH 16 0
BBX 9 16 0 -2
BITMAP
0280
0280
0280
0280
0280
0280
0280
FE80
0280
0280
0280
0280
0280
0280
0280
0280
ENDCHAR
STARTCHAR SF230000
ENCODING 9571
SWIDTH 1000 0
DWIDTH 16 0
BBX 9 16 0 -2
BITMAP
0280
0280
0280
0280
0280
0280
FE80
0080
FE80
0280
0280
0280
0280
0280
0280
0280
ENDCHAR
STARTCHAR SF470000
ENCODING 9572
SWIDTH 1000 0
DWIDTH 16 0
BBX 16 9 0 -2
BITMAP
FFFF
0000
FFFF
0080
0080
0080
0080
0080
0080
ENDCHAR
STARTCHAR SF480000
ENCODING 9573
SWIDTH 1000 0
DWIDTH 16 0
BBX 16 9 0 -2
BITMAP
FFFF
0280
0280
0280
0280
0280
0280
0280
0280
ENDCHAR
STARTCHAR SF410000
ENCODING 9574
SWIDTH 1000 0
DWIDTH 16 0
BBX 16 9 0 -2
BITMAP
FFFF
0000
FEFF
0280
0280
0280
0280
0280
0280
ENDCHAR
STARTCHAR SF450000
ENCODING 9575
SWIDTH 1000 0
DWIDTH 16 0
BBX 16 9 0 5
BITMAP
0080
0080
0080
0080
0080
0080
FFFF
0000
FFFF
ENDCHAR
STARTCHAR SF460000
ENCODING 9576
SWIDTH 1000 0
DWIDTH 16 0
BBX 16 8 0 6
BITMAP
0280
0280
0280
0280
0280
0280
0280
FFFF
ENDCHAR
STARTCHAR SF400000
ENCODING 9577
SWIDTH 1000 0
DWIDTH 16 0
BBX 16 9 0 5
BITMAP
0280
0280
0280
0280
0280
0280
FEFF
0000
FFFF
ENDCHAR
STARTCHAR SF540000
ENCODING 9578
SWIDTH 1000 0
DWIDTH 16 0
BBX 16 16 0 -2
BITMAP
0080
0080
0080
0080
0080
0080
FFFF
0000
FFFF
0080
0080
0080
0080
0080
0080
0080
ENDCHAR
STARTCHAR SF530000
ENCODING 9579
SWIDTH 1000 0
DWIDTH 16 0
BBX 16 16 0 -2
BITMAP
0280
0280
0280
0280
0280
0280
0280
FEFF
0280
0280
0280
0280
0280
0280
0280
0280
ENDCHAR
STARTCHAR SF440000
ENCODING 9580
SWIDTH 1000 0
DWIDTH 16 0
BBX 16 16 0 -2
BITMAP
0280
0280
0280
0280
0280
0280
FEFF
0000
FEFF
0280
0280
0280
0280
0280
0280
0280
ENDCHAR
STARTCHAR U_256D
ENCODING 9581
SWIDTH 1000 0
DWIDTH 16 0
BBX 8 8 8 -2
BITMAP
0F
10
20
40
80
80
80
80
ENDCHAR
STARTCHAR U_256E
ENCODING 9582
SWIDTH 1000 0
DWIDTH 16 0
BBX 8 8 0 -2
BITMAP
F0
08
04
02
02
01
01
01
ENDCHAR
STARTCHAR U_256F
ENCODING 9583
SWIDTH 1000 0
DWIDTH 16 0
BBX 9 8 0 6
BITMAP
0080
0080
0100
0100
0200
0400
0800
F000
ENDCHAR
STARTCHAR U_2570
ENCODING 9584
SWIDTH 1000 0
DWIDTH 16 0
BBX 8 8 8 6
BITMAP
80
80
80
40
40
20
18
07
ENDCHAR
STARTCHAR U_2571
ENCODING 9585
SWIDTH 1000 0
DWIDTH 16 0
BBX 16 16 0 -2
BITMAP
0001
0002
0004
0008
0010
0020
0040
0080
0100
0200
0400
0800
1000
2000
4000
8000
ENDCHAR
STARTCHAR U_2572
ENCODING 9586
SWIDTH 1000 0
DWIDTH 16 0
BBX 16 16 0 -2
BITMAP
8000
4000
2000
1000
0800
0400
0200
0100
0080
0040
0020
0010
0008
0004
0002
0001
ENDCHAR
STARTCHAR U_2573
ENCODING 9587
SWIDTH 1000 0
DWIDTH 16 0
BBX 16 16 0 -2
BITMAP
8001
4002
2004
1008
0810
0420
0240
0180
0180
0240
0420
0810
1008
2004
4002
8001
ENDCHAR
STARTCHAR U_2574
ENCODING 9588
SWIDTH 1000 0
DWIDTH 16 0
BBX 16 1 0 13
BITMAP
FFFF
ENDCHAR
STARTCHAR U_2581
ENCODING 9601
SWIDTH 1000 0
DWIDTH 16 0
BBX 16 2 0 -2
BITMAP
FFFF
FFFF
ENDCHAR
STARTCHAR U_2582
ENCODING 9602
SWIDTH 1000 0
DWIDTH 16 0
BBX 16 4 0 -2
BITMAP
FFFF
FFFF
FFFF
FFFF
ENDCHAR
STARTCHAR U_2583
ENCODING 9603
SWIDTH 1000 0
DWIDTH 16 0
BBX 16 6 0 -2
BITMAP
FFFF
FFFF
FFFF
FFFF
FFFF
FFFF
ENDCHAR
STARTCHAR dnblock
ENCODING 9604
SWIDTH 1000 0
DWIDTH 16 0
BBX 16 8 0 -2
BITMAP
FFFF
FFFF
FFFF
FFFF
FFFF
FFFF
FFFF
FFFF
ENDCHAR
STARTCHAR U_2585
ENCODING 9605
SWIDTH 1000 0
DWIDTH 16 0
BBX 16 10 0 -2
BITMAP
FFFF
FFFF
FFFF
FFFF
FFFF
FFFF
FFFF
FFFF
FFFF
FFFF
ENDCHAR
STARTCHAR U_2586
ENCODING 9606
SWIDTH 1000 0
DWIDTH 16 0
BBX 16 12 0 -2
BITMAP
FFFF
FFFF
FFFF
FFFF
FFFF
FFFF
FFFF
FFFF
FFFF
FFFF
FFFF
FFFF
ENDCHAR
STARTCHAR U_2587
ENCODING 9607
SWIDTH 1000 0
DWIDTH 16 0
BBX 16 14 0 -2
BITMAP
FFFF
FFFF
FFFF
FFFF
FFFF
FFFF
FFFF
FFFF
FFFF
FFFF
FFFF
FFFF
FFFF
FFFF
ENDCHAR
STARTCHAR block
ENCODING 9608
SWIDTH 1000 0
DWIDTH 16 0
BBX 16 16 0 -2
BITMAP
FFFF
FFFF
FFFF
FFFF
FFFF
FFFF
FFFF
FFFF
FFFF
FFFF
FFFF
FFFF
FFFF
FFFF
FFFF
FFFF
ENDCHAR
STARTCHAR U_2589
ENCODING 9609
SWIDTH 1000 0
DWIDTH 16 0
BBX 14 16 0 -2
BITMAP
FFFC
FFFC
FFFC
FFFC
FFFC
FFFC
FFFC
FFFC
FFFC
FFFC
FFFC
FFFC
FFFC
FFFC
FFFC
FFFC
ENDCHAR
STARTCHAR U_258A
ENCODING 9610
SWIDTH 1000 0
DWIDTH 16 0
BBX 12 16 0 -2
BITMAP
FFF0
FFF0
FFF0
FFF0
FFF0
FFF0
FFF0
FFF0
FFF0
FFF0
FFF0
FFF0
FFF0
FFF0
FFF0
FFF0
ENDCHAR
STARTCHAR U_258B
ENCODING 9611
SWIDTH 1000 0
DWIDTH 16 0
BBX 10 16 0 -2
BITMAP
FFC0
FFC0
FFC0
FFC0
FFC0
FFC0
FFC0
FFC0
FFC0
FFC0
FFC0
FFC0
FFC0
FFC0
FFC0
FFC0
ENDCHAR
STARTCHAR lfblock
ENCODING 9612
SWIDTH 1000 0
DWIDTH 16 0
BBX 8 16 0 -2
BITMAP
FF
FF
FF
FF
FF
FF
FF
FF
FF
FF
FF
FF
FF
FF
FF
FF
ENDCHAR
STARTCHAR U_258D
ENCODING 9613
SWIDTH 1000 0
DWIDTH 16 0
BBX 6 16 0 -2
BITMAP
FC
FC
FC
FC
FC
FC
FC
FC
FC
FC
FC
FC
FC
FC
FC
FC
ENDCHAR
STARTCHAR U_258E
ENCODING 9614
SWIDTH 1000 0
DWIDTH 16 0
BBX 4 16 0 -2
BITMAP
F0
F0
F0
F0
F0
F0
F0
F0
F0
F0
F0
F0
F0
F0
F0
F0
ENDCHAR
STARTCHAR U_258F
ENCODING 9615
SWIDTH 1000 0
DWIDTH 16 0
BBX 2 16 0 -2
BITMAP
C0
C0
C0
C0
C0
C0
C0
C0
C0
C0
C0
C0
C0
C0
C0
C0
ENDCHAR
STARTCHAR U_2592
ENCODING 9618
SWIDTH 1000 0
DWIDTH 18 0
BBX 17 18 0 -3
BITMAP
AAAA00
555500
AAAA00
555500
AAAA00
555500
AAAA00
555500
AAAA00
555500
AAAA00
555500
AAAA00
555500
AAAA00
555500
000000
000000
ENDCHAR
STARTCHAR dkshade
ENCODING 9619
SWIDTH 1000 0
DWIDTH 16 0
BBX 13 13 1 0
BITMAP
FFF8
FFF8
FFF8
FFF8
FFF8
FFF8
FFF8
FFF8
FFF8
FFF8
FFF8
FFF8
FFF8
ENDCHAR
STARTCHAR U_2594
ENCODING 9620
SWIDTH 1000 0
DWIDTH 16 0
BBX 16 2 0 12
BITMAP
FFFF
FFFF
ENDCHAR
STARTCHAR U_2595
ENCODING 9621
SWIDTH 1000 0
DWIDTH 16 0
BBX 2 16 14 -2
BITMAP
C0
C0
C0
C0
C0
C0
C0
C0
C0
C0
C0
C0
C0
C0
C0
C0
ENDCHAR
STARTCHAR filledbox
ENCODING 9632
SWIDTH 1000 0
DWIDTH 16 0
BBX 13 13 1 0
BITMAP
FFF8
FFF8
FFF8
FFF8
FFF8
FFF8
FFF8
FFF8
FFF8
FFF8
FFF8
FFF8
FFF8
ENDCHAR
STARTCHAR H22073
ENCODING 9633
SWIDTH 1000 0
DWIDTH 16 0
BBX 14 14 1 -1
BITMAP
FFFC
8004
8004
8004
8004
8004
8004
8004
8004
8004
8004
8004
8004
FFFC
ENDCHAR
STARTCHAR U_25A3
ENCODING 9635
SWIDTH 1000 0
DWIDTH 18 0
BBX 17 18 0 -3
BITMAP
FFFF00
800100
800100
800100
8FF100
8FF100
8FF100
8FF100
8FF100
8FF100
8FF100
8FF100
800100
800100
800100
FFFF00
000000
000000
ENDCHAR
STARTCHAR U_25A4
ENCODING 9636
SWIDTH 1000 0
DWIDTH 18 0
BBX 17 18 0 -3
BITMAP
FFFF00
800100
800100
FFFF00
800100
800100
FFFF00
800100
800100
FFFF00
800100
800100
FFFF00
800100
800100
FFFF00
000000
000000
ENDCHAR
STARTCHAR triagup
ENCODING 9650
SWIDTH 1000 0
DWIDTH 16 0
BBX 14 12 1 0
BITMAP
0200
0300
0780
0780
0FC0
1FE0
1FE0
3FF0
3FF0
7FF8
FFFC
FFFC
ENDCHAR
STARTCHAR U_25B3
ENCODING 9651
SWIDTH 1000 0
DWIDTH 16 0
BBX 14 12 1 0
BITMAP
0300
0500
0480
0880
0840
1060
2020
2010
4010
4008
8008
FFFC
ENDCHAR
STARTCHAR triagdn
ENCODING 9660
SWIDTH 1000 0
DWIDTH 16 0
BBX 14 11 1 1
BITMAP
FFFC
7FF8
7FF8
3FF0
3FF0
1FE0
0FC0
0FC0
0780
0780
0300
ENDCHAR
STARTCHAR U_25BD
ENCODING 9661
SWIDTH 1000 0
DWIDTH 16 0
BBX 14 12 1 0
BITMAP
FFFC
8004
4008
4010
2010
2020
1040
0840
0880
0480
0300
0200
ENDCHAR
STARTCHAR U_25C6
ENCODING 9670
SWIDTH 1000 0
DWIDTH 16 0
BBX 14 14 1 -1
BITMAP
0300
0780
0FC0
1FE0
3FF0
7FF8
FFFC
FFFC
7FF8
3FF0
1FE0
0FC0
0780
0300
ENDCHAR
STARTCHAR U_25C7
ENCODING 9671
SWIDTH 1000 0
DWIDTH 16 0
BBX 14 14 1 -1
BITMAP
0300
0480
0840
1020
2010
4008
8004
8004
4008
2010
1020
0840
0480
0300
ENDCHAR
STARTCHAR circle
ENCODING 9675
SWIDTH 1000 0
DWIDTH 16 0
BBX 15 14 0 -1
BITMAP
0FE0
1010
2008
4004
8004
8002
8002
8002
8002
8004
4004
2008
1010
0FE0
ENDCHAR
STARTCHAR U_25CE
ENCODING 9678
SWIDTH 1000 0
DWIDTH 16 0
BBX 15 14 1 -1
BITMAP
0FC0
1030
2388
4C44
9024
A014
A012
A012
A012
9024
4844
2788
1010
0FE0
ENDCHAR
STARTCHAR H18533
ENCODING 9679
SWIDTH 1000 0
DWIDTH 16 0
BBX 14 14 1 -1
BITMAP
0FC0
3FF0
7FF8
7FF8
FFFC
FFFC
FFFC
FFFC
FFFC
FFFC
7FF8
7FF8
3FF0
0FC0
ENDCHAR
STARTCHAR U_25E2
ENCODING 9698
SWIDTH 1000 0
DWIDTH 16 0
BBX 16 16 0 -2
BITMAP
0001
0003
0007
000F
001F
003F
007F
00FF
01FF
03FF
07FF
0FFF
1FFF
3FFF
7FFF
FFFF
ENDCHAR
STARTCHAR U_25E3
ENCODING 9699
SWIDTH 1000 0
DWIDTH 16 0
BBX 16 16 0 -2
BITMAP
8000
C000
E000
F000
F800
FC00
FE00
FF00
FF80
FFC0
FFE0
FFF0
FFF8
FFFC
FFFE
FFFF
ENDCHAR
STARTCHAR U_25E4
ENCODING 9700
SWIDTH 1000 0
DWIDTH 16 0
BBX 15 15 0 -1
BITMAP
FFFE
FFFC
FFF8
FFF0
FFE0
FFC0
FF80
FF00
FE00
FC00
F800
F000
E000
C000
8000
ENDCHAR
STARTCHAR U_25E5
ENCODING 9701
SWIDTH 1000 0
DWIDTH 16 0
BBX 15 15 1 -1
BITMAP
FFFE
7FFE
3FFE
1FFE
0FFE
07FE
03FE
01FE
00FE
007E
003E
001E
000E
0006
0002
ENDCHAR
STARTCHAR U_25E7
ENCODING 9703
SWIDTH 1000 0
DWIDTH 18 0
BBX 17 18 0 -3
BITMAP
FFFF00
FF0100
FF0100
FF0100
FF0100
FF0100
FF0100
FF0100
FF0100
FF0100
FF0100
FF0100
FF0100
FF0100
FF0100
FFFF00
000000
000000
ENDCHAR
STARTCHAR U_25F3
ENCODING 9715
SWIDTH 1000 0
DWIDTH 18 0
BBX 17 18 0 -3
BITMAP
FFFF00
808100
808100
808100
808100
808100
808100
80FF00
800100
800100
800100
800100
800100
800100
800100
FFFF00
000000
000000
ENDCHAR
STARTCHAR U_25F8
ENCODING 9720
SWIDTH 1000 0
DWIDTH 18 0
BBX 17 18 0 -3
BITMAP
FFFF00
800200
800400
800800
801000
802000
804000
808000
810000
820000
840000
880000
900000
A00000
C00000
800000
000000
000000
ENDCHAR
STARTCHAR U_2605
ENCODING 9733
SWIDTH 1000 0
DWIDTH 16 0
BBX 14 14 1 -1
BITMAP
0200
0300
0300
0300
0780
FFFC
3FF8
1FE0
0FC0
0FC0
0FC0
1CE0
1020
2010
ENDCHAR
STARTCHAR U_2606
ENCODING 9734
SWIDTH 1000 0
DWIDTH 16 0
BBX 14 13 1 -1
BITMAP
0300
0300
0500
0480
FCFC
4008
3030
0840
0840
1320
14A0
1860
2010
ENDCHAR
STARTCHAR U_2609
ENCODING 9737
SWIDTH 1000 0
DWIDTH 16 0
BBX 12 12 2 0
BITMAP
0F00
30C0
4020
4020
8010
8610
8610
8010
4020
4020
30C0
0F00
ENDCHAR
STARTCHAR U_2622
ENCODING 9762
SWIDTH 1000 0
DWIDTH 18 0
BBX 17 18 0 -3
BITMAP
03C000
0C3000
100800
381C00
7C3E00
7E7E00
FDBF00
FBDF00
818100
824100
43C200
47E200
37E400
1FF800
0FF000
03C000
000000
000000
ENDCHAR
STARTCHAR female
ENCODING 9792
SWIDTH 1000 0
DWIDTH 16 0
BBX 10 15 3 -1
BITMAP
0C00
1200
2100
2100
2100
1200
0C00
0400
0400
FFC0
0400
0400
0400
0400
0400
ENDCHAR
STARTCHAR U_2641
ENCODING 9793
SWIDTH 1000 0
DWIDTH 16 0
BBX 12 12 2 0
BITMAP
0F00
34C0
4420
8420
8410
FFF0
8410
8410
8420
4420
24C0
1F00
ENDCHAR
STARTCHAR male
ENCODING 9794
SWIDTH 1000 0
DWIDTH 16 0
BBX 7 15 5 -1
BITMAP
10
38
54
92
10
10
10
10
10
78
84
84
84
84
78
ENDCHAR
STARTCHAR U_2715
ENCODING 10005
SWIDTH 1000 0
DWIDTH 18 0
BBX 17 18 0 -3
BITMAP
000000
800200
400400
200800
101000
082000
044000
028000
010000
028000
044000
082000
101000
200800
400400
800200
000000
000000
ENDCHAR
STARTCHAR U_2716
ENCODING 10006
SWIDTH 1000 0
DWIDTH 18 0
BBX 17 18 0 -3
BITMAP
100800
381C00
7C3E00
FE7F00
7FFE00
3FFC00
1FF800
0FF000
0FF000
1FF800
3FFC00
7FFE00
FE7F00
7C3E00
381C00
100800
000000
000000
ENDCHAR
STARTCHAR U_2E99
ENCODING 11929
SWIDTH 1000 0
DWIDTH 18 0
BBX 17 18 0 -3
BITMAP
040000
040000
080000
1FFF00
200400
300400
480800
840800
021000
012000
00C000
014000
022000
041000
180C00
600300
000000
000000
ENDCHAR
STARTCHAR U_2E9B
ENCODING 11931
SWIDTH 1000 0
DWIDTH 18 0
BBX 17 18 0 -3
BITMAP
FFFE00
010000
010000
210000
210000
410000
410000
FFFE00
010000
010000
028000
028100
048100
088100
108100
E0FF00
000000
000000
ENDCHAR
STARTCHAR U_2E9C
ENCODING 11932
SWIDTH 1000 0
DWIDTH 18 0
BBX 17 18 0 -3
BITMAP
FFFF00
800100
BFFD00
800100
BFFD00
800100
000000
000000
000000
000000
000000
000000
000000
000000
000000
000000
000000
000000
ENDCHAR
STARTCHAR U_2E9D
ENCODING 11933
SWIDTH 1000 0
DWIDTH 18 0
BBX 17 18 0 -3
BITMAP
1FF800
100800
100800
100800
100800
1FF800
100800
100800
100800
100800
1FF800
100800
100800
100800
104800
103000
000000
000000
ENDCHAR
STARTCHAR U_2E9E
ENCODING 11934
SWIDTH 1000 0
DWIDTH 18 0
BBX 17 18 0 -3
BITMAP
010000
010000
09FE00
090000
0FFC00
080400
080400
140800
220800
411000
80A000
004000
008000
030000
1C0000
E00000
000000
000000
ENDCHAR
STARTCHAR U_2EA0
ENCODING 11936
SWIDTH 1000 0
DWIDTH 18 0
BBX 17 18 0 -3
BITMAP
000000
7FF800
400800
400800
400800
7FF800
400000
410000
410000
7FFE00
408000
404000
402000
4C1100
700900
400600
000000
000000
ENDCHAR
STARTCHAR U_2EA1
ENCODING 11937
SWIDTH 1000 0
DWIDTH 18 0
BBX 17 18 0 -3
BITMAP
020000
010000
008000
004000
042000
020000
010000
008000
004000
000000
002000
004000
008000
010000
020000
040000
000000
000000
ENDCHAR
STARTCHAR U_2EA2
ENCODING 11938
SWIDTH 1000 0
DWIDTH 18 0
BBX 17 18 0 -3
BITMAP
010000
010000
410200
210400
110800
091000
05A000
054000
014000
052000
091000
110800
210400
C10200
010100
070000
000000
000000
ENDCHAR
STARTCHAR U_2EA3
ENCODING 11939
SWIDTH 1000 0
DWIDTH 18 0
BBX 17 18 0 -3
BITMAP
000000
000000
000000
000000
000000
000000
000000
288800
444400
822200
000000
000000
000000
000000
000000
000000
000000
000000
ENDCHAR
STARTCHAR U_2EA4
ENCODING 11940
SWIDTH 1000 0
DWIDTH 18 0
BBX 17 18 0 -3
BITMAP
000000
000000
000000
000000
000000
03FF00
FC0000
010100
408200
208400
100800
000000
000000
000000
000000
000000
000000
000000
ENDCHAR
STARTCHAR U_2EA5
ENCODING 11941
SWIDTH 1000 0
DWIDTH 18 0
BBX 17 18 0 -3
BITMAP
000000
000000
000000
000000
000000
003F00
0FC000
700000
020800
210400
208200
408200
000000
000000
000000
000000
000000
000000
ENDCHAR
STARTCHAR U_2EA6
ENCODING 11942
SWIDTH 1000 0
DWIDTH 18 0
BBX 17 18 0 -3
BITMAP
004000
004000
044000
024000
024000
014000
014000
014000
004000
00C000
034000
0C4000
004000
004000
004000
004000
000000
000000
ENDCHAR
STARTCHAR U_2EA8
ENCODING 11944
SWIDTH 1000 0
DWIDTH 18 0
BBX 17 18 0 -3
BITMAP
022000
014000
008000
014000
022000
041000
003000
005000
009000
011000
021000
041000
001000
042000
022000
01C000
000000
000000
ENDCHAR
STARTCHAR U_2EA9
ENCODING 11945
SWIDTH 1000 0
DWIDTH 18 0
BBX 17 18 0 -3
BITMAP
1FF000
010000
010000
010000
010000
010000
010000
1FF000
010000
010000
010000
010000
010000
013000
01C000
1E0000
000000
000000
ENDCHAR
STARTCHAR U_2EAB
ENCODING 11947
SWIDTH 1000 0
DWIDTH 18 0
BBX 17 18 0 -3
BITMAP
000000
000000
000000
000000
FFFF00
842100
842100
842100
842100
842100
FFFF00
800100
000000
000000
000000
000000
000000
000000
ENDCHAR
STARTCHAR U_2EAC
ENCODING 11948
SWIDTH 1000 0
DWIDTH 18 0
BBX 17 18 0 -3
BITMAP
0FE000
000000
000000
1FE000
010000
092000
092000
092000
092000
092000
092000
092000
092000
112000
112000
010000
000000
000000
ENDCHAR
STARTCHAR U_2EAD
ENCODING 11949
SWIDTH 1000 0
DWIDTH 18 0
BBX 17 18 0 -3
BITMAP
020000
010000
010000
0FE000
002000
004000
008000
014000
032000
050000
090000
010000
010000
010000
010000
010000
000000
000000
ENDCHAR
STARTCHAR U_2EAE
ENCODING 11950
SWIDTH 1000 0
DWIDTH 18 0
BBX 17 18 0 -3
BITMAP
102000
102000
1F3F00
284800
244400
448400
810000
000000
000000
000000
000000
000000
000000
000000
000000
000000
000000
000000
ENDCHAR
STARTCHAR U_2EAF
ENCODING 11951
SWIDTH 1000 0
DWIDTH 18 0
BBX 17 18 0 -3
BITMAP
080000
080000
100000
120000
220000
7C0000
080000
100000
240000
7E0000
020000
000000
2A0000
2A0000
4A0000
800000
000000
000000
ENDCHAR
STARTCHAR U_2EB0
ENCODING 11952
SWIDTH 1000 0
DWIDTH 18 0
BBX 17 18 0 -3
BITMAP
040000
040000
080000
100000
200000
420000
FC0000
080000
100000
200000
460000
F80000
000000
060000
180000
E00000
000000
000000
ENDCHAR
STARTCHAR U_2EB1
ENCODING 11953
SWIDTH 1000 0
DWIDTH 18 0
BBX 17 18 0 -3
BITMAP
000000
000000
FFFF00
800500
8C0500
830900
80D100
806100
83B100
BC1900
000000
000000
000000
000000
000000
000000
000000
000000
ENDCHAR
STARTCHAR U_2EB2
ENCODING 11954
SWIDTH 1000 0
DWIDTH 18 0
BBX 17 18 0 -3
BITMAP
000000
000000
000000
FFFF00
842100
842100
842100
842100
FFFF00
800100
000000
000000
000000
000000
000000
000000
000000
000000
ENDCHAR
STARTCHAR U_2EB3
ENCODING 11955
SWIDTH 1000 0
DWIDTH 18 0
BBX 17 18 0 -3
BITMAP
000000
7FFF00
400100
482200
901400
200800
400400
000000
000000
000000
000000
000000
000000
000000
000000
000000
000000
000000
ENDCHAR
STARTCHAR U_2EB4
ENCODING 11956
SWIDTH 1000 0
DWIDTH 18 0
BBX 17 18 0 -3
BITMAP
000000
7FFE00
444200
444400
844800
044000
044000
044000
044000
044000
084000
084000
104100
104100
202100
C01F00
000000
000000
ENDCHAR
STARTCHAR U_2EB5
ENCODING 11957
SWIDTH 1000 0
DWIDTH 18 0
BBX 17 18 0 -3
BITMAP
000000
000000
3FFE00
222200
222200
222200
222200
222200
222200
222200
222200
222200
222200
200200
000000
000000
000000
000000
ENDCHAR
STARTCHAR U_2EB6
ENCODING 11958
SWIDTH 1000 0
DWIDTH 18 0
BBX 17 18 0 -3
BITMAP
080800
041000
022000
3FFE00
008000
008000
1FF800
008000
010000
7FFF00
020000
040000
080000
100000
200000
C00000
000000
000000
ENDCHAR
STARTCHAR U_2EB7
ENCODING 11959
SWIDTH 1000 0
DWIDTH 18 0
BBX 17 18 0 -3
BITMAP
100400
080800
041000
022000
7FFF00
008000
008000
008000
3FFE00
008000
008000
008000
FFFF80
000000
000000
000000
000000
000000
ENDCHAR
STARTCHAR U_2EB8
ENCODING 11960
SWIDTH 1000 0
DWIDTH 18 0
BBX 17 18 0 -3
BITMAP
022000
022000
022000
7E3F00
022000
022000
000000
7FFF00
008000
008000
008000
3FFE00
008000
008000
008000
008000
000000
000000
ENDCHAR
STARTCHAR U_2EB9
ENCODING 11961
SWIDTH 1000 0
DWIDTH 18 0
BBX 17 18 0 -3
BITMAP
020000
020400
020400
3FF800
021000
022000
024000
FFFF00
010000
020000
040000
080000
300000
C00000
000000
000000
000000
000000
ENDCHAR
STARTCHAR U_2EBA
ENCODING 11962
SWIDTH 1000 0
DWIDTH 18 0
BBX 17 18 0 -3
BITMAP
010000
010000
010000
1FF800
010800
010800
7FFE00
010800
010800
1FF800
010000
010000
010000
010000
010000
010000
010000
000000
ENDCHAR
STARTCHAR U_2EBB
ENCODING 11963
SWIDTH 1000 0
DWIDTH 18 0
BBX 17 18 0 -3
BITMAP
008000
008000
1FFC00
008400
008400
7FFF00
008400
008400
1FFC00
008000
008000
3FFE00
000000
000000
000000
000000
000000
000000
ENDCHAR
STARTCHAR U_2EBD
ENCODING 11965
SWIDTH 1000 0
DWIDTH 18 0
BBX 17 18 0 -3
BITMAP
030000
0C0000
707E00
400200
400200
400200
400200
400200
7E7E00
400200
400200
400200
400200
400200
7E7E00
400200
000000
000000
ENDCHAR
STARTCHAR U_2EBF
ENCODING 11967
SWIDTH 1000 0
DWIDTH 18 0
BBX 17 18 0 -3
BITMAP
000000
100800
100800
FE7F00
100800
100800
000000
000000
000000
000000
000000
000000
000000
000000
000000
000000
000000
000000
ENDCHAR
STARTCHAR U_2F00
ENCODING 12032
SWIDTH 1000 0
DWIDTH 16 0
BBX 14 2 1 6
BITMAP
0008
FFFC
ENDCHAR
STARTCHAR U_2F01
ENCODING 12033
SWIDTH 1000 0
DWIDTH 16 0
BBX 2 15 7 -1
BITMAP
80
C0
80
80
80
80
80
80
80
80
80
80
80
80
80
ENDCHAR
STARTCHAR U_2F02
ENCODING 12034
SWIDTH 1000 0
DWIDTH 16 0
BBX 5 6 5 4
BITMAP
80
40
20
10
08
08
ENDCHAR
STARTCHAR U_2F03
ENCODING 12035
SWIDTH 1000 0
DWIDTH 16 0
BBX 5 15 2 -1
BITMAP
08
08
08
08
08
08
08
08
08
08
10
10
20
40
80
ENDCHAR
STARTCHAR U_2F04
ENCODING 12036
SWIDTH 1000 0
DWIDTH 16 0
BBX 13 13 2 0
BITMAP
0100
FF80
0100
0200
0400
0800
1000
2000
4000
8010
8010
8018
7FF0
ENDCHAR
STARTCHAR U_2F05
ENCODING 12037
SWIDTH 1000 0
DWIDTH 16 0
BBX 4 14 6 -1
BITMAP
10
10
10
10
10
10
10
10
10
10
10
10
F0
10
ENDCHAR
STARTCHAR U_2F06
ENCODING 12038
SWIDTH 1000 0
DWIDTH 16 0
BBX 14 12 1 0
BITMAP
0020
3FF0
0000
0000
0000
0000
0000
0000
0000
0000
0008
FFFC
ENDCHAR
STARTCHAR U_2F07
ENCODING 12039
SWIDTH 1000 0
DWIDTH 16 0
BBX 14 4 1 6
BITMAP
0200
0100
0108
FFFC
ENDCHAR
STARTCHAR U_2F08
ENCODING 12040
SWIDTH 1000 0
DWIDTH 16 0
BBX 14 15 1 -1
BITMAP
0200
0200
0200
0200
0200
0200
0200
0200
0200
0500
0880
1040
2020
401C
8008
ENDCHAR
STARTCHAR U_2F09
ENCODING 12041
SWIDTH 1000 0
DWIDTH 16 0
BBX 15 15 0 -1
BITMAP
0840
0C60
0840
0840
0840
0840
0840
0840
0840
0840
1040
1044
2044
4046
803C
ENDCHAR
STARTCHAR U_2F0A
ENCODING 12042
SWIDTH 1000 0
DWIDTH 16 0
BBX 15 14 0 -1
BITMAP
1E00
0100
0100
0100
0100
0280
0280
0440
0440
0820
1010
200C
4006
8002
ENDCHAR
STARTCHAR U_2F0B
ENCODING 12043
SWIDTH 1000 0
DWIDTH 16 0
BBX 15 15 0 -1
BITMAP
00C0
0040
0040
0640
0440
0440
0420
0820
0820
0810
1010
1008
2004
4006
8002
ENDCHAR
STARTCHAR U_2F0C
ENCODING 12044
SWIDTH 1000 0
DWIDTH 16 0
BBX 13 15 2 -1
BITMAP
8010
FFF8
8010
8010
8010
8010
8010
8010
8010
8010
8010
8010
8090
8070
8020
ENDCHAR
STARTCHAR U_2F0D
ENCODING 12045
SWIDTH 1000 0
DWIDTH 16 0
BBX 14 4 1 5
BITMAP
4004
7FFC
4008
8010
ENDCHAR
STARTCHAR U_2F0E
ENCODING 12046
SWIDTH 1000 0
DWIDTH 16 0
BBX 5 14 5 -1
BITMAP
80
60
20
00
08
10
10
20
20
C0
40
40
40
40
ENDCHAR
STARTCHAR U_2F0F
ENCODING 12047
SWIDTH 1000 0
DWIDTH 16 0
BBX 14 15 1 -1
BITMAP
0040
1FE0
1040
1040
1040
1040
1040
1040
1040
1040
1040
1044
2044
4044
803C
ENDCHAR
STARTCHAR U_2F10
ENCODING 12048
SWIDTH 1000 0
DWIDTH 16 0
BBX 13 14 2 -1
BITMAP
8010
C018
8010
8010
8010
8010
8010
8010
8010
8010
8010
8010
FFF0
8010
ENDCHAR
STARTCHAR U_2F11
ENCODING 12049
SWIDTH 1000 0
DWIDTH 16 0
BBX 14 15 1 -1
BITMAP
0008
7FFC
0208
0208
0208
0208
0208
0208
0408
0408
0808
0808
1088
2070
C020
ENDCHAR
STARTCHAR U_2F12
ENCODING 12050
SWIDTH 1000 0
DWIDTH 16 0
BBX 13 15 1 -1
BITMAP
0200
0200
0200
0210
7FF8
0210
0210
0210
0210
0410
0410
0810
1110
20E0
C040
ENDCHAR
STARTCHAR U_2F13
ENCODING 12051
SWIDTH 1000 0
DWIDTH 16 0
BBX 14 15 1 -1
BITMAP
2000
2000
2008
3FFC
2008
4008
8008
0008
0008
0008
0008
0008
0088
0070
0020
ENDCHAR
STARTCHAR U_2F14
ENCODING 12052
SWIDTH 1000 0
DWIDTH 16 0
BBX 15 15 0 -1
BITMAP
0800
0C00
0800
0810
0820
0840
0980
0A00
0C00
3800
C800
0804
0804
0806
07FC
ENDCHAR
STARTCHAR U_2F15
ENCODING 12053
SWIDTH 1000 0
DWIDTH 16 0
BBX 12 14 2 -1
BITMAP
8020
FFF0
8000
8000
8000
8000
8000
8000
8000
8000
8000
8020
FFF0
8000
ENDCHAR
STARTCHAR U_2F16
ENCODING 12054
SWIDTH 1000 0
DWIDTH 16 0
BBX 13 13 1 -1
BITMAP
FFF8
4000
4000
4000
4000
4000
4000
4000
4000
4000
4000
4010
7FF8
ENDCHAR
STARTCHAR U_2F17
ENCODING 12055
SWIDTH 1000 0
DWIDTH 16 0
BBX 14 15 1 -1
BITMAP
0200
0200
0200
0200
0200
0208
FFFC
0200
0200
0200
0200
0200
0200
0200
0200
ENDCHAR
STARTCHAR U_2F18
ENCODING 12056
SWIDTH 1000 0
DWIDTH 16 0
BBX 7 15 6 -1
BITMAP
80
80
80
80
80
E0
90
8C
86
82
80
80
80
80
80
ENDCHAR
STARTCHAR U_2F19
ENCODING 12057
SWIDTH 1000 0
DWIDTH 16 0
BBX 7 15 5 -1
BITMAP
84
FE
84
84
84
84
84
84
84
9C
88
80
80
80
80
ENDCHAR
STARTCHAR U_2F1A
ENCODING 12058
SWIDTH 1000 0
DWIDTH 16 0
BBX 15 15 0 -1
BITMAP
2004
3FFE
2000
2000
2000
2000
2000
2000
2000
2000
2000
2000
4000
4000
8000
ENDCHAR
STARTCHAR U_2F1B
ENCODING 12059
SWIDTH 1000 0
DWIDTH 16 0
BBX 14 13 0 0
BITMAP
0180
0100
0100
0200
0200
0400
0400
0820
0810
1008
11FC
FE04
4004
ENDCHAR
STARTCHAR U_2F1C
ENCODING 12060
SWIDTH 1000 0
DWIDTH 16 0
BBX 14 14 1 -1
BITMAP
0020
7FF0
1020
1020
0840
0840
0480
0480
0300
0300
0480
0840
303C
C008
ENDCHAR
STARTCHAR U_2F1D
ENCODING 12061
SWIDTH 1000 0
DWIDTH 16 0
BBX 11 13 3 0
BITMAP
8040
FFE0
8040
8040
8040
8040
8040
8040
8040
8040
8040
FFC0
8040
ENDCHAR
STARTCHAR U_2F1E
ENCODING 12062
SWIDTH 1000 0
DWIDTH 16 0
BBX 13 14 2 -1
BITMAP
8010
FFF8
8010
8010
8010
8010
8010
8010
8010
8010
8010
8010
FFF0
8010
ENDCHAR
STARTCHAR U_2F1F
ENCODING 12063
SWIDTH 1000 0
DWIDTH 16 0
BBX 14 15 1 -1
BITMAP
0200
0300
0200
0200
0200
0210
7FF8
0200
0200
0200
0200
0200
0200
0208
FFFC
ENDCHAR
STARTCHAR U_2F20
ENCODING 12064
SWIDTH 1000 0
DWIDTH 16 0
BBX 14 15 1 -1
BITMAP
0200
0300
0200
0200
0200
0208
FFFC
0200
0200
0200
0200
0200
0200
0210
7FF8
ENDCHAR
STARTCHAR U_2F21
ENCODING 12065
SWIDTH 1000 0
DWIDTH 16 0
BBX 14 9 1 5
BITMAP
0800
0820
0FF0
1820
2440
4280
0300
1CE0
E01C
ENDCHAR
STARTCHAR U_2F22
ENCODING 12066
SWIDTH 1000 0
DWIDTH 16 0
BBX 15 15 0 -1
BITMAP
0200
0200
1210
0BF8
0410
0410
0A20
0A20
1140
2140
4080
0140
0620
1818
E006
ENDCHAR
STARTCHAR U_2F23
ENCODING 12067
SWIDTH 1000 0
DWIDTH 16 0
BBX 13 15 1 -1
BITMAP
0400
0400
0410
07F8
0810
0810
1820
2420
4240
8240
0080
0100
0200
0C00
7000
ENDCHAR
STARTCHAR U_2F24
ENCODING 12068
SWIDTH 1000 0
DWIDTH 16 0
BBX 14 15 1 -1
BITMAP
0200
0300
0200
0200
0208
FFFC
0200
0200
0200
0500
0880
1040
2020
401C
8008
ENDCHAR
STARTCHAR U_2F25
ENCODING 12069
SWIDTH 1000 0
DWIDTH 16 0
BBX 14 15 1 -1
BITMAP
0400
0600
0400
0400
0408
FFFC
0840
0840
1040
1040
2080
1D00
0300
0CE0
F01C
ENDCHAR
STARTCHAR U_2F26
ENCODING 12070
SWIDTH 1000 0
DWIDTH 16 0
BBX 14 15 1 -1
BITMAP
0010
7FF8
0020
0040
0180
0100
0108
FFFC
0100
0100
0100
0100
0900
0700
0200
ENDCHAR
STARTCHAR U_2F27
ENCODING 12071
SWIDTH 1000 0
DWIDTH 16 0
BBX 14 6 1 5
BITMAP
0200
0100
4108
7FFC
4008
8010
ENDCHAR
STARTCHAR U_2F28
ENCODING 12072
SWIDTH 1000 0
DWIDTH 16 0
BBX 14 15 1 -1
BITMAP
0040
0040
0040
0048
FFFC
0040
0040
1040
0840
0840
0840
0040
0240
01C0
0080
ENDCHAR
STARTCHAR U_2F29
ENCODING 12073
SWIDTH 1000 0
DWIDTH 16 0
BBX 14 15 1 -1
BITMAP
0100
0100
0100
0100
0100
1920
1110
2108
210C
4104
8104
0100
0900
0700
0200
ENDCHAR
STARTCHAR U_2F2A
ENCODING 12074
SWIDTH 1000 0
DWIDTH 16 0
BBX 15 15 0 -1
BITMAP
0200
0200
0200
0208
FFFC
0200
0200
0280
0280
0480
0484
0884
1084
2086
C07C
ENDCHAR
STARTCHAR U_2F2B
ENCODING 12075
SWIDTH 1000 0
DWIDTH 16 0
BBX 14 15 0 -1
BITMAP
1008
1FFC
1008
1008
1008
1FF8
1008
1000
1000
1000
1000
2000
2000
4000
8000
ENDCHAR
STARTCHAR U_2F2C
ENCODING 12076
SWIDTH 1000 0
DWIDTH 16 0
BBX 13 15 1 -1
BITMAP
0200
0200
0200
4208
4208
4208
4208
4208
7FF8
4208
0200
0200
0400
1800
E000
ENDCHAR
STARTCHAR U_2F2D
ENCODING 12077
SWIDTH 1000 0
DWIDTH 16 0
BBX 13 15 1 -1
BITMAP
0200
0200
0200
0200
8208
8208
8208
8208
8208
8208
8208
8208
8208
FFF8
8008
ENDCHAR
STARTCHAR U_2F2E
ENCODING 12078
SWIDTH 1000 0
DWIDTH 16 0
BBX 13 15 1 -1
BITMAP
0888
0888
1110
1110
2220
2220
4440
8880
4440
2220
1110
1110
0888
0888
0888
ENDCHAR
STARTCHAR U_2F2F
ENCODING 12079
SWIDTH 1000 0
DWIDTH 16 0
BBX 14 13 1 0
BITMAP
0010
7FF8
0200
0200
0200
0200
0200
0200
0200
0200
0200
0208
FFFC
ENDCHAR
STARTCHAR U_2F30
ENCODING 12080
SWIDTH 1000 0
DWIDTH 16 0
BBX 14 15 1 -1
BITMAP
0020
FFF0
0020
0020
0020
0020
7FE0
4020
4000
4000
4000
4008
4008
400C
3FF8
ENDCHAR
STARTCHAR U_2F31
ENCODING 12081
SWIDTH 1000 0
DWIDTH 16 0
BBX 12 15 3 -1
BITMAP
0400
0400
0400
8420
FFF0
8420
8420
8420
8420
8420
8420
85E0
8440
0400
0400
ENDCHAR
STARTCHAR U_2F32
ENCODING 12082
SWIDTH 1000 0
DWIDTH 16 0
BBX 14 15 1 -1
BITMAP
0010
7FF8
0200
0200
0200
0200
0208
FFFC
0200
0200
0200
0200
0200
0200
0200
ENDCHAR
STARTCHAR U_2F33
ENCODING 12083
SWIDTH 1000 0
DWIDTH 16 0
BBX 13 14 1 -1
BITMAP
0600
0400
0800
0860
1040
2080
FF00
4200
0400
0840
1020
27D0
F818
4008
ENDCHAR
STARTCHAR U_2F34
ENCODING 12084
SWIDTH 1000 0
DWIDTH 16 0
BBX 15 15 0 -1
BITMAP
0100
0080
0084
1FFE
1000
1000
1000
1000
1000
1000
1000
2000
2000
4000
8000
ENDCHAR
STARTCHAR U_2F35
ENCODING 12085
SWIDTH 1000 0
DWIDTH 16 0
BBX 15 15 0 -1
BITMAP
0800
7C00
0800
0800
1000
2400
3E00
0400
8400
4400
2800
1000
2800
C406
83FC
ENDCHAR
STARTCHAR U_2F36
ENCODING 12086
SWIDTH 1000 0
DWIDTH 16 0
BBX 14 15 1 -1
BITMAP
0820
0820
0820
0820
0820
0820
FFFC
0820
0820
0820
0820
1020
1020
2020
4020
ENDCHAR
STARTCHAR U_2F37
ENCODING 12087
SWIDTH 1000 0
DWIDTH 16 0
BBX 14 15 1 -1
BITMAP
0240
0230
0210
0200
023C
03C0
FE00
6100
0100
0100
0080
0084
0044
0024
001C
ENDCHAR
STARTCHAR U_2F38
ENCODING 12088
SWIDTH 1000 0
DWIDTH 16 0
BBX 12 15 2 -1
BITMAP
0040
FFE0
0040
0040
0040
7FC0
4000
4020
FFF0
0020
0020
0020
0420
03C0
0080
ENDCHAR
STARTCHAR U_2F39
ENCODING 12089
SWIDTH 1000 0
DWIDTH 16 0
BBX 12 15 2 -1
BITMAP
0020
FFF0
0020
0020
0020
0020
0020
7FE0
0020
0020
0020
0020
0020
FFE0
0020
ENDCHAR
STARTCHAR U_2F3A
ENCODING 12090
SWIDTH 1000 0
DWIDTH 16 0
BBX 6 15 5 -1
BITMAP
18
10
20
40
80
18
10
20
40
8C
08
10
20
40
80
ENDCHAR
STARTCHAR U_2F3B
ENCODING 12091
SWIDTH 1000 0
DWIDTH 16 0
BBX 7 15 3 -1
BITMAP
06
04
08
10
26
44
08
18
28
48
88
08
08
08
08
ENDCHAR
STARTCHAR U_2F3C
ENCODING 12092
SWIDTH 1000 0
DWIDTH 16 0
BBX 15 15 0 -1
BITMAP
0100
0080
00C0
0040
0400
0400
2408
2404
2406
2402
4400
8410
0410
0418
03F0
ENDCHAR
STARTCHAR U_2F3D
ENCODING 12093
SWIDTH 1000 0
DWIDTH 16 0
BBX 14 15 1 -1
BITMAP
0400
0480
0440
0400
0438
05C0
FE00
0430
0420
0440
0280
0304
0488
1848
E03C
ENDCHAR
STARTCHAR U_2F3E
ENCODING 12094
SWIDTH 1000 0
DWIDTH 16 0
BBX 14 15 0 -1
BITMAP
0010
1038
1FC0
1008
1FFC
1008
1008
1008
1FF8
1008
1000
2000
2000
4000
8000
ENDCHAR
STARTCHAR U_2F3F
ENCODING 12095
SWIDTH 1000 0
DWIDTH 16 0
BBX 14 15 1 -1
BITMAP
0020
00F0
FF00
0200
0220
7FF0
0200
0208
FFFC
0200
0200
0200
1200
0E00
0400
ENDCHAR
STARTCHAR U_2F40
ENCODING 12096
SWIDTH 1000 0
DWIDTH 16 0
BBX 14 15 1 -1
BITMAP
0100
0100
0108
FFFC
0100
0120
3FF0
0820
0820
0440
0280
0100
0280
0C60
701C
ENDCHAR
STARTCHAR U_2F41
ENCODING 12097
SWIDTH 1000 0
DWIDTH 16 0
BBX 14 15 1 -1
BITMAP
0200
0200
0208
03FC
0200
0220
7FF0
1020
0840
0840
0480
0300
0300
1CE0
E01C
ENDCHAR
STARTCHAR U_2F42
ENCODING 12098
SWIDTH 1000 0
DWIDTH 16 0
BBX 14 15 1 -1
BITMAP
0200
0100
0108
FFFC
1040
1040
1040
0880
0880
0480
0500
0300
0CC0
3030
C00C
ENDCHAR
STARTCHAR U_2F43
ENCODING 12099
SWIDTH 1000 0
DWIDTH 16 0
BBX 14 15 1 -1
BITMAP
0040
1040
0840
0440
0440
1040
0840
0440
0448
007C
07C0
F840
4040
0040
0040
ENDCHAR
STARTCHAR U_2F44
ENCODING 12100
SWIDTH 1000 0
DWIDTH 16 0
BBX 15 15 0 -1
BITMAP
0020
1070
1F80
1000
1000
1004
1FFE
1040
1040
1040
1040
2040
2040
4040
8040
ENDCHAR
STARTCHAR U_2F45
ENCODING 12101
SWIDTH 1000 0
DWIDTH 16 0
BBX 14 15 1 -1
BITMAP
0200
0100
0108
FFFC
0400
0400
0410
07F8
0410
0410
0410
0810
1110
20E0
C040
ENDCHAR
STARTCHAR U_2F46
ENCODING 12102
SWIDTH 1000 0
DWIDTH 16 0
BBX 14 15 1 -1
BITMAP
0010
3FF8
0200
0200
0200
0208
FFFC
0480
0480
0480
0480
0884
1084
2084
C07C
ENDCHAR
STARTCHAR U_2F47
ENCODING 12103
SWIDTH 1000 0
DWIDTH 16 0
BBX 10 15 3 -1
BITMAP
8080
FFC0
8080
8080
8080
8080
8080
FF80
8080
8080
8080
8080
8080
FF80
8080
ENDCHAR
STARTCHAR U_2F48
ENCODING 12104
SWIDTH 1000 0
DWIDTH 16 0
BBX 12 13 2 0
BITMAP
8020
FFF0
8020
8020
8020
8020
FFE0
8020
8020
8020
8020
FFE0
8020
ENDCHAR
STARTCHAR U_2F49
ENCODING 12105
SWIDTH 1000 0
DWIDTH 16 0
BBX 12 15 1 -1
BITMAP
1020
1FF0
1020
1020
1020
1FE0
1020
1020
1020
1FE0
1020
1020
2120
40E0
8040
ENDCHAR
STARTCHAR U_2F4A
ENCODING 12106
SWIDTH 1000 0
DWIDTH 16 0
BBX 14 15 1 -1
BITMAP
0100
0100
0100
0108
FFFC
0100
0500
0540
0940
0920
1120
1110
210C
C108
0100
ENDCHAR
STARTCHAR U_2F4B
ENCODING 12107
SWIDTH 1000 0
DWIDTH 16 0
BBX 14 15 1 -1
BITMAP
1000
1000
1008
1FFC
2010
4220
8200
0200
0200
0200
0300
0480
0840
3030
C00C
ENDCHAR
STARTCHAR U_2F4C
ENCODING 12108
SWIDTH 1000 0
DWIDTH 16 0
BBX 14 15 1 -1
BITMAP
0100
0100
0100
0100
0100
1110
11F8
1100
1100
1100
1100
1100
1100
1108
FFFC
ENDCHAR
STARTCHAR U_2F4D
ENCODING 12109
SWIDTH 1000 0
DWIDTH 16 0
BBX 14 15 1 -1
BITMAP
0008
FFFC
0400
0400
0420
07F0
0820
1820
2440
4240
8280
0100
0200
0C00
F000
ENDCHAR
STARTCHAR U_2F4E
ENCODING 12110
SWIDTH 1000 0
DWIDTH 16 0
BBX 13 15 1 -1
BITMAP
0840
0FE0
0840
0840
0840
1040
2038
4000
3FF0
1020
0840
0480
0300
1CE0
E018
ENDCHAR
STARTCHAR U_2F4F
ENCODING 12111
SWIDTH 1000 0
DWIDTH 16 0
BBX 14 15 1 -1
BITMAP
0010
3FF8
2110
2110
2110
2110
FFFC
2210
2210
4210
4410
FFFC
0820
13E0
6040
ENDCHAR
STARTCHAR U_2F50
ENCODING 12112
SWIDTH 1000 0
DWIDTH 16 0
BBX 13 15 2 -1
BITMAP
0100
4100
4100
4100
4130
4920
7D40
4180
4100
4100
4100
4110
4D10
F118
40F0
ENDCHAR
STARTCHAR U_2F51
ENCODING 12113
SWIDTH 1000 0
DWIDTH 16 0
BBX 14 15 1 -1
BITMAP
0020
0070
7F80
0200
0200
0238
7FC0
0200
021C
03E0
FE00
0204
0204
0204
01FC
ENDCHAR
STARTCHAR U_2F52
ENCODING 12114
SWIDTH 1000 0
DWIDTH 16 0
BBX 14 15 1 -1
BITMAP
0020
2070
3F80
2100
2100
2110
3FF8
2100
2100
2100
2100
2484
2844
F024
401C
ENDCHAR
STARTCHAR U_2F53
ENCODING 12115
SWIDTH 1000 0
DWIDTH 16 0
BBX 15 15 0 -1
BITMAP
0800
0808
0FFC
1000
2FF0
4000
BFF0
0010
0010
0010
0010
0012
000A
0006
0002
ENDCHAR
STARTCHAR U_2F54
ENCODING 12116
SWIDTH 1000 0
DWIDTH 16 0
BBX 15 15 0 -1
BITMAP
0100
0100
0100
0118
0110
7D20
0540
0580
0940
0920
1110
210C
4906
8702
0200
ENDCHAR
STARTCHAR U_2F55
ENCODING 12117
SWIDTH 1000 0
DWIDTH 16 0
BBX 14 15 1 -1
BITMAP
0100
0100
0100
0100
1118
1110
1120
2140
4180
0100
0300
0480
0840
3030
C00C
ENDCHAR
STARTCHAR U_2F56
ENCODING 12118
SWIDTH 1000 0
DWIDTH 16 0
BBX 15 15 0 -1
BITMAP
0010
1038
1FE0
1120
1120
1120
1120
1120
1110
1110
1110
2108
2108
4106
8102
ENDCHAR
STARTCHAR U_2F57
ENCODING 12119
SWIDTH 1000 0
DWIDTH 16 0
BBX 14 15 1 -1
BITMAP
0880
0840
1020
2018
4008
8040
0840
0880
0480
0500
0300
0300
0480
1860
601C
ENDCHAR
STARTCHAR U_2F58
ENCODING 12120
SWIDTH 1000 0
DWIDTH 16 0
BBX 13 15 2 -1
BITMAP
0060
6040
1880
0700
08C0
3030
C090
1080
1100
0900
0A00
0600
0B00
30C0
C038
ENDCHAR
STARTCHAR U_2F59
ENCODING 12121
SWIDTH 1000 0
DWIDTH 16 0
BBX 10 15 2 -1
BITMAP
0040
1040
1040
1040
1040
1FC0
0040
0040
FFC0
1040
1040
1040
1040
2040
C040
ENDCHAR
STARTCHAR U_2F5A
ENCODING 12122
SWIDTH 1000 0
DWIDTH 16 0
BBX 14 15 1 -1
BITMAP
2080
2080
2080
2080
2088
3FFC
2000
2040
3FE0
2040
2040
2040
2040
4040
8040
ENDCHAR
STARTCHAR U_2F5B
ENCODING 12123
SWIDTH 1000 0
DWIDTH 16 0
BBX 14 15 1 -1
BITMAP
0008
FFFC
0080
1080
1080
2088
7FFC
0280
0480
0880
1080
2080
4480
8380
0100
ENDCHAR
STARTCHAR U_2F5C
ENCODING 12124
SWIDTH 1000 0
DWIDTH 16 0
BBX 14 15 1 -1
BITMAP
0100
0100
2100
2110
3FF8
2100
4100
8100
0108
FFFC
0100
0100
0100
0100
0100
ENDCHAR
STARTCHAR U_2F5D
ENCODING 12125
SWIDTH 1000 0
DWIDTH 16 0
BBX 14 15 1 -1
BITMAP
0200
0340
0220
0220
0208
FFFC
0200
0200
0200
0500
0880
1040
2020
401C
8008
ENDCHAR
STARTCHAR U_2F5E
ENCODING 12126
SWIDTH 1000 0
DWIDTH 16 0
BBX 14 15 1 -1
BITMAP
0200
0100
0108
FFFC
0200
0200
0460
0BC0
3C80
1100
0200
0420
0BF0
3C18
1008
ENDCHAR
STARTCHAR U_2F5F
ENCODING 12127
SWIDTH 1000 0
DWIDTH 16 0
BBX 14 14 1 -1
BITMAP
0010
7FF8
0200
0200
0200
0220
3FF0
0200
0240
0220
0220
0200
0208
FFFC
ENDCHAR
STARTCHAR U_2F60
ENCODING 12128
SWIDTH 1000 0
DWIDTH 16 0
BBX 15 15 0 -1
BITMAP
0008
103C
1FE0
1120
1120
1120
1120
1120
1110
1110
1150
1148
2148
43A6
8122
ENDCHAR
STARTCHAR U_2F61
ENCODING 12129
SWIDTH 1000 0
DWIDTH 16 0
BBX 14 15 1 -1
BITMAP
0008
FFFC
0800
0800
0840
0FE0
1040
1440
1240
1240
2040
2044
2644
F844
403C
ENDCHAR
STARTCHAR U_2F62
ENCODING 12130
SWIDTH 1000 0
DWIDTH 16 0
BBX 14 15 1 -1
BITMAP
1020
1020
1028
FFFC
1020
1020
1020
1020
1FE0
1020
1020
1020
1020
1FE0
1020
ENDCHAR
STARTCHAR U_2F63
ENCODING 12131
SWIDTH 1000 0
DWIDTH 16 0
BBX 14 15 1 -1
BITMAP
0100
2100
2100
2110
3FF8
2100
4100
8100
0120
3FF0
0100
0100
0100
0108
FFFC
ENDCHAR
STARTCHAR U_2F64
ENCODING 12132
SWIDTH 1000 0
DWIDTH 16 0
BBX 15 15 0 -1
BITMAP
1004
1FFE
1084
1084
1084
1FFC
1084
1084
1084
1FFC
1084
2084
20A4
409C
8088
ENDCHAR
STARTCHAR U_2F65
ENCODING 12133
SWIDTH 1000 0
DWIDTH 16 0
BBX 13 14 2 -1
BITMAP
8010
FFF8
8210
8210
8210
8210
FFF0
8210
8210
8210
8210
8210
FFF0
8010
ENDCHAR
STARTCHAR U_2F66
ENCODING 12134
SWIDTH 1000 0
DWIDTH 16 0
BBX 15 15 0 -1
BITMAP
0004
7FFE
0084
0088
0080
1080
1088
10FC
1080
1080
1880
1480
2280
C180
80FE
ENDCHAR
STARTCHAR U_2F67
ENCODING 12135
SWIDTH 1000 0
DWIDTH 16 0
BBX 14 15 1 -1
BITMAP
0100
1088
1FFC
9000
5000
5000
1000
3000
D000
9000
1000
2000
2000
4000
8000
ENDCHAR
STARTCHAR U_2F68
ENCODING 12136
SWIDTH 1000 0
DWIDTH 16 0
BBX 14 9 1 5
BITMAP
0010
FE20
0544
4488
2850
1020
2010
4008
8004
ENDCHAR
STARTCHAR U_2F69
ENCODING 12137
SWIDTH 1000 0
DWIDTH 16 0
BBX 11 15 3 -1
BITMAP
0800
0800
9040
FFE0
8040
8040
8040
8040
FFC0
8040
8040
8040
8040
FFC0
8040
ENDCHAR
STARTCHAR U_2F6A
ENCODING 12138
SWIDTH 1000 0
DWIDTH 16 0
BBX 15 15 0 -1
BITMAP
0080
0080
1084
1FFE
1084
1088
1080
1FF8
1210
1210
1120
20C0
20C0
4330
9C0E
ENDCHAR
STARTCHAR U_2F6B
ENCODING 12139
SWIDTH 1000 0
DWIDTH 16 0
BBX 14 13 1 0
BITMAP
2010
3FF8
2490
2490
2490
2490
2490
2490
2490
2490
2490
2490
FFFC
ENDCHAR
STARTCHAR U_2F6C
ENCODING 12140
SWIDTH 1000 0
DWIDTH 16 0
BBX 10 15 3 -1
BITMAP
8080
FFC0
8080
8080
8080
FF80
8080
8080
8080
FF80
8080
8080
8080
FF80
8080
ENDCHAR
STARTCHAR U_2F6D
ENCODING 12141
SWIDTH 1000 0
DWIDTH 16 0
BBX 14 15 1 -1
BITMAP
0020
3FF0
0040
0680
0100
0108
FFFC
0310
0520
0900
1100
2100
4900
8700
0200
ENDCHAR
STARTCHAR U_2F6E
ENCODING 12142
SWIDTH 1000 0
DWIDTH 16 0
BBX 14 15 1 -1
BITMAP
1000
1000
1010
1FF8
2100
4100
0100
0108
FFFC
0100
0280
0440
0820
301C
C008
ENDCHAR
STARTCHAR U_2F6F
ENCODING 12143
SWIDTH 1000 0
DWIDTH 16 0
BBX 14 14 1 -1
BITMAP
0008
FFFC
0200
0200
0400
0810
1FF8
2810
4810
8810
0810
0810
0FF0
0810
ENDCHAR
STARTCHAR U_2F70
ENCODING 12144
SWIDTH 1000 0
DWIDTH 16 0
BBX 14 15 1 -1
BITMAP
0020
3FF0
0000
0000
0000
0008
FFFC
0100
1940
1120
2110
4108
8908
0700
0200
ENDCHAR
STARTCHAR U_2F71
ENCODING 12145
SWIDTH 1000 0
DWIDTH 16 0
BBX 13 15 2 -1
BITMAP
0400
0400
8410
FFF8
8410
8810
8910
8890
93D0
FC50
A050
8010
8010
80F0
8020
ENDCHAR
STARTCHAR U_2F72
ENCODING 12146
SWIDTH 1000 0
DWIDTH 16 0
BBX 14 15 1 -1
BITMAP
0010
0078
3F80
0100
0100
0108
FFFC
0100
0380
0540
0920
1110
210C
C104
0100
ENDCHAR
STARTCHAR U_2F73
ENCODING 12147
SWIDTH 1000 0
DWIDTH 16 0
BBX 14 15 1 -1
BITMAP
0200
0100
4104
7FFC
4008
8010
0880
0880
0880
0840
1040
1020
2010
4018
800C
ENDCHAR
STARTCHAR U_2F74
ENCODING 12148
SWIDTH 1000 0
DWIDTH 16 0
BBX 14 14 1 0
BITMAP
0400
0200
0100
0110
7FF8
0000
1020
1020
0840
0840
0480
0480
0108
FFFC
ENDCHAR
STARTCHAR U_2F75
ENCODING 12149
SWIDTH 1000 0
DWIDTH 16 0
BBX 15 15 0 -1
BITMAP
1000
1060
1040
1244
1F7E
2890
4910
8A10
0810
0810
0810
0810
0890
0870
0820
ENDCHAR
STARTCHAR U_2F76
ENCODING 12150
SWIDTH 1000 0
DWIDTH 16 0
BBX 14 15 1 -1
BITMAP
0100
2118
1110
1920
0940
0188
FFFC
0500
0580
0940
1120
2110
410C
8104
0100
ENDCHAR
STARTCHAR U_2F77
ENCODING 12151
SWIDTH 1000 0
DWIDTH 16 0
BBX 13 15 2 -1
BITMAP
0600
0400
08C0
1080
7F00
2200
0480
0840
FFF0
4210
0200
3240
2220
4218
8208
ENDCHAR
STARTCHAR U_2F78
ENCODING 12152
SWIDTH 1000 0
DWIDTH 16 0
BBX 14 15 1 -1
BITMAP
1000
1000
1010
1FF8
2100
4100
0108
FFFC
0100
2108
2108
2108
2108
3FF8
2008
ENDCHAR
STARTCHAR U_2F79
ENCODING 12153
SWIDTH 1000 0
DWIDTH 16 0
BBX 13 15 2 -1
BITMAP
8010
FFF8
8010
8450
8450
AA50
9190
8890
9490
A550
C250
8410
8090
8070
8020
ENDCHAR
STARTCHAR U_2F7A
ENCODING 12154
SWIDTH 1000 0
DWIDTH 16 0
BBX 14 15 1 -1
BITMAP
1060
0840
0488
FFFC
0200
0200
0220
3FF0
0200
0208
FFFC
0200
0200
0200
0200
ENDCHAR
STARTCHAR U_2F7B
ENCODING 12155
SWIDTH 1000 0
DWIDTH 16 0
BBX 14 15 1 -1
BITMAP
0408
FFFC
0408
4488
2448
2448
0408
0C18
3468
C588
0408
0408
2448
1C38
0810
ENDCHAR
STARTCHAR U_2F7C
ENCODING 12156
SWIDTH 1000 0
DWIDTH 16 0
BBX 14 15 1 -1
BITMAP
0200
0200
0218
7FD0
0220
0248
FFFC
0100
0200
0C60
1980
2E08
C808
080C
07F8
ENDCHAR
STARTCHAR U_2F7D
ENCODING 12157
SWIDTH 1000 0
DWIDTH 16 0
BBX 14 15 1 -1
BITMAP
0008
FFFC
0100
0100
4208
7FFC
4488
4488
4488
4488
4488
4488
4488
44B8
4010
ENDCHAR
STARTCHAR U_2F7E
ENCODING 12158
SWIDTH 1000 0
DWIDTH 16 0
BBX 15 15 0 -1
BITMAP
0100
0104
FFFE
0100
0110
3FF8
0100
0104
FFFE
0540
0520
0910
110C
2106
C102
ENDCHAR
STARTCHAR U_2F7F
ENCODING 12159
SWIDTH 1000 0
DWIDTH 16 0
BBX 14 15 1 -1
BITMAP
0008
FFFC
1040
1040
1FC0
1040
1040
1040
1FC0
1048
107C
1FC0
F040
0040
0040
ENDCHAR
STARTCHAR U_2F80
ENCODING 12160
SWIDTH 1000 0
DWIDTH 16 0
BBX 14 15 1 -1
BITMAP
0200
0210
3FF8
0210
FFFC
0210
3FF0
0210
0200
7FF0
0208
FFFC
0200
0200
0200
ENDCHAR
STARTCHAR U_2F81
ENCODING 12161
SWIDTH 1000 0
DWIDTH 16 0
BBX 13 15 2 -1
BITMAP
0400
0400
8410
FFF8
8410
8610
8910
90D0
A450
8410
8610
8910
9090
A070
8020
ENDCHAR
STARTCHAR U_2F82
ENCODING 12162
SWIDTH 1000 0
DWIDTH 16 0
BBX 13 15 2 -1
BITMAP
8020
FFF0
8400
8400
8420
FFF0
8020
8020
8020
FFE0
8420
8400
8410
FFF8
8000
ENDCHAR
STARTCHAR U_2F83
ENCODING 12163
SWIDTH 1000 0
DWIDTH 16 0
BBX 11 15 3 -1
BITMAP
0C00
0800
1040
FFE0
8040
8040
FFC0
8040
8040
8040
FFC0
8040
8040
FFC0
8040
ENDCHAR
STARTCHAR U_2F84
ENCODING 12164
SWIDTH 1000 0
DWIDTH 16 0
BBX 14 15 1 -1
BITMAP
0008
FFFC
0200
0400
0840
1020
FFF0
4208
0200
0210
7FF8
0200
0200
0208
FFFC
ENDCHAR
STARTCHAR U_2F85
ENCODING 12165
SWIDTH 1000 0
DWIDTH 16 0
BBX 13 15 2 -1
BITMAP
0800
9C10
E1F8
8010
8010
8010
8010
F9F0
8010
8010
8010
8010
8010
FFF0
8010
ENDCHAR
STARTCHAR U_2F86
ENCODING 12166
SWIDTH 1000 0
DWIDTH 16 0
BBX 14 15 1 -1
BITMAP
0020
00F0
7F00
0100
0108
FFFC
0100
0100
1110
1FF8
1010
1010
1010
1FF0
1010
ENDCHAR
STARTCHAR U_2F87
ENCODING 12167
SWIDTH 1000 0
DWIDTH 16 0
BBX 14 15 1 -1
BITMAP
2020
2020
2020
2428
3EFC
2420
44A0
A4A0
1520
15FC
0820
1020
2020
4020
8020
ENDCHAR
STARTCHAR U_2F88
ENCODING 12168
SWIDTH 1000 0
DWIDTH 16 0
BBX 14 15 1 -1
BITMAP
0200
0200
1420
1FF0
1220
1120
1120
1028
FFFC
1220
1120
1120
1020
21E0
4040
ENDCHAR
STARTCHAR U_2F89
ENCODING 12169
SWIDTH 1000 0
DWIDTH 16 0
BBX 14 15 1 -1
BITMAP
2020
3FF0
2020
2020
3FE0
2020
2020
3FE0
2400
2218
2260
2180
2CC0
F030
400C
ENDCHAR
STARTCHAR U_2F8A
ENCODING 12170
SWIDTH 1000 0
DWIDTH 16 0
BBX 14 15 1 -1
BITMAP
0800
0840
0FE0
1080
2110
7FF8
A210
2210
2210
3FF0
2010
2004
2004
2004
1FFC
ENDCHAR
STARTCHAR U_2F8B
ENCODING 12171
SWIDTH 1000 0
DWIDTH 16 0
BBX 13 15 1 -1
BITMAP
1020
1020
1020
54A8
54A8
54A8
54A8
54A8
54A8
7CF8
54A8
1020
2020
4020
8020
ENDCHAR
STARTCHAR U_2F8C
ENCODING 12172
SWIDTH 1000 0
DWIDTH 16 0
BBX 15 15 0 -1
BITMAP
0100
01FC
0100
0100
3FFE
2002
2104
2110
2138
21C0
2F00
2102
2102
4102
80FE
ENDCHAR
STARTCHAR U_2F8D
ENCODING 12173
SWIDTH 1000 0
DWIDTH 16 0
BBX 14 15 1 -1
BITMAP
0100
0100
0100
2110
3FF8
2110
2110
2110
3FF0
2110
0100
0110
0108
FFFC
6004
ENDCHAR
STARTCHAR U_2F8E
ENCODING 12174
SWIDTH 1000 0
DWIDTH 16 0
BBX 14 14 1 0
BITMAP
0180
0100
0200
2410
3FF8
2490
2490
2490
2490
2490
2490
2490
2490
FFFC
ENDCHAR
STARTCHAR U_2F8F
ENCODING 12175
SWIDTH 1000 0
DWIDTH 16 0
BBX 15 15 0 -1
BITMAP
1808
11FC
2000
4000
0C04
0BFE
1010
3010
5010
9010
1010
1010
1090
1070
1020
ENDCHAR
STARTCHAR U_2F90
ENCODING 12176
SWIDTH 1000 0
DWIDTH 16 0
BBX 14 15 1 -1
BITMAP
0200
0100
0108
FFFC
0300
0518
0910
18A0
28C0
4880
8840
0920
0A10
1C0C
0804
ENDCHAR
STARTCHAR U_2F91
ENCODING 12177
SWIDTH 1000 0
DWIDTH 16 0
BBX 14 15 1 -1
BITMAP
0008
FFFC
0440
0440
4448
7FFC
4448
4448
4448
4448
47C8
4448
4008
4008
4008
ENDCHAR
STARTCHAR U_2F92
ENCODING 12178
SWIDTH 1000 0
DWIDTH 16 0
BBX 15 15 0 -1
BITMAP
0020
1FF0
1020
1020
1FE0
1020
1020
1FE0
1020
1020
1FE0
14A4
0884
3086
C07C
ENDCHAR
STARTCHAR U_2F93
ENCODING 12179
SWIDTH 1000 0
DWIDTH 16 0
BBX 14 15 1 -1
BITMAP
0840
0FE0
0840
1088
3FFC
5108
9108
1FF8
1108
1108
1FF8
2108
2108
4138
8110
ENDCHAR
STARTCHAR U_2F94
ENCODING 12180
SWIDTH 1000 0
DWIDTH 16 0
BBX 15 15 0 -1
BITMAP
0200
0104
FFFE
0000
0000
1FF0
0000
1FF0
0000
1010
1FF8
1010
1010
1FF0
1010
ENDCHAR
STARTCHAR U_2F95
ENCODING 12181
SWIDTH 1000 0
DWIDTH 16 0
BBX 14 15 1 -1
BITMAP
0880
0840
1020
2018
4308
0480
0840
3030
C00C
1FE0
1020
1020
1020
1FE0
1020
ENDCHAR
STARTCHAR U_2F96
ENCODING 12182
SWIDTH 1000 0
DWIDTH 16 0
BBX 14 15 1 -1
BITMAP
0010
7FF8
0000
1020
1FF0
1020
1020
1020
1FE0
1020
08C0
0880
0480
0508
FFFC
ENDCHAR
STARTCHAR U_2F97
ENCODING 12183
SWIDTH 1000 0
DWIDTH 16 0
BBX 14 15 1 -1
BITMAP
0008
FFFC
0200
0400
0818
3410
C620
0940
3380
C540
0920
311C
C108
0900
0600
ENDCHAR
STARTCHAR U_2F98
ENCODING 12184
SWIDTH 1000 0
DWIDTH 16 0
BBX 11 15 3 -1
BITMAP
0300
0600
0C40
32E0
D100
0E00
1900
6300
8480
1980
E280
0480
1880
E900
0600
ENDCHAR
STARTCHAR U_2F99
ENCODING 12185
SWIDTH 1000 0
DWIDTH 16 0
BBX 13 15 2 -1
BITMAP
2020
3FF0
2020
2020
3FE0
2020
2020
3FE0
2020
2020
3FE0
2020
0D80
3060
C018
ENDCHAR
STARTCHAR U_2F9A
ENCODING 12186
SWIDTH 1000 0
DWIDTH 16 0
BBX 14 15 1 -1
BITMAP
0100
0100
0110
3FF8
0100
0108
FFFC
0480
2490
2488
4488
4884
8884
1380
6100
ENDCHAR
STARTCHAR U_2F9B
ENCODING 12187
SWIDTH 1000 0
DWIDTH 16 0
BBX 14 15 1 -1
BITMAP
0200
0200
0220
3FF0
0200
0208
FFFC
0200
1200
1210
13F8
1200
2A00
4600
81FC
ENDCHAR
STARTCHAR U_2F9C
ENCODING 12188
SWIDTH 1000 0
DWIDTH 16 0
BBX 14 15 1 -1
BITMAP
1020
1FF0
1020
1020
1020
1FE0
1120
0100
1110
11F8
1100
2900
2500
430C
81F8
ENDCHAR
STARTCHAR U_2F9D
ENCODING 12189
SWIDTH 1000 0
DWIDTH 16 0
BBX 14 15 1 -1
BITMAP
0100
1220
1FF0
1020
1FE0
1020
102C
1FE8
1030
FFE0
00A0
0320
0C20
31E0
C040
ENDCHAR
STARTCHAR U_2F9E
ENCODING 12190
SWIDTH 1000 0
DWIDTH 16 0
BBX 14 15 1 -1
BITMAP
0200
0208
FFFC
0200
2210
3FF8
2210
3FF0
2210
3FF0
2210
0208
FFFC
0200
0200
ENDCHAR
STARTCHAR U_2F9F
ENCODING 12191
SWIDTH 1000 0
DWIDTH 16 0
BBX 14 15 1 -1
BITMAP
0200
0110
7FF8
1040
0840
0480
0488
FFFC
0200
0210
7FF8
0200
0200
0200
0200
ENDCHAR
STARTCHAR U_2FA0
ENCODING 12192
SWIDTH 1000 0
DWIDTH 16 0
BBX 15 15 0 -1
BITMAP
1004
1FFE
1000
1010
17F8
1000
1004
1FFE
1240
1248
1250
2220
2290
4F08
8406
ENDCHAR
STARTCHAR U_2FA1
ENCODING 12193
SWIDTH 1000 0
DWIDTH 16 0
BBX 15 15 0 -1
BITMAP
0060
0180
1E38
00C0
1F18
0060
1F80
0080
1080
1088
18FC
1480
2280
4180
807E
ENDCHAR
STARTCHAR U_2FA2
ENCODING 12194
SWIDTH 1000 0
DWIDTH 16 0
BBX 13 15 2 -1
BITMAP
7FC0
4040
4040
7FC0
4040
0000
FFE0
8420
8420
FFE0
8020
8010
8010
8018
7FF0
ENDCHAR
STARTCHAR U_2FA3
ENCODING 12195
SWIDTH 1000 0
DWIDTH 16 0
BBX 14 15 1 -1
BITMAP
0008
FFFC
0480
2488
3FFC
2488
2488
2488
2878
3008
2008
3FF8
2008
3FF8
2008
ENDCHAR
STARTCHAR U_2FA4
ENCODING 12196
SWIDTH 1000 0
DWIDTH 16 0
BBX 14 15 1 -1
BITMAP
0060
01F0
7E00
0220
2220
1240
1288
FFFC
0700
0A80
1240
2220
421C
8208
0200
ENDCHAR
STARTCHAR U_2FA5
ENCODING 12197
SWIDTH 1000 0
DWIDTH 16 0
BBX 14 15 1 -1
BITMAP
2010
3FF8
2210
2210
3FF0
2210
2210
3FF0
2210
0200
0210
7FF8
0200
0208
FFFC
ENDCHAR
STARTCHAR U_2FA6
ENCODING 12198
SWIDTH 1000 0
DWIDTH 16 0
BBX 14 15 1 -1
BITMAP
0100
0300
0480
0840
1020
2010
DFEC
0200
0210
7FF8
0200
2230
1220
1248
FFFC
ENDCHAR
STARTCHAR U_2FA7
ENCODING 12199
SWIDTH 1000 0
DWIDTH 16 0
BBX 14 15 1 -1
BITMAP
1020
1FF0
1000
1FE0
1000
1FE0
1000
1008
FFFC
1110
10A0
1040
1320
1C1C
7008
ENDCHAR
STARTCHAR U_2FA8
ENCODING 12200
SWIDTH 1000 0
DWIDTH 16 0
BBX 13 15 1 -1
BITMAP
FDF8
8508
8508
FDF8
8508
8508
FDF8
8008
8008
8008
8008
8008
8048
8038
8010
ENDCHAR
STARTCHAR U_2FA9
ENCODING 12201
SWIDTH 1000 0
DWIDTH 16 0
BBX 14 15 1 -1
BITMAP
0200
2420
3FF0
2020
3FE0
2000
3FF0
2010
3FF0
2110
0108
FFFC
0100
0100
0100
ENDCHAR
STARTCHAR U_2FAA
ENCODING 12202
SWIDTH 1000 0
DWIDTH 16 0
BBX 14 15 1 -1
BITMAP
0200
0220
7FF0
0220
FFFC
0220
7FE0
0220
6310
1320
0EC0
1240
E230
4E0C
0400
ENDCHAR
STARTCHAR U_2FAB
ENCODING 12203
SWIDTH 1000 0
DWIDTH 16 0
BBX 14 15 1 -1
BITMAP
0900
0880
0888
1FFC
1080
3080
5090
9FF8
1080
1090
1FF8
1080
1088
1FFC
1000
ENDCHAR
STARTCHAR U_2FAC
ENCODING 12204
SWIDTH 1000 0
DWIDTH 16 0
BBX 14 15 1 -1
BITMAP
0008
FFFC
0200
4208
7FFC
4208
5288
4A48
4A48
4208
5288
4A48
4A48
4238
4210
ENDCHAR
STARTCHAR U_2FAD
ENCODING 12205
SWIDTH 1000 0
DWIDTH 16 0
BBX 15 15 0 -1
BITMAP
0104
FFFE
0100
3FF8
0104
FFFE
0000
3FF8
2108
2108
2108
3FF8
2008
2078
2010
ENDCHAR
STARTCHAR U_2FAE
ENCODING 12206
SWIDTH 1000 0
DWIDTH 16 0
BBX 14 15 1 -1
BITMAP
0480
0480
0488
FCFC
0480
0480
0490
7CF8
0480
0480
0488
FCFC
0480
0480
0480
ENDCHAR
STARTCHAR U_2FAF
ENCODING 12207
SWIDTH 1000 0
DWIDTH 16 0
BBX 14 15 1 -1
BITMAP
0008
FFFC
0100
4208
7FFC
4488
4488
4788
4488
4488
4788
4488
4488
7FF8
4008
ENDCHAR
STARTCHAR U_2FB0
ENCODING 12208
SWIDTH 1000 0
DWIDTH 16 0
BBX 15 15 0 -1
BITMAP
0820
0824
FFFE
0820
0FE0
0100
3FF8
2108
3FF8
2108
0100
FFFE
0100
0100
0100
ENDCHAR
STARTCHAR U_2FB1
ENCODING 12209
SWIDTH 1000 0
DWIDTH 16 0
BBX 14 15 1 -1
BITMAP
0400
0440
3FE0
0848
FFFC
0000
1FE0
1020
1FE0
0100
7FF8
2100
7FF8
0100
0100
ENDCHAR
STARTCHAR U_2FB2
ENCODING 12210
SWIDTH 1000 0
DWIDTH 16 0
BBX 14 15 1 -1
BITMAP
0480
0480
0480
0488
FCFC
0480
0480
7CF8
0480
0488
FCFC
0480
0480
0488
FFFC
ENDCHAR
STARTCHAR U_2FB3
ENCODING 12211
SWIDTH 1000 0
DWIDTH 16 0
BBX 15 15 0 -1
BITMAP
0300
0108
7FFC
1020
0820
0440
FFFE
0000
1010
1FF8
1010
1FF0
1010
1FF0
1010
ENDCHAR
STARTCHAR U_2FB4
ENCODING 12212
SWIDTH 1000 0
DWIDTH 16 0
BBX 14 15 1 -1
BITMAP
0008
FFFC
0100
2210
3FF8
2010
3FF0
2010
3FF0
2010
3FF0
2010
06C0
1830
600C
ENDCHAR
STARTCHAR U_2FB5
ENCODING 12213
SWIDTH 1000 0
DWIDTH 16 0
BBX 15 15 0 -1
BITMAP
2008
3FFC
2048
21E8
2F08
2108
2FE8
2928
2928
2FE8
2928
214A
21EA
4F26
8402
ENDCHAR
STARTCHAR U_2FB6
ENCODING 12214
SWIDTH 1000 0
DWIDTH 16 0
BBX 14 15 1 -1
BITMAP
7FC0
0048
0050
1A60
7258
1244
1224
FFDC
1248
1250
1260
2258
2224
4214
820C
ENDCHAR
STARTCHAR U_2FB7
ENCODING 12215
SWIDTH 1000 0
DWIDTH 16 0
BBX 14 15 1 -1
BITMAP
0100
0300
0480
0A40
3130
DFEC
1020
1FE0
1020
1FE0
1010
1320
14C0
7830
200C
ENDCHAR
STARTCHAR U_2FB8
ENCODING 12216
SWIDTH 1000 0
DWIDTH 16 0
BBX 14 15 1 -1
BITMAP
1060
0840
FFFC
0100
2220
3FF0
2020
2020
3FE0
2020
3FE0
2020
2020
3FE0
2020
ENDCHAR
STARTCHAR U_2FB9
ENCODING 12217
SWIDTH 1000 0
DWIDTH 16 0
BBX 15 15 0 -1
BITMAP
0020
0070
3F80
0104
7FFE
0540
0920
3118
C816
0FF8
0810
0FF0
0810
0FF0
0810
ENDCHAR
STARTCHAR U_2FBA
ENCODING 12218
SWIDTH 1000 0
DWIDTH 16 0
BBX 14 15 1 -1
BITMAP
2010
3FF8
2200
2220
3FF0
2200
3FF0
2200
2208
3FFC
0048
1228
4928
4908
8070
ENDCHAR
STARTCHAR U_2FBB
ENCODING 12219
SWIDTH 1000 0
DWIDTH 16 0
BBX 14 15 1 -1
BITMAP
1020
1FF0
1020
13E0
5224
7FFC
4008
9FE8
1020
1FE0
1020
1FE0
1020
10E0
1040
ENDCHAR
STARTCHAR U_2FBC
ENCODING 12220
SWIDTH 1000 0
DWIDTH 16 0
BBX 14 15 1 -1
BITMAP
0200
0108
FFFC
0000
1FE0
1020
1FE0
4008
7FFC
4008
4FC8
4848
4FC8
4878
4010
ENDCHAR
STARTCHAR U_2FBD
ENCODING 12221
SWIDTH 1000 0
DWIDTH 16 0
BBX 15 15 0 -1
BITMAP
2200
3F0C
2008
2010
3F26
2044
3F88
2010
7F26
1044
1008
2210
FF20
4140
0180
ENDCHAR
STARTCHAR U_2FBE
ENCODING 12222
SWIDTH 1000 0
DWIDTH 16 0
BBX 15 15 0 -1
BITMAP
8002
BEFA
8822
BEFA
8822
BEFA
8002
8002
8002
8002
8002
8002
8012
800E
8004
ENDCHAR
STARTCHAR U_2FBF
ENCODING 12223
SWIDTH 1000 0
DWIDTH 16 0
BBX 12 15 2 -1
BITMAP
0840
A490
9110
CA90
A650
8910
9290
FFF0
8010
40C0
4300
5C00
6010
4010
3FF0
ENDCHAR
STARTCHAR U_2FC0
ENCODING 12224
SWIDTH 1000 0
DWIDTH 16 0
BBX 14 15 1 -1
BITMAP
0008
FFFC
0000
1FE0
1020
1FE0
0000
7FF8
4008
4888
4508
5FE8
4208
4238
4210
ENDCHAR
STARTCHAR U_2FC1
ENCODING 12225
SWIDTH 1000 0
DWIDTH 16 0
BBX 14 15 1 -1
BITMAP
0200
2410
3FF8
2210
2210
3FF0
2210
2210
3FF0
2110
0320
0550
09FC
3104
C0FC
ENDCHAR
STARTCHAR U_2FC2
ENCODING 12226
SWIDTH 1000 0
DWIDTH 16 0
BBX 14 15 1 -1
BITMAP
0840
0FE0
0840
1080
3FF0
5110
9110
1FF0
1110
1110
1FF0
1010
4888
4444
8444
ENDCHAR
STARTCHAR U_2FC3
ENCODING 12227
SWIDTH 1000 0
DWIDTH 16 0
BBX 13 15 1 -1
BITMAP
0200
1420
1FF0
1020
1FE0
1020
1FE0
1010
1FF8
1000
1FF8
5248
4928
8928
0030
ENDCHAR
STARTCHAR U_2FC4
ENCODING 12228
SWIDTH 1000 0
DWIDTH 16 0
BBX 13 15 2 -1
BITMAP
0400
0410
07F8
0400
FFF0
8850
A490
9110
CA90
A650
8910
9490
A250
FFF0
8010
ENDCHAR
STARTCHAR U_2FC5
ENCODING 12229
SWIDTH 1000 0
DWIDTH 16 0
BBX 15 15 0 -1
BITMAP
0100
2084
3FFE
2220
2224
3FFE
2224
3FFC
2804
2820
2FA4
2838
29A2
5E22
883E
ENDCHAR
STARTCHAR U_2FC6
ENCODING 12230
SWIDTH 1000 0
DWIDTH 16 0
BBX 14 15 1 -1
BITMAP
0100
0108
FFFC
1110
1110
2928
47C4
0920
3210
C7EC
0840
1680
6180
0240
3C20
ENDCHAR
STARTCHAR U_2FC7
ENCODING 12231
SWIDTH 1000 0
DWIDTH 16 0
BBX 15 15 0 -1
BITMAP
0100
4084
7FFE
4410
4410
7F7E
4410
5554
5554
5554
5554
5554
6494
A496
8410
ENDCHAR
STARTCHAR U_2FC8
ENCODING 12232
SWIDTH 1000 0
DWIDTH 16 0
BBX 14 15 1 -1
BITMAP
0848
FFFC
0840
0FC0
0008
FFFC
0200
3FF0
2210
3FF0
2210
3FF0
2010
1860
E01C
ENDCHAR
STARTCHAR U_2FC9
ENCODING 12233
SWIDTH 1000 0
DWIDTH 16 0
BBX 14 15 1 -1
BITMAP
00E0
3F00
0210
FFFC
0200
0FC0
3230
C50C
1AC0
E23C
1AC8
0700
0AC0
3230
C60C
ENDCHAR
STARTCHAR U_2FCA
ENCODING 12234
SWIDTH 1000 0
DWIDTH 16 0
BBX 14 15 1 -1
BITMAP
2010
3FF8
2210
3250
2A90
3FF0
2210
0200
7FF0
0200
0200
FFFC
4888
4444
8444
ENDCHAR
STARTCHAR U_2FCB
ENCODING 12235
SWIDTH 1000 0
DWIDTH 16 0
BBX 14 15 1 -1
BITMAP
2490
2490
14A0
14A0
FFFC
2110
4108
BFFC
2108
2308
2588
2948
3128
2138
2110
ENDCHAR
STARTCHAR U_2FCC
ENCODING 12236
SWIDTH 1000 0
DWIDTH 16 0
BBX 13 15 2 -1
BITMAP
FFF0
8910
8910
F9F0
8910
0900
F9F0
8910
F9F0
8910
F9F0
8910
0908
0908
07F8
ENDCHAR
STARTCHAR U_2FCD
ENCODING 12237
SWIDTH 1000 0
DWIDTH 16 0
BBX 14 15 1 -1
BITMAP
0FC0
0840
4FC8
4848
4FC8
4848
4FC8
4848
7CF8
0480
FCFC
2490
2490
4490
8490
ENDCHAR
STARTCHAR U_2FCE
ENCODING 12238
SWIDTH 1000 0
DWIDTH 16 0
BBX 15 15 0 -1
BITMAP
0820
0820
FF24
08FE
7E20
0024
7FFE
4244
4244
7E48
4228
2410
1E30
704E
2184
ENDCHAR
STARTCHAR U_2FCF
ENCODING 12239
SWIDTH 1000 0
DWIDTH 16 0
BBX 14 15 1 -1
BITMAP
0C10
71F8
4010
7DF0
4010
7FF0
4010
1280
4A50
4210
5290
4A54
4214
528C
E704
ENDCHAR
STARTCHAR U_2FD0
ENCODING 12240
SWIDTH 1000 0
DWIDTH 16 0
BBX 14 15 1 -1
BITMAP
0200
1FE0
1020
1FE0
1020
1FE0
1020
3FF0
2210
3FF0
2210
FFFC
0840
0840
7040
ENDCHAR
STARTCHAR U_2FD1
ENCODING 12241
SWIDTH 1000 0
DWIDTH 16 0
BBX 14 15 1 -1
BITMAP
0400
0208
FFFC
0490
7D60
2A50
2A50
4A68
B244
1020
1FE0
1020
1FE0
2020
C020
ENDCHAR
STARTCHAR U_2FD2
ENCODING 12242
SWIDTH 1000 0
DWIDTH 16 0
BBX 15 15 0 -1
BITMAP
0080
0890
08F8
0880
FFFE
0440
4444
4AA4
5114
7FFC
4444
4AA4
5114
7FFC
4004
ENDCHAR
STARTCHAR U_2FD3
ENCODING 12243
SWIDTH 1000 0
DWIDTH 16 0
BBX 14 15 1 -1
BITMAP
2080
1088
FEFC
4480
28F8
FE08
00F8
7C80
44F8
7C80
44F8
7C80
44FC
5C84
487C
ENDCHAR
STARTCHAR U_2FD4
ENCODING 12244
SWIDTH 1000 0
DWIDTH 16 0
BBX 14 15 1 -1
BITMAP
1080
1FC0
1080
2100
FFF8
2288
FEF8
0A88
FED8
0AA8
FAD8
0A88
FEFC
0A04
F9F8
ENDCHAR
STARTCHAR U_2FD5
ENCODING 12245
SWIDTH 1000 0
DWIDTH 16 0
BBX 14 15 1 -1
BITMAP
0300
0CC0
3030
C78C
0000
F7BC
94A4
F7BC
0000
7FF8
4488
7FF8
4488
44B8
4490
ENDCHAR
STARTCHAR U_2FF2
ENCODING 12274
SWIDTH 1000 0
DWIDTH 18 0
BBX 17 18 0 -3
BITMAP
DF7700
842100
800100
042000
842100
800100
842100
042000
842100
800100
042000
842100
842100
000000
842100
DF7700
000000
000000
ENDCHAR
STARTCHAR U_2FF3
ENCODING 12275
SWIDTH 1000 0
DWIDTH 18 0
BBX 17 18 0 -3
BITMAP
EEEF00
800100
800100
000000
800100
EEEF00
800100
000000
800100
800100
EEEF00
800100
000000
800100
800100
EEEF00
000000
000000
ENDCHAR
STARTCHAR U_3000
ENCODING 12288
SWIDTH 1000 0
DWIDTH 16 0
BBX 1 1 15 -2
BITMAP
00
ENDCHAR
STARTCHAR U_3001
ENCODING 12289
SWIDTH 1000 0
DWIDTH 16 0
BBX 4 4 3 1
BITMAP
80
60
30
10
ENDCHAR
STARTCHAR U_3002
ENCODING 12290
SWIDTH 1000 0
DWIDTH 16 0
BBX 4 4 3 1
BITMAP
60
90
90
60
ENDCHAR
STARTCHAR U_3003
ENCODING 12291
SWIDTH 1000 0
DWIDTH 16 0
BBX 6 7 4 2
BITMAP
34
2C
28
48
48
90
90
ENDCHAR
STARTCHAR U_3005
ENCODING 12293
SWIDTH 1000 0
DWIDTH 16 0
BBX 12 12 1 0
BITMAP
0810
0FF0
1010
1020
1020
2040
4080
8100
0700
0180
0040
0020
ENDCHAR
STARTCHAR U_3008
ENCODING 12296
SWIDTH 1000 0
DWIDTH 16 0
BBX 5 15 9 -1
BITMAP
08
08
10
20
20
40
40
80
80
40
20
20
10
10
08
ENDCHAR
STARTCHAR U_3009
ENCODING 12297
SWIDTH 1000 0
DWIDTH 16 0
BBX 4 15 2 -1
BITMAP
80
80
40
40
20
20
10
10
10
10
20
20
40
40
80
ENDCHAR
STARTCHAR U_300A
ENCODING 12298
SWIDTH 1000 0
DWIDTH 16 0
BBX 7 14 8 -1
BITMAP
12
14
24
28
48
50
90
90
50
48
24
24
12
02
ENDCHAR
STARTCHAR U_300B
ENCODING 12299
SWIDTH 1000 0
DWIDTH 16 0
BBX 7 14 1 -1
BITMAP
A0
90
50
48
28
24
12
14
24
28
48
50
90
A0
ENDCHAR
STARTCHAR U_300C
ENCODING 12300
SWIDTH 1000 0
DWIDTH 16 0
BBX 5 11 9 2
BITMAP
F8
80
80
80
80
80
80
80
80
80
80
ENDCHAR
STARTCHAR U_300D
ENCODING 12301
SWIDTH 1000 0
DWIDTH 16 0
BBX 5 11 2 -1
BITMAP
08
08
08
08
08
08
08
08
08
08
F8
ENDCHAR
STARTCHAR U_300E
ENCODING 12302
SWIDTH 1000 0
DWIDTH 16 0
BBX 6 11 9 2
BITMAP
FC
84
BC
A0
A0
A0
A0
A0
A0
A0
E0
ENDCHAR
STARTCHAR U_300F
ENCODING 12303
SWIDTH 1000 0
DWIDTH 16 0
BBX 6 11 2 -1
BITMAP
1C
14
14
14
14
14
14
14
F4
84
FC
ENDCHAR
STARTCHAR U_3010
ENCODING 12304
SWIDTH 1000 0
DWIDTH 16 0
BBX 4 15 9 -1
BITMAP
F0
E0
C0
C0
C0
80
80
80
80
80
80
C0
C0
E0
F0
ENDCHAR
STARTCHAR U_3011
ENCODING 12305
SWIDTH 1000 0
DWIDTH 16 0
BBX 4 15 3 -1
BITMAP
F0
70
30
30
10
10
10
10
10
10
10
30
30
70
F0
ENDCHAR
STARTCHAR U_3012
ENCODING 12306
SWIDTH 1000 0
DWIDTH 16 0
BBX 14 12 1 0
BITMAP
FFFC
0000
0000
FFFC
0200
0200
0200
0200
0200
0200
0200
0200
ENDCHAR
STARTCHAR U_3013
ENCODING 12307
SWIDTH 1000 0
DWIDTH 16 0
BBX 13 13 2 0
BITMAP
FFF8
FFF8
FFF8
FFF8
FFF8
0000
0000
0000
FFF8
FFF8
FFF8
FFF8
FFF8
ENDCHAR
STARTCHAR U_3014
ENCODING 12308
SWIDTH 1000 0
DWIDTH 16 0
BBX 4 16 9 -2
BITMAP
10
20
40
80
80
80
80
80
80
80
80
80
80
40
20
10
ENDCHAR
STARTCHAR U_3015
ENCODING 12309
SWIDTH 1000 0
DWIDTH 16 0
BBX 4 16 3 -2
BITMAP
80
40
20
10
10
10
10
10
10
10
10
10
10
20
40
80
ENDCHAR
STARTCHAR U_3016
ENCODING 12310
SWIDTH 1000 0
DWIDTH 16 0
BBX 6 16 9 -2
BITMAP
FC
88
90
90
A0
A0
A0
A0
A0
A0
A0
A0
90
90
88
FC
ENDCHAR
STARTCHAR U_3017
ENCODING 12311
SWIDTH 1000 0
DWIDTH 16 0
BBX 6 16 1 -2
BITMAP
FC
44
24
24
14
14
14
14
14
14
14
14
24
24
44
FC
ENDCHAR
STARTCHAR U_301D
ENCODING 12317
SWIDTH 1000 0
DWIDTH 16 0
BBX 6 3 9 10
BITMAP
90
48
24
ENDCHAR
STARTCHAR U_301E
ENCODING 12318
SWIDTH 1000 0
DWIDTH 16 0
BBX 6 3 1 10
BITMAP
24
48
90
ENDCHAR
STARTCHAR U_3021
ENCODING 12321
SWIDTH 1000 0
DWIDTH 16 0
BBX 1 14 7 -1
BITMAP
80
80
80
80
80
80
80
80
80
80
80
80
80
80
ENDCHAR
STARTCHAR U_3022
ENCODING 12322
SWIDTH 1000 0
DWIDTH 16 0
BBX 7 14 4 -1
BITMAP
02
02
82
82
82
82
82
82
82
82
82
02
02
02
ENDCHAR
STARTCHAR U_3023
ENCODING 12323
SWIDTH 1000 0
DWIDTH 16 0
BBX 11 14 3 -1
BITMAP
0020
8020
8420
8420
8420
8420
8420
8420
8420
8420
8420
8020
8020
0020
ENDCHAR
STARTCHAR U_3024
ENCODING 12324
SWIDTH 1000 0
DWIDTH 16 0
BBX 12 13 2 0
BITMAP
0040
0040
6080
1080
0900
0500
0200
0300
0480
0840
1020
2010
C010
ENDCHAR
STARTCHAR U_3025
ENCODING 12325
SWIDTH 1000 0
DWIDTH 16 0
BBX 10 15 3 -1
BITMAP
0040
00C0
30C0
2180
2300
1C00
3200
6100
4080
8080
8080
8080
4100
6300
1C00
ENDCHAR
STARTCHAR U_3026
ENCODING 12326
SWIDTH 1000 0
DWIDTH 16 0
BBX 14 4 1 7
BITMAP
0200
0100
0108
FFFC
ENDCHAR
STARTCHAR U_3027
ENCODING 12327
SWIDTH 1000 0
DWIDTH 16 0
BBX 14 9 1 4
BITMAP
0200
0100
0108
FFFC
0000
0000
0000
0010
3FF8
ENDCHAR
STARTCHAR U_3028
ENCODING 12328
SWIDTH 1000 0
DWIDTH 16 0
BBX 14 13 1 0
BITMAP
0200
0100
0108
FFFC
0000
0000
0010
3FF8
0000
0000
0000
0008
FFFC
ENDCHAR
STARTCHAR U_3029
ENCODING 12329
SWIDTH 1000 0
DWIDTH 16 0
BBX 13 15 2 -1
BITMAP
0400
0200
0220
FFF0
2020
2040
2040
1080
1080
0900
0600
0600
0900
30C0
C038
ENDCHAR
STARTCHAR U_3041
ENCODING 12353
SWIDTH 1000 0
DWIDTH 16 0
BBX 10 12 3 -1
BITMAP
1000
1600
7800
1200
1F00
1280
3440
5440
9840
B080
4900
0200
ENDCHAR
STARTCHAR U_3042
ENCODING 12354
SWIDTH 1000 0
DWIDTH 16 0
BBX 13 15 2 -1
BITMAP
0800
0400
4580
3E00
0800
0900
0FC0
1120
3110
5208
9408
8808
5410
6060
0180
ENDCHAR
STARTCHAR U_3043
ENCODING 12355
SWIDTH 1000 0
DWIDTH 16 0
BBX 10 9 4 -1
BITMAP
8000
4000
4100
8080
8040
80C0
5040
6000
2000
ENDCHAR
STARTCHAR U_3044
ENCODING 12356
SWIDTH 1000 0
DWIDTH 16 0
BBX 12 11 3 0
BITMAP
8000
4080
4040
4020
8020
8010
8810
9030
5010
2000
2000
ENDCHAR
STARTCHAR U_3045
ENCODING 12357
SWIDTH 1000 0
DWIDTH 16 0
BBX 7 12 5 -1
BITMAP
20
18
00
00
9C
62
02
02
04
04
08
10
ENDCHAR
STARTCHAR U_3046
ENCODING 12358
SWIDTH 1000 0
DWIDTH 16 0
BBX 9 16 4 -2
BITMAP
1000
0E00
0000
0000
8E00
7100
0080
0080
0080
0080
0100
0100
0200
0400
0800
1000
ENDCHAR
STARTCHAR U_3047
ENCODING 12359
SWIDTH 1000 0
DWIDTH 16 0
BBX 10 12 3 -2
BITMAP
1000
0C00
0000
0000
4F00
3200
0400
0800
3400
4400
8400
03C0
ENDCHAR
STARTCHAR U_3048
ENCODING 12360
SWIDTH 1000 0
DWIDTH 16 0
BBX 12 15 2 -1
BITMAP
0800
0400
0300
0000
23C0
1C80
0100
0200
0400
0E00
1100
2100
4100
8080
0070
ENDCHAR
STARTCHAR U_3049
ENCODING 12361
SWIDTH 1000 0
DWIDTH 16 0
BBX 11 11 3 -1
BITMAP
1000
1000
5680
3860
1000
1700
1880
3040
D240
3180
1000
ENDCHAR
STARTCHAR U_304A
ENCODING 12362
SWIDTH 1000 0
DWIDTH 16 0
BBX 15 15 1 -1
BITMAP
1000
0800
0820
0918
0E04
780E
0800
09E0
0E10
0808
1808
C808
6890
1860
0800
ENDCHAR
STARTCHAR U_304B
ENCODING 12363
SWIDTH 1000 0
DWIDTH 16 0
BBX 13 14 2 -1
BITMAP
2000
1000
1040
1020
9E10
7110
1108
1118
2108
2100
4100
5200
8A00
0400
ENDCHAR
STARTCHAR U_304C
ENCODING 12364
SWIDTH 1000 0
DWIDTH 16 0
BBX 14 14 2 -1
BITMAP
2008
1014
1054
1020
9E10
7110
1108
1118
2108
2100
4100
5200
8A00
0400
ENDCHAR
STARTCHAR U_304D
ENCODING 12365
SWIDTH 1000 0
DWIDTH 16 0
BBX 10 15 4 -1
BITMAP
1000
0880
0B00
7C00
0440
0780
FA00
0100
0100
3E80
4180
8000
8000
6000
1E00
ENDCHAR
STARTCHAR U_304E
ENCODING 12366
SWIDTH 1000 0
DWIDTH 16 0
BBX 13 15 2 -1
BITMAP
0410
0448
05A8
7E00
0220
03C0
FD00
0080
0080
1F40
20C0
4000
4000
3000
0F00
ENDCHAR
STARTCHAR U_304F
ENCODING 12367
SWIDTH 1000 0
DWIDTH 16 0
BBX 6 15 5 -1
BITMAP
04
04
08
08
10
20
40
80
40
20
10
08
08
04
04
ENDCHAR
STARTCHAR U_3050
ENCODING 12368
SWIDTH 1000 0
DWIDTH 16 0
BBX 10 15 5 -1
BITMAP
0400
0400
0880
0A40
1140
2100
4000
8000
4000
2000
1000
0800
0800
0400
0400
ENDCHAR
STARTCHAR U_3051
ENCODING 12369
SWIDTH 1000 0
DWIDTH 16 0
BBX 13 16 2 -2
BITMAP
0080
8080
4040
4040
4078
8FC0
8040
8040
8040
8040
A040
4040
4080
0080
0100
0200
ENDCHAR
STARTCHAR U_3052
ENCODING 12370
SWIDTH 1000 0
DWIDTH 16 0
BBX 14 16 2 -2
BITMAP
0088
80A4
4054
4050
4078
8FC0
8040
8040
8040
8040
A040
4040
4080
0080
0100
0200
ENDCHAR
STARTCHAR U_3053
ENCODING 12371
SWIDTH 1000 0
DWIDTH 16 0
BBX 11 12 3 0
BITMAP
2000
1FC0
0100
0200
0000
0000
0000
8000
8000
8000
4020
3FC0
ENDCHAR
STARTCHAR U_3054
ENCODING 12372
SWIDTH 1000 0
DWIDTH 16 0
BBX 12 14 3 0
BITMAP
0020
0090
2050
1FC0
0100
0200
0000
0000
0000
8000
8000
8000
4020
3FC0
ENDCHAR
STARTCHAR U_3055
ENCODING 12373
SWIDTH 1000 0
DWIDTH 16 0
BBX 10 15 4 -1
BITMAP
1000
0800
04C0
8700
7A00
0200
0100
0100
3E80
4180
8000
8000
4000
3000
0F00
ENDCHAR
STARTCHAR U_3056
ENCODING 12374
SWIDTH 1000 0
DWIDTH 16 0
BBX 12 15 4 -1
BITMAP
1000
0820
0490
8750
7A40
0200
0100
0100
3E80
4180
8000
8000
4000
3000
0F00
ENDCHAR
STARTCHAR U_3057
ENCODING 12375
SWIDTH 1000 0
DWIDTH 16 0
BBX 10 14 3 -1
BITMAP
8000
4000
4000
4000
4000
4000
4000
4000
4000
4000
4040
4080
2300
1C00
ENDCHAR
STARTCHAR U_3058
ENCODING 12376
SWIDTH 1000 0
DWIDTH 16 0
BBX 10 14 3 -1
BITMAP
8000
4080
4240
4140
4100
4000
4000
4000
4000
4000
4040
4080
2300
1C00
ENDCHAR
STARTCHAR U_3059
ENCODING 12377
SWIDTH 1000 0
DWIDTH 16 0
BBX 13 16 2 -2
BITMAP
0200
0100
81F8
7F00
0100
0100
0F00
1900
1080
0980
0680
0080
0100
0100
0200
0400
ENDCHAR
STARTCHAR U_305A
ENCODING 12378
SWIDTH 1000 0
DWIDTH 16 0
BBX 15 16 1 -2
BITMAP
0204
0102
81FA
7F08
0100
0100
0F00
1900
1080
0980
0680
0080
0100
0100
0200
0400
ENDCHAR
STARTCHAR U_305B
ENCODING 12379
SWIDTH 1000 0
DWIDTH 16 0
BBX 14 13 1 0
BITMAP
0080
1040
0840
087C
8BC0
7C40
0840
0840
08C0
0840
0800
0400
03F0
ENDCHAR
STARTCHAR U_305C
ENCODING 12380
SWIDTH 1000 0
DWIDTH 16 0
BBX 15 14 1 0
BITMAP
0004
0092
104A
0848
087C
8BC0
7C40
0840
0840
08C0
0840
0800
0400
03F0
ENDCHAR
STARTCHAR U_305D
ENCODING 12381
SWIDTH 1000 0
DWIDTH 16 0
BBX 12 14 2 -1
BITMAP
1380
0C80
0100
0200
0400
08F0
1F00
E200
0400
0800
0800
0800
0400
0380
ENDCHAR
STARTCHAR U_305E
ENCODING 12382
SWIDTH 1000 0
DWIDTH 16 0
BBX 13 15 2 -1
BITMAP
0010
13C8
0CA8
0120
0200
0400
08F0
1F00
E200
0400
0800
0800
0800
0400
0380
ENDCHAR
STARTCHAR U_305F
ENCODING 12383
SWIDTH 1000 0
DWIDTH 16 0
BBX 12 15 2 -1
BITMAP
2000
1000
1100
1600
1800
F000
20E0
2330
2040
4000
4000
4400
8400
8200
81F0
ENDCHAR
STARTCHAR U_3060
ENCODING 12384
SWIDTH 1000 0
DWIDTH 16 0
BBX 13 15 2 -1
BITMAP
2010
1048
1128
1620
1800
F000
20E0
2330
2040
4000
4000
4400
8400
8200
81F0
ENDCHAR
STARTCHAR U_3061
ENCODING 12385
SWIDTH 1000 0
DWIDTH 16 0
BBX 12 15 2 -1
BITMAP
1000
0800
08C0
8F00
7800
0800
1000
13C0
1C20
3010
2010
0010
0020
00C0
0F00
ENDCHAR
STARTCHAR U_3062
ENCODING 12386
SWIDTH 1000 0
DWIDTH 16 0
BBX 13 15 2 -1
BITMAP
1010
0848
08A8
8F20
7800
0800
1000
13C0
1C20
3010
2010
0010
0020
00C0
0F00
ENDCHAR
STARTCHAR U_3063
ENCODING 12387
SWIDTH 1000 0
DWIDTH 16 0
BBX 9 7 4 -1
BITMAP
1F00
E080
0080
0080
0100
0600
1800
ENDCHAR
STARTCHAR U_3064
ENCODING 12388
SWIDTH 1000 0
DWIDTH 16 0
BBX 14 10 1 1
BITMAP
00E0
0710
9808
6004
0004
0004
0008
0010
0060
0380
ENDCHAR
STARTCHAR U_3065
ENCODING 12389
SWIDTH 1000 0
DWIDTH 16 0
BBX 15 13 1 1
BITMAP
0004
0012
000A
00E8
0710
9808
6004
0004
0004
0008
0010
0060
0380
ENDCHAR
STARTCHAR U_3066
ENCODING 12390
SWIDTH 1000 0
DWIDTH 16 0
BBX 14 13 1 0
BITMAP
003C
87E0
7840
0080
0100
0100
0200
0200
0200
0200
0100
0080
0070
ENDCHAR
STARTCHAR U_3067
ENCODING 12391
SWIDTH 1000 0
DWIDTH 16 0
BBX 15 13 1 0
BITMAP
001C
87E0
7844
0092
010A
0108
0200
0200
0200
0200
0100
0080
0070
ENDCHAR
STARTCHAR U_3068
ENCODING 12392
SWIDTH 1000 0
DWIDTH 16 0
BBX 10 14 4 -1
BITMAP
4000
2000
2000
2080
10C0
1300
1400
1800
2000
4000
8000
8000
4000
3FC0
ENDCHAR
STARTCHAR U_3069
ENCODING 12393
SWIDTH 1000 0
DWIDTH 16 0
BBX 12 14 3 -1
BITMAP
4020
2090
2050
2040
10C0
1300
1400
1800
2000
4000
8000
8000
4000
3FC0
ENDCHAR
STARTCHAR U_306A
ENCODING 12394
SWIDTH 1000 0
DWIDTH 16 0
BBX 13 15 2 -1
BITMAP
1000
0900
0E00
F840
1030
1048
2080
2080
4080
4080
8080
0F80
10E0
1090
0F00
ENDCHAR
STARTCHAR U_306B
ENCODING 12395
SWIDTH 1000 0
DWIDTH 16 0
BBX 12 14 2 -1
BITMAP
8000
4000
41E0
4630
4040
8000
8000
8000
8000
8400
8400
A200
41F0
4000
ENDCHAR
STARTCHAR U_306C
ENCODING 12396
SWIDTH 1000 0
DWIDTH 16 0
BBX 14 14 1 -1
BITMAP
0200
0100
2100
27E0
2910
3108
2204
5204
5404
8804
9868
A498
4494
0060
ENDCHAR
STARTCHAR U_306D
ENCODING 12397
SWIDTH 1000 0
DWIDTH 16 0
BBX 14 15 1 -1
BITMAP
2000
1000
1000
14E0
9910
7A08
1408
1808
1008
3008
3078
5088
908C
3070
1000
ENDCHAR
STARTCHAR U_306E
ENCODING 12398
SWIDTH 1000 0
DWIDTH 16 0
BBX 13 12 2 0
BITMAP
0780
1A40
2220
4210
4210
8408
8408
8810
5010
6020
0040
0180
ENDCHAR
STARTCHAR U_306F
ENCODING 12399
SWIDTH 1000 0
DWIDTH 16 0
BBX 13 15 2 -1
BITMAP
0080
8040
4040
4040
4878
47C0
4040
8040
8040
8040
8040
A7C0
C870
4848
4780
ENDCHAR
STARTCHAR U_3070
ENCODING 12400
SWIDTH 1000 0
DWIDTH 16 0
BBX 14 15 2 -1
BITMAP
0088
8064
4054
4050
4878
47C0
4040
8040
8040
8040
8040
A7C0
C870
4848
4780
ENDCHAR
STARTCHAR U_3071
ENCODING 12401
SWIDTH 1000 0
DWIDTH 16 0
BBX 14 15 2 -1
BITMAP
0080
8058
4064
4064
4878
47C0
4040
8040
8040
8040
8040
A7C0
C870
4848
4780
ENDCHAR
STARTCHAR U_3072
ENCODING 12402
SWIDTH 1000 0
DWIDTH 16 0
BBX 14 14 1 -1
BITMAP
0040
0440
1C60
E820
1020
1030
2028
2024
4020
4020
4040
2040
1180
0E00
ENDCHAR
STARTCHAR U_3073
ENCODING 12403
SWIDTH 1000 0
DWIDTH 16 0
BBX 15 15 1 -1
BITMAP
0004
0052
044A
1C68
E820
1020
1030
2028
2024
4020
4020
4040
2040
1180
0E00
ENDCHAR
STARTCHAR U_3074
ENCODING 12404
SWIDTH 1000 0
DWIDTH 16 0
BBX 15 14 1 -1
BITMAP
004C
0452
1C72
E82C
1020
1030
2028
2024
4020
4020
4040
2040
1180
0E00
ENDCHAR
STARTCHAR U_3075
ENCODING 12405
SWIDTH 1000 0
DWIDTH 16 0
BBX 15 14 1 -1
BITMAP
0400
0380
0080
0100
0200
0200
0100
00A0
0898
9044
604E
4840
0480
0300
ENDCHAR
STARTCHAR U_3076
ENCODING 12406
SWIDTH 1000 0
DWIDTH 16 0
BBX 15 15 1 -1
BITMAP
0008
0424
0394
0090
0100
0200
0200
0100
00A0
0898
9044
604E
4840
0480
0300
ENDCHAR
STARTCHAR U_3077
ENCODING 12407
SWIDTH 1000 0
DWIDTH 16 0
BBX 15 14 1 -1
BITMAP
0418
03A4
00A4
0118
0200
0200
0100
00A0
0898
9044
604E
4840
0480
0300
ENDCHAR
STARTCHAR U_3078
ENCODING 12408
SWIDTH 1000 0
DWIDTH 16 0
BBX 15 7 1 3
BITMAP
0600
0900
0880
1040
A020
4018
0006
ENDCHAR
STARTCHAR U_3079
ENCODING 12409
SWIDTH 1000 0
DWIDTH 16 0
BBX 15 10 1 3
BITMAP
0010
0048
0028
0620
0900
0880
1040
A020
4018
0006
ENDCHAR
STARTCHAR U_307A
ENCODING 12410
SWIDTH 1000 0
DWIDTH 16 0
BBX 15 9 1 3
BITMAP
0030
0048
0648
0930
0880
1040
A020
4018
0006
ENDCHAR
STARTCHAR U_307B
ENCODING 12411
SWIDTH 1000 0
DWIDTH 16 0
BBX 13 14 2 -1
BITMAP
8430
43C0
4040
4040
4078
4FC0
8040
8040
8040
8040
A7C0
C870
4848
4780
ENDCHAR
STARTCHAR U_307C
ENCODING 12412
SWIDTH 1000 0
DWIDTH 16 0
BBX 14 15 2 -1
BITMAP
0008
8434
43D4
4040
4040
4078
4FC0
8040
8040
8040
8040
A7C0
C870
4848
4780
ENDCHAR
STARTCHAR U_307D
ENCODING 12413
SWIDTH 1000 0
DWIDTH 16 0
BBX 14 15 2 -1
BITMAP
0018
8424
43E4
4058
4040
4078
4FC0
8040
8040
8040
8040
A7C0
C870
4848
4780
ENDCHAR
STARTCHAR U_307E
ENCODING 12414
SWIDTH 1000 0
DWIDTH 16 0
BBX 11 15 3 -1
BITMAP
0400
0200
83C0
7E00
0200
0200
8380
7E00
0200
0200
3E00
4380
8260
C200
3C00
ENDCHAR
STARTCHAR U_307F
ENCODING 12415
SWIDTH 1000 0
DWIDTH 16 0
BBX 14 13 1 -1
BITMAP
1100
0F00
0200
0220
0210
0F90
3470
4418
8824
8820
9040
6080
0100
ENDCHAR
STARTCHAR U_3080
ENCODING 12416
SWIDTH 1000 0
DWIDTH 16 0
BBX 13 15 2 -1
BITMAP
2000
1000
9E00
7060
1010
1018
7000
9000
9040
9020
A020
6020
2020
2040
1F80
ENDCHAR
STARTCHAR U_3081
ENCODING 12417
SWIDTH 1000 0
DWIDTH 16 0
BBX 14 14 1 -1
BITMAP
0100
0080
2080
23C0
2D30
3108
3108
5204
4A04
8404
8C08
9208
6010
0060
ENDCHAR
STARTCHAR U_3082
ENCODING 12418
SWIDTH 1000 0
DWIDTH 16 0
BBX 11 15 2 -1
BITMAP
0800
0400
2400
1C00
0700
2800
C800
6840
1E20
1020
1020
1020
1040
0880
0700
ENDCHAR
STARTCHAR U_3083
ENCODING 12419
SWIDTH 1000 0
DWIDTH 16 0
BBX 11 11 2 -1
BITMAP
0200
1180
1000
13C0
0C20
B820
4840
0980
0400
0400
0400
ENDCHAR
STARTCHAR U_3084
ENCODING 12420
SWIDTH 1000 0
DWIDTH 16 0
BBX 14 15 1 -2
BITMAP
0100
00C0
1860
1000
0878
0B84
9C04
6404
0408
0270
0200
0200
0100
0100
0100
ENDCHAR
STARTCHAR U_3085
ENCODING 12421
SWIDTH 1000 0
DWIDTH 16 0
BBX 11 12 2 -2
BITMAP
0400
0200
8780
4A40
5220
6220
6220
4A40
4780
0200
0400
0800
ENDCHAR
STARTCHAR U_3086
ENCODING 12422
SWIDTH 1000 0
DWIDTH 16 0
BBX 14 14 1 -1
BITMAP
0300
0080
81E0
4290
4488
4884
5084
6084
6488
4290
41E0
0080
0100
0200
ENDCHAR
STARTCHAR U_3087
ENCODING 12423
SWIDTH 1000 0
DWIDTH 16 0
BBX 9 11 3 -1
BITMAP
1000
0800
0900
0E00
0800
0800
0800
7800
8E00
8980
7000
ENDCHAR
STARTCHAR U_3088
ENCODING 12424
SWIDTH 1000 0
DWIDTH 16 0
BBX 12 15 2 -1
BITMAP
0400
0200
0200
0230
03C0
0200
0200
0200
0200
0200
7E00
8380
8260
8410
7800
ENDCHAR
STARTCHAR U_3089
ENCODING 12425
SWIDTH 1000 0
DWIDTH 16 0
BBX 10 15 4 -1
BITMAP
1000
0800
0E00
1000
4000
8000
8000
8F00
B080
C040
8040
8080
0100
0600
3800
ENDCHAR
STARTCHAR U_308A
ENCODING 12426
SWIDTH 1000 0
DWIDTH 16 0
BBX 9 16 3 -2
BITMAP
8000
4E00
5100
5080
6080
6080
4080
4080
4080
4080
0100
0100
0200
0400
0800
1000
ENDCHAR
STARTCHAR U_308B
ENCODING 12427
SWIDTH 1000 0
DWIDTH 16 0
BBX 11 14 3 -1
BITMAP
2700
1900
0200
0400
0800
1F00
3080
4040
8020
0020
1820
2440
2380
1E00
ENDCHAR
STARTCHAR U_308C
ENCODING 12428
SWIDTH 1000 0
DWIDTH 16 0
BBX 15 15 1 -1
BITMAP
1000
0800
0800
08C0
0920
9A20
6C20
0820
0820
1820
1820
2822
4824
9818
0800
ENDCHAR
STARTCHAR U_308D
ENCODING 12429
SWIDTH 1000 0
DWIDTH 16 0
BBX 11 14 3 -1
BITMAP
2700
1900
0200
0400
0800
1F80
3040
4020
8020
0020
0040
0080
0300
1C00
ENDCHAR
STARTCHAR U_308E
ENCODING 12430
SWIDTH 1000 0
DWIDTH 16 0
BBX 10 12 3 -2
BITMAP
4000
2000
2000
3700
E880
3040
2040
6040
A080
2300
2000
2000
ENDCHAR
STARTCHAR U_308F
ENCODING 12431
SWIDTH 1000 0
DWIDTH 16 0
BBX 14 15 1 -1
BITMAP
2000
1000
1000
1400
9800
71E0
1610
1808
1004
3004
3008
5008
9030
30C0
1000
ENDCHAR
STARTCHAR U_3090
ENCODING 12432
SWIDTH 1000 0
DWIDTH 16 0
BBX 14 14 1 -1
BITMAP
1080
0F80
0100
0100
03C0
0E30
1208
2204
4404
8404
88E4
9118
6114
00E0
ENDCHAR
STARTCHAR U_3091
ENCODING 12433
SWIDTH 1000 0
DWIDTH 16 0
BBX 13 14 1 -1
BITMAP
13C0
0D00
0200
0780
0840
1020
2420
0A40
0980
0700
0800
1CE0
6310
8038
ENDCHAR
STARTCHAR U_3092
ENCODING 12434
SWIDTH 1000 0
DWIDTH 16 0
BBX 13 15 2 -1
BITMAP
0800
0400
4780
3C00
0820
0818
1E60
2180
4300
8500
0900
1100
1000
0800
07E0
ENDCHAR
STARTCHAR U_3093
ENCODING 12435
SWIDTH 1000 0
DWIDTH 16 0
BBX 14 15 2 -1
BITMAP
0400
0200
0200
0400
0400
0800
0800
1600
1900
3100
2100
4104
4108
8090
8060
ENDCHAR
STARTCHAR U_3094
ENCODING 12436
SWIDTH 1000 0
DWIDTH 18 0
BBX 17 18 0 -3
BITMAP
1E0400
01C200
002200
000800
07C400
182480
601000
001000
001000
001000
002000
002000
004000
008000
030000
0C0000
000000
000000
ENDCHAR
STARTCHAR U_30A1
ENCODING 12449
SWIDTH 1000 0
DWIDTH 16 0
BBX 9 9 3 -1
BITMAP
8780
7880
0100
0E00
0800
0800
0800
1000
2000
ENDCHAR
STARTCHAR U_30A2
ENCODING 12450
SWIDTH 1000 0
DWIDTH 16 0
BBX 12 13 2 -1
BITMAP
81F0
7E10
0020
0840
0480
0700
0400
0400
0400
0800
0800
1000
2000
ENDCHAR
STARTCHAR U_30A3
ENCODING 12451
SWIDTH 1000 0
DWIDTH 16 0
BBX 8 11 4 -1
BITMAP
01
01
02
04
08
34
C4
04
04
04
04
ENDCHAR
STARTCHAR U_30A4
ENCODING 12452
SWIDTH 1000 0
DWIDTH 16 0
BBX 10 14 2 -1
BITMAP
0040
0040
0080
0100
0200
0600
0900
3100
C100
0100
0100
0100
0100
0100
ENDCHAR
STARTCHAR U_30A5
ENCODING 12453
SWIDTH 1000 0
DWIDTH 16 0
BBX 9 11 4 -1
BITMAP
0800
0800
0800
8F80
7880
4080
4100
4100
0200
0400
0800
ENDCHAR
STARTCHAR U_30A6
ENCODING 12454
SWIDTH 1000 0
DWIDTH 16 0
BBX 11 14 3 -1
BITMAP
0800
0400
0400
87E0
F820
4020
4040
4040
4080
0080
0100
0200
0400
0800
ENDCHAR
STARTCHAR U_30A7
ENCODING 12455
SWIDTH 1000 0
DWIDTH 16 0
BBX 9 7 3 -1
BITMAP
0F00
7800
0800
0800
0800
1F00
E080
ENDCHAR
STARTCHAR U_30A8
ENCODING 12456
SWIDTH 1000 0
DWIDTH 16 0
BBX 14 10 1 1
BITMAP
0070
3F80
0200
0100
0100
0100
0100
0100
07F8
F804
ENDCHAR
STARTCHAR U_30A9
ENCODING 12457
SWIDTH 1000 0
DWIDTH 16 0
BBX 9 11 4 -2
BITMAP
0400
0400
8780
7C00
0C00
1400
2400
4400
8400
0C00
0400
ENDCHAR
STARTCHAR U_30AA
ENCODING 12458
SWIDTH 1000 0
DWIDTH 16 0
BBX 12 14 3 -1
BITMAP
0100
0100
81F0
7F00
0100
0300
0300
0500
0900
1100
2100
C100
0300
0100
ENDCHAR
STARTCHAR U_30AB
ENCODING 12459
SWIDTH 1000 0
DWIDTH 16 0
BBX 12 14 2 -1
BITMAP
0400
0200
0200
43F0
3E10
0210
0410
0410
0820
0820
1020
2140
40C0
8080
ENDCHAR
STARTCHAR U_30AC
ENCODING 12460
SWIDTH 1000 0
DWIDTH 16 0
BBX 14 15 2 -1
BITMAP
0008
0424
0214
0210
43F0
3E10
0210
0410
0410
0820
0820
1020
2140
40C0
8080
ENDCHAR
STARTCHAR U_30AD
ENCODING 12461
SWIDTH 1000 0
DWIDTH 16 0
BBX 13 14 2 -1
BITMAP
0800
0400
0460
0780
7A00
0200
0238
03C0
0D00
F100
0100
0080
0080
0080
ENDCHAR
STARTCHAR U_30AE
ENCODING 12462
SWIDTH 1000 0
DWIDTH 16 0
BBX 13 14 2 -1
BITMAP
0810
0448
0468
07A0
7A00
0200
0238
03C0
0D00
F100
0100
0080
0080
0080
ENDCHAR
STARTCHAR U_30AF
ENCODING 12463
SWIDTH 1000 0
DWIDTH 16 0
BBX 10 14 3 -1
BITMAP
1000
08C0
0F40
0840
1040
1080
2080
4100
8100
0200
0400
0800
1000
2000
ENDCHAR
STARTCHAR U_30B0
ENCODING 12464
SWIDTH 1000 0
DWIDTH 16 0
BBX 14 15 2 -1
BITMAP
0008
1024
08D4
0F50
0840
1040
1080
2080
4100
8100
0200
0400
0800
1000
2000
ENDCHAR
STARTCHAR U_30B1
ENCODING 12465
SWIDTH 1000 0
DWIDTH 16 0
BBX 13 14 2 -1
BITMAP
2000
1000
1078
1F80
1100
2080
2080
4080
8100
0100
0200
0400
0800
1000
ENDCHAR
STARTCHAR U_30B2
ENCODING 12466
SWIDTH 1000 0
DWIDTH 16 0
BBX 14 15 2 -1
BITMAP
0008
2024
1014
1070
1F80
1100
2080
2080
4080
8100
0100
0200
0400
0800
1000
ENDCHAR
STARTCHAR U_30B3
ENCODING 12467
SWIDTH 1000 0
DWIDTH 16 0
BBX 11 10 2 1
BITMAP
83E0
7C20
0020
0020
0020
0040
0040
0040
0FC0
7040
ENDCHAR
STARTCHAR U_30B4
ENCODING 12468
SWIDTH 1000 0
DWIDTH 16 0
BBX 14 13 2 1
BITMAP
0008
0024
0014
83F0
7C20
0020
0020
0020
0040
0040
0040
0FC0
7040
ENDCHAR
STARTCHAR U_30B5
ENCODING 12469
SWIDTH 1000 0
DWIDTH 16 0
BBX 13 15 2 -1
BITMAP
0080
1040
0840
0840
89F8
7E40
0840
0840
0840
0840
0080
0080
0100
0200
0400
ENDCHAR
STARTCHAR U_30B6
ENCODING 12470
SWIDTH 1000 0
DWIDTH 16 0
BBX 14 15 2 -1
BITMAP
0088
1064
0854
0850
89F8
7E40
0840
0840
0840
0840
0080
0080
0100
0200
0400
ENDCHAR
STARTCHAR U_30B7
ENCODING 12471
SWIDTH 1000 0
DWIDTH 16 0
BBX 12 13 3 -1
BITMAP
6000
1000
0000
0000
C010
2020
0040
0080
0100
0200
0400
9800
6000
ENDCHAR
STARTCHAR U_30B8
ENCODING 12472
SWIDTH 1000 0
DWIDTH 16 0
BBX 13 15 3 -1
BITMAP
0010
0048
6028
1020
0000
0000
C010
2020
0040
0080
0100
0200
0400
9800
6000
ENDCHAR
STARTCHAR U_30B9
ENCODING 12473
SWIDTH 1000 0
DWIDTH 16 0
BBX 13 12 1 -1
BITMAP
21C0
1E40
0040
0080
0080
0100
0180
0240
0420
0810
3008
C008
ENDCHAR
STARTCHAR U_30BA
ENCODING 12474
SWIDTH 1000 0
DWIDTH 16 0
BBX 14 14 1 -1
BITMAP
0008
0024
21D4
1E50
0040
0080
0080
0100
0180
0240
0420
0810
3008
C008
ENDCHAR
STARTCHAR U_30BB
ENCODING 12475
SWIDTH 1000 0
DWIDTH 16 0
BBX 13 13 2 0
BITMAP
1000
0800
0800
0878
0B88
8C10
7820
0840
0880
0800
0800
0400
03F0
ENDCHAR
STARTCHAR U_30BC
ENCODING 12476
SWIDTH 1000 0
DWIDTH 16 0
BBX 15 14 1 0
BITMAP
0004
1012
080A
0808
0878
0B88
8C10
7820
0840
0880
0800
0800
0400
03F0
ENDCHAR
STARTCHAR U_30BD
ENCODING 12477
SWIDTH 1000 0
DWIDTH 16 0
BBX 11 14 3 -1
BITMAP
0040
8020
4020
2020
2040
2040
0080
0080
0100
0200
0400
0800
1000
2000
ENDCHAR
STARTCHAR U_30BE
ENCODING 12478
SWIDTH 1000 0
DWIDTH 16 0
BBX 14 15 2 -1
BITMAP
0008
00A4
8054
4050
2040
2080
2080
0080
0100
0100
0200
0400
0800
1000
2000
ENDCHAR
STARTCHAR U_30BF
ENCODING 12479
SWIDTH 1000 0
DWIDTH 16 0
BBX 11 14 2 -1
BITMAP
1000
08E0
0F20
0820
1040
1040
2680
4180
8100
0200
0400
0800
3000
C000
ENDCHAR
STARTCHAR U_30C0
ENCODING 12480
SWIDTH 1000 0
DWIDTH 16 0
BBX 15 15 1 -1
BITMAP
0004
0812
040A
07E8
0420
0820
1040
2640
4180
8100
0200
0400
0800
3000
C000
ENDCHAR
STARTCHAR U_30C1
ENCODING 12481
SWIDTH 1000 0
DWIDTH 16 0
BBX 13 14 2 -1
BITMAP
0040
0180
3E00
0200
0100
01F8
8F00
7100
0100
0100
0200
0200
0400
0800
ENDCHAR
STARTCHAR U_30C2
ENCODING 12482
SWIDTH 1000 0
DWIDTH 16 0
BBX 14 15 2 -1
BITMAP
0008
0064
0194
3E10
0200
0100
01F8
8F00
7100
0100
0100
0200
0200
0400
0800
ENDCHAR
STARTCHAR U_30C3
ENCODING 12483
SWIDTH 1000 0
DWIDTH 16 0
BBX 9 9 3 -1
BITMAP
1100
8880
4880
4100
0100
0200
0400
0800
1000
ENDCHAR
STARTCHAR U_30C4
ENCODING 12484
SWIDTH 1000 0
DWIDTH 16 0
BBX 12 13 2 -1
BITMAP
0820
8410
4210
2210
2220
2020
0040
0040
0080
0100
0200
0400
1800
ENDCHAR
STARTCHAR U_30C5
ENCODING 12485
SWIDTH 1000 0
DWIDTH 16 0
BBX 15 15 1 -1
BITMAP
0004
0012
080A
8428
4210
2210
2220
2020
0040
0040
0080
0100
0200
0400
1800
ENDCHAR
STARTCHAR U_30C6
ENCODING 12486
SWIDTH 1000 0
DWIDTH 16 0
BBX 13 13 2 -1
BITMAP
21C0
1E00
0000
0000
00F8
8700
7900
0100
0200
0200
0400
0800
1000
ENDCHAR
STARTCHAR U_30C7
ENCODING 12487
SWIDTH 1000 0
DWIDTH 16 0
BBX 13 15 2 -1
BITMAP
0010
0048
21E8
1E20
0000
0000
00F8
8700
7900
0100
0200
0200
0400
0800
1000
ENDCHAR
STARTCHAR U_30C8
ENCODING 12488
SWIDTH 1000 0
DWIDTH 16 0
BBX 8 15 5 -2
BITMAP
80
40
40
40
40
70
4C
42
41
40
40
40
40
40
40
ENDCHAR
STARTCHAR U_30C9
ENCODING 12489
SWIDTH 1000 0
DWIDTH 16 0
BBX 10 15 5 -2
BITMAP
8080
4240
4140
4100
4000
7000
4C00
4200
4100
4000
4000
4000
4000
4000
4000
ENDCHAR
STARTCHAR U_30CA
ENCODING 12490
SWIDTH 1000 0
DWIDTH 16 0
BBX 13 14 2 -1
BITMAP
0200
0100
0100
0100
81F8
7F00
0100
0100
0100
0200
0200
0400
0800
1000
ENDCHAR
STARTCHAR U_30CB
ENCODING 12491
SWIDTH 1000 0
DWIDTH 16 0
BBX 13 9 2 1
BITMAP
21C0
1E00
0000
0000
0000
0000
0000
03F0
FC08
ENDCHAR
STARTCHAR U_30CC
ENCODING 12492
SWIDTH 1000 0
DWIDTH 16 0
BBX 12 13 2 -1
BITMAP
21E0
1E20
0020
0040
1840
0680
0100
0180
0240
0420
0810
3000
C000
ENDCHAR
STARTCHAR U_30CD
ENCODING 12493
SWIDTH 1000 0
DWIDTH 16 0
BBX 13 15 2 -1
BITMAP
0400
0200
0200
43E0
3C20
0040
0080
0100
06C0
1A30
E208
0200
0200
0200
0200
ENDCHAR
STARTCHAR U_30CE
ENCODING 12494
SWIDTH 1000 0
DWIDTH 16 0
BBX 9 14 4 -1
BITMAP
0100
0080
0080
0080
0100
0100
0200
0200
0400
0800
1000
2000
4000
8000
ENDCHAR
STARTCHAR U_30CF
ENCODING 12495
SWIDTH 1000 0
DWIDTH 16 0
BBX 14 10 1 0
BITMAP
0080
0840
0420
0410
0810
0808
1008
2004
4004
8004
ENDCHAR
STARTCHAR U_30D0
ENCODING 12496
SWIDTH 1000 0
DWIDTH 16 0
BBX 14 13 1 0
BITMAP
0008
0024
0014
0890
0440
0420
0810
0810
1008
1008
2004
4004
8004
ENDCHAR
STARTCHAR U_30D1
ENCODING 12497
SWIDTH 1000 0
DWIDTH 16 0
BBX 14 13 1 0
BITMAP
0018
0024
0024
0898
0440
0420
0810
0810
1008
1008
2004
4004
8004
ENDCHAR
STARTCHAR U_30D2
ENCODING 12498
SWIDTH 1000 0
DWIDTH 16 0
BBX 11 13 2 0
BITMAP
8000
4000
4000
4000
40C0
4700
7800
4000
4000
4000
4000
2000
1FE0
ENDCHAR
STARTCHAR U_30D3
ENCODING 12499
SWIDTH 1000 0
DWIDTH 16 0
BBX 13 13 2 0
BITMAP
8010
4048
4028
4020
4180
4600
7800
4000
4000
4000
4000
2000
1FE0
ENDCHAR
STARTCHAR U_30D4
ENCODING 12500
SWIDTH 1000 0
DWIDTH 16 0
BBX 13 13 1 0
BITMAP
8030
4048
4048
4030
4180
4600
7800
4000
4000
4000
4000
2000
1FE0
ENDCHAR
STARTCHAR U_30D5
ENCODING 12501
SWIDTH 1000 0
DWIDTH 16 0
BBX 12 13 2 -1
BITMAP
81F0
7E10
0010
0020
0020
0040
0040
0080
0100
0200
0400
0800
3000
ENDCHAR
STARTCHAR U_30D6
ENCODING 12502
SWIDTH 1000 0
DWIDTH 16 0
BBX 15 15 1 -1
BITMAP
0004
0012
81EA
7E28
0020
0040
0040
0080
0080
0100
0200
0400
0800
1000
6000
ENDCHAR
STARTCHAR U_30D7
ENCODING 12503
SWIDTH 1000 0
DWIDTH 16 0
BBX 14 15 2 -1
BITMAP
0018
0024
81E4
7E38
0020
0040
0040
0080
0080
0100
0200
0400
0800
1000
6000
ENDCHAR
STARTCHAR U_30D8
ENCODING 12504
SWIDTH 1000 0
DWIDTH 16 0
BBX 15 8 1 2
BITMAP
0200
0500
0880
1040
A020
4010
0008
0006
ENDCHAR
STARTCHAR U_30D9
ENCODING 12505
SWIDTH 1000 0
DWIDTH 16 0
BBX 15 10 1 2
BITMAP
0008
0024
0214
0510
0880
1040
A020
4010
0008
0006
ENDCHAR
STARTCHAR U_30DA
ENCODING 12506
SWIDTH 1000 0
DWIDTH 16 0
BBX 15 10 1 2
BITMAP
0018
0024
0224
0518
0880
1040
A020
4010
0008
0006
ENDCHAR
STARTCHAR U_30DB
ENCODING 12507
SWIDTH 1000 0
DWIDTH 16 0
BBX 13 14 2 -1
BITMAP
0400
0200
0200
83F0
7E00
0200
0240
1220
1210
2208
2208
4200
8600
0200
ENDCHAR
STARTCHAR U_30DC
ENCODING 12508
SWIDTH 1000 0
DWIDTH 16 0
BBX 14 15 2 -1
BITMAP
0008
0424
0214
0210
83F0
7E00
0200
0240
1220
1210
2208
2208
4200
8600
0200
ENDCHAR
STARTCHAR U_30DD
ENCODING 12509
SWIDTH 1000 0
DWIDTH 16 0
BBX 14 14 2 0
BITMAP
0418
0224
0224
83F8
7E00
0200
0240
1220
1210
2208
2208
4200
8600
0200
ENDCHAR
STARTCHAR U_30DE
ENCODING 12510
SWIDTH 1000 0
DWIDTH 16 0
BBX 12 11 2 0
BITMAP
81F0
7E10
0020
0020
0040
3080
0D00
0200
0100
0080
0080
ENDCHAR
STARTCHAR U_30DF
ENCODING 12511
SWIDTH 1000 0
DWIDTH 16 0
BBX 9 15 3 -2
BITMAP
3000
0C00
0300
0080
0000
3000
0C00
0200
0100
8000
6000
1800
0600
0100
0080
ENDCHAR
STARTCHAR U_30E0
ENCODING 12512
SWIDTH 1000 0
DWIDTH 16 0
BBX 13 14 2 -1
BITMAP
0400
0200
0200
0200
0200
0480
0440
0420
0820
08F0
9710
7808
0008
0008
ENDCHAR
STARTCHAR U_30E1
ENCODING 12513
SWIDTH 1000 0
DWIDTH 16 0
BBX 11 14 3 -1
BITMAP
0080
0040
0040
0040
3080
0C80
0300
0180
0140
0220
0400
0800
3000
C000
ENDCHAR
STARTCHAR U_30E2
ENCODING 12514
SWIDTH 1000 0
DWIDTH 16 0
BBX 13 12 1 0
BITMAP
21E0
1E00
0400
0400
0400
87F8
7C00
0400
0400
0400
0200
01F0
ENDCHAR
STARTCHAR U_30E3
ENCODING 12515
SWIDTH 1000 0
DWIDTH 16 0
BBX 11 11 2 -2
BITMAP
2000
1000
11E0
0E20
9840
6880
0400
0400
0200
0200
0200
ENDCHAR
STARTCHAR U_30E4
ENCODING 12516
SWIDTH 1000 0
DWIDTH 16 0
BBX 13 14 2 -1
BITMAP
2000
1000
1038
0BC8
9C10
6820
0440
0480
0200
0200
0200
0100
0100
0100
ENDCHAR
STARTCHAR U_30E5
ENCODING 12517
SWIDTH 1000 0
DWIDTH 16 0
BBX 11 6 2 0
BITMAP
0700
3900
0100
0200
07C0
F820
ENDCHAR
STARTCHAR U_30E6
ENCODING 12518
SWIDTH 1000 0
DWIDTH 16 0
BBX 13 9 2 1
BITMAP
21C0
1E40
0040
0040
0080
0080
0080
0FF0
F008
ENDCHAR
STARTCHAR U_30E7
ENCODING 12519
SWIDTH 1000 0
DWIDTH 16 0
BBX 8 9 4 -1
BITMAP
0F
F1
01
01
0E
72
02
0E
F1
ENDCHAR
STARTCHAR U_30E8
ENCODING 12520
SWIDTH 1000 0
DWIDTH 16 0
BBX 10 12 3 0
BITMAP
0FC0
F040
0040
0040
0040
0780
7880
0080
0080
0080
0780
F840
ENDCHAR
STARTCHAR U_30E9
ENCODING 12521
SWIDTH 1000 0
DWIDTH 16 0
BBX 12 14 2 -1
BITMAP
43C0
3C00
0000
0000
00F0
8F10
7010
0020
0020
0040
0080
0100
0600
1800
ENDCHAR
STARTCHAR U_30EA
ENCODING 12522
SWIDTH 1000 0
DWIDTH 16 0
BBX 8 15 4 -1
BITMAP
02
81
41
41
41
41
41
41
41
41
02
02
04
08
10
ENDCHAR
STARTCHAR U_30EB
ENCODING 12523
SWIDTH 1000 0
DWIDTH 16 0
BBX 14 14 2 -1
BITMAP
0200
0100
2100
1100
1104
1104
1108
1108
1110
1120
2140
2180
4100
8000
ENDCHAR
STARTCHAR U_30EC
ENCODING 12524
SWIDTH 1000 0
DWIDTH 16 0
BBX 10 14 4 -1
BITMAP
8000
4000
4000
4000
4000
4000
4000
4040
4080
4100
4200
4C00
7000
4000
ENDCHAR
STARTCHAR U_30ED
ENCODING 12525
SWIDTH 1000 0
DWIDTH 16 0
BBX 12 12 2 0
BITMAP
8000
43F0
7C10
4010
2010
2010
2020
2020
2020
23E0
3C10
2000
ENDCHAR
STARTCHAR U_30EE
ENCODING 12526
SWIDTH 1000 0
DWIDTH 16 0
BBX 9 9 4 -1
BITMAP
8780
7880
4080
4100
4100
0200
0400
0800
1000
ENDCHAR
STARTCHAR U_30EF
ENCODING 12527
SWIDTH 1000 0
DWIDTH 16 0
BBX 12 12 2 -1
BITMAP
81F0
7E10
4010
2010
2020
2020
2040
0040
0080
0100
0200
0400
ENDCHAR
STARTCHAR U_30F0
ENCODING 12528
SWIDTH 1000 0
DWIDTH 16 0
BBX 14 14 1 -1
BITMAP
0100
0080
0080
41F8
3E80
1080
1080
0880
09F8
FE84
0080
0080
0080
0080
ENDCHAR
STARTCHAR U_30F1
ENCODING 12529
SWIDTH 1000 0
DWIDTH 16 0
BBX 13 10 1 1
BITMAP
21F0
1E20
0040
0280
0200
0200
0200
0200
03F0
FC08
ENDCHAR
STARTCHAR U_30F2
ENCODING 12530
SWIDTH 1000 0
DWIDTH 16 0
BBX 10 12 4 0
BITMAP
83C0
7C40
0040
0040
0780
7880
0100
0100
0200
0400
1800
E000
ENDCHAR
STARTCHAR U_30F3
ENCODING 12531
SWIDTH 1000 0
DWIDTH 16 0
BBX 12 12 3 -1
BITMAP
C000
2010
1010
0020
0020
0040
0080
0100
0200
0400
9800
6000
ENDCHAR
STARTCHAR U_30F4
ENCODING 12532
SWIDTH 1000 0
DWIDTH 16 0
BBX 13 15 3 -1
BITMAP
0010
0848
0428
0420
87E0
F820
4020
4040
4040
4080
0080
0100
0200
0400
0800
ENDCHAR
STARTCHAR U_30F5
ENCODING 12533
SWIDTH 1000 0
DWIDTH 16 0
BBX 9 11 3 -1
BITMAP
0800
0800
0800
8F80
7880
0880
1080
1100
2100
4500
8200
ENDCHAR
STARTCHAR U_30F6
ENCODING 12534
SWIDTH 1000 0
DWIDTH 16 0
BBX 9 11 4 -1
BITMAP
4000
2000
2380
3C00
2200
4200
8400
0400
0800
1000
2000
ENDCHAR
STARTCHAR U_3105
ENCODING 12549
SWIDTH 1000 0
DWIDTH 16 0
BBX 11 13 2 0
BITMAP
0800
1800
1040
2FE0
F020
0020
0060
0040
0040
00C0
0080
0F00
0700
ENDCHAR
STARTCHAR U_3106
ENCODING 12550
SWIDTH 1000 0
DWIDTH 16 0
BBX 12 13 2 -1
BITMAP
0600
0400
0C00
0FE0
3040
0080
0980
0700
0700
0CC0
1060
6030
8010
ENDCHAR
STARTCHAR U_3107
ENCODING 12551
SWIDTH 1000 0
DWIDTH 16 0
BBX 12 12 2 0
BITMAP
0060
FFB0
4020
4020
4020
4020
4020
4020
4020
4020
4020
0020
ENDCHAR
STARTCHAR U_3108
ENCODING 12552
SWIDTH 1000 0
DWIDTH 16 0
BBX 11 10 3 1
BITMAP
0180
FFC0
8000
8000
8000
8000
8000
8000
8000
7FE0
ENDCHAR
STARTCHAR U_3109
ENCODING 12553
SWIDTH 1000 0
DWIDTH 16 0
BBX 12 14 2 -1
BITMAP
0800
0800
1000
2060
7FF0
C430
0420
0C20
1820
1040
2040
42C0
8180
0100
ENDCHAR
STARTCHAR U_310A
ENCODING 12554
SWIDTH 1000 0
DWIDTH 16 0
BBX 14 13 1 -1
BITMAP
0180
0180
0100
0100
87FC
7A00
0200
0200
0440
0420
0BE0
0C10
0010
ENDCHAR
STARTCHAR U_310B
ENCODING 12555
SWIDTH 1000 0
DWIDTH 16 0
BBX 9 13 4 -1
BITMAP
1E00
E200
0400
0400
0F80
0180
0100
0100
0200
0200
2400
1C00
1000
ENDCHAR
STARTCHAR U_310C
ENCODING 12556
SWIDTH 1000 0
DWIDTH 16 0
BBX 11 14 3 -1
BITMAP
0400
0600
4400
4440
5FE0
E840
0840
1040
1040
2080
2080
4180
0300
0200
ENDCHAR
STARTCHAR U_310D
ENCODING 12557
SWIDTH 1000 0
DWIDTH 16 0
BBX 11 14 3 -1
BITMAP
1080
18E0
10C0
1080
2080
6100
4200
8400
C200
4100
2080
1080
1840
0040
ENDCHAR
STARTCHAR U_310E
ENCODING 12558
SWIDTH 1000 0
DWIDTH 16 0
BBX 13 13 2 -1
BITMAP
0020
FFF8
0C00
0800
1FE0
1060
0040
0040
00C0
0080
0580
0700
0200
ENDCHAR
STARTCHAR U_310F
ENCODING 12559
SWIDTH 1000 0
DWIDTH 16 0
BBX 13 12 2 1
BITMAP
0078
1F80
1000
1000
1000
1000
2000
2000
2000
4000
4000
8000
ENDCHAR
STARTCHAR U_3110
ENCODING 12560
SWIDTH 1000 0
DWIDTH 16 0
BBX 7 15 4 -1
BITMAP
04
02
02
02
62
42
42
46
5A
E2
82
02
02
02
02
ENDCHAR
STARTCHAR U_3111
ENCODING 12561
SWIDTH 1000 0
DWIDTH 16 0
BBX 10 13 4 0
BITMAP
0100
0180
0380
0600
0C00
3000
C000
6000
1800
0400
0300
0180
00C0
ENDCHAR
STARTCHAR U_3112
ENCODING 12562
SWIDTH 1000 0
DWIDTH 16 0
BBX 13 12 2 0
BITMAP
FFF8
7200
0200
0200
0200
0200
0200
0200
0200
0200
0200
0200
ENDCHAR
STARTCHAR U_3113
ENCODING 12563
SWIDTH 1000 0
DWIDTH 16 0
BBX 13 12 1 0
BITMAP
0400
0200
0200
2220
2220
2220
23E0
3E20
0200
0200
FFF8
4000
ENDCHAR
STARTCHAR U_3114
ENCODING 12564
SWIDTH 1000 0
DWIDTH 16 0
BBX 10 15 3 -1
BITMAP
0200
0180
0300
0400
08C0
3180
0300
0600
1A00
2200
C200
0200
0200
0200
0200
ENDCHAR
STARTCHAR U_3115
ENCODING 12565
SWIDTH 1000 0
DWIDTH 16 0
BBX 12 12 3 1
BITMAP
00E0
7F70
0060
0060
23C0
3C00
2000
2000
2000
2000
4000
8000
ENDCHAR
STARTCHAR U_3116
ENCODING 12566
SWIDTH 1000 0
DWIDTH 16 0
BBX 10 11 3 1
BITMAP
1F80
E0C0
8080
8080
9080
8C80
8480
8080
8080
FF80
C100
ENDCHAR
STARTCHAR U_3117
ENCODING 12567
SWIDTH 1000 0
DWIDTH 16 0
BBX 11 12 3 0
BITMAP
07E0
F820
0820
0820
0840
0840
09C0
0880
0800
0800
0800
0800
ENDCHAR
STARTCHAR U_3118
ENCODING 12568
SWIDTH 1000 0
DWIDTH 16 0
BBX 13 14 2 -1
BITMAP
0600
0200
0200
0400
FFF8
0400
0400
0800
0FC0
08C0
0080
0100
0300
0200
ENDCHAR
STARTCHAR U_3119
ENCODING 12569
SWIDTH 1000 0
DWIDTH 16 0
BBX 12 12 2 0
BITMAP
0400
0600
0600
0400
0C00
0800
1000
2080
6040
40E0
FF30
8010
ENDCHAR
STARTCHAR U_311A
ENCODING 12570
SWIDTH 1000 0
DWIDTH 16 0
BBX 11 12 2 0
BITMAP
C040
E0E0
3180
0B00
0400
0400
0400
0400
0400
0400
0400
0400
ENDCHAR
STARTCHAR U_311B
ENCODING 12571
SWIDTH 1000 0
DWIDTH 16 0
BBX 13 10 2 1
BITMAP
FFF8
0100
0100
0100
3F00
6000
4000
4000
3060
1F80
ENDCHAR
STARTCHAR U_311C
ENCODING 12572
SWIDTH 1000 0
DWIDTH 16 0
BBX 12 14 2 -1
BITMAP
0400
0200
0200
0200
0FF0
F200
0200
1E00
2000
4000
4000
4000
2040
1F80
ENDCHAR
STARTCHAR U_311D
ENCODING 12573
SWIDTH 1000 0
DWIDTH 16 0
BBX 14 11 1 0
BITMAP
1860
0840
0840
09FC
1E40
E880
0880
0880
0800
0800
07E0
ENDCHAR
STARTCHAR U_311E
ENCODING 12574
SWIDTH 1000 0
DWIDTH 16 0
BBX 11 12 3 0
BITMAP
FFE0
4400
4400
CC80
FFC0
08C0
10C0
1080
2080
4100
8100
0200
ENDCHAR
STARTCHAR U_311F
ENCODING 12575
SWIDTH 1000 0
DWIDTH 16 0
BBX 12 11 2 0
BITMAP
0600
1A00
E200
0200
0200
0100
0100
0080
0040
0070
0030
ENDCHAR
STARTCHAR U_3120
ENCODING 12576
SWIDTH 1000 0
DWIDTH 16 0
BBX 11 13 2 -1
BITMAP
0600
0600
0440
0860
0860
10C0
3F80
E300
0600
0880
10C0
7F20
4020
ENDCHAR
STARTCHAR U_3121
ENCODING 12577
SWIDTH 1000 0
DWIDTH 16 0
BBX 12 12 2 0
BITMAP
00E0
3F60
0040
1080
0980
0700
0300
04C0
0860
1030
6010
8000
ENDCHAR
STARTCHAR U_3122
ENCODING 12578
SWIDTH 1000 0
DWIDTH 16 0
BBX 12 12 2 0
BITMAP
3FC0
0040
1080
2080
2100
7FF0
C030
0020
0040
00C0
0080
0100
ENDCHAR
STARTCHAR U_3123
ENCODING 12579
SWIDTH 1000 0
DWIDTH 16 0
BBX 12 12 2 0
BITMAP
3000
2000
2000
6000
4000
47F0
F830
0020
0020
0040
0040
0080
ENDCHAR
STARTCHAR U_3124
ENCODING 12580
SWIDTH 1000 0
DWIDTH 16 0
BBX 13 13 2 -1
BITMAP
0200
0200
0200
0400
07E0
7E00
0A00
0A00
1A00
1200
2200
4200
81F8
ENDCHAR
STARTCHAR U_3125
ENCODING 12581
SWIDTH 1000 0
DWIDTH 16 0
BBX 13 12 1 1
BITMAP
0200
0180
0180
0300
0200
0600
0400
0800
1800
1000
2FF8
F000
ENDCHAR
STARTCHAR U_3126
ENCODING 12582
SWIDTH 1000 0
DWIDTH 16 0
BBX 13 12 2 0
BITMAP
0100
1980
1100
1100
1100
1100
1100
2100
2100
2100
4100
80F8
ENDCHAR
STARTCHAR U_3127
ENCODING 12583
SWIDTH 1000 0
DWIDTH 18 0
BBX 17 18 0 -3
BITMAP
010000
018000
010000
010000
010000
010000
010000
010000
010000
010000
010000
010000
010000
010000
010000
010000
000000
000000
ENDCHAR
STARTCHAR U_3128
ENCODING 12584
SWIDTH 1000 0
DWIDTH 16 0
BBX 11 12 3 0
BITMAP
00C0
00C0
2080
1100
0B00
0600
0600
0900
1180
20C0
4060
8060
ENDCHAR
STARTCHAR U_3129
ENCODING 12585
SWIDTH 1000 0
DWIDTH 16 0
BBX 10 12 3 0
BITMAP
8080
C0C0
4040
4040
4040
4040
4040
4040
8040
8040
FFC0
0040
ENDCHAR
STARTCHAR U_319C
ENCODING 12700
SWIDTH 1000 0
DWIDTH 18 0
BBX 17 18 0 -3
BITMAP
FF8000
080000
080000
080000
080000
080000
180000
080000
000000
000000
000000
000000
000000
000000
000000
000000
000000
000000
ENDCHAR
STARTCHAR U_319E
ENCODING 12702
SWIDTH 1000 0
DWIDTH 18 0
BBX 17 18 0 -3
BITMAP
440000
440000
4C0000
EF0040
5D0000
4D0000
6B8000
488000
8F8040
000000
000000
000000
000000
000000
000000
000000
000000
000000
ENDCHAR
STARTCHAR U_31C2
ENCODING 12738
SWIDTH 1000 0
DWIDTH 18 0
BBX 17 18 0 -3
BITMAP
080000
080000
080000
080000
080000
040000
040000
040000
040000
040000
020000
020000
020000
014000
014000
008000
000000
000000
ENDCHAR
STARTCHAR U_31C3
ENCODING 12739
SWIDTH 1000 0
DWIDTH 18 0
BBX 17 18 0 -3
BITMAP
000000
000000
000000
000000
000000
800000
400000
200000
180800
060400
01C200
003C00
000000
000000
000000
000000
000000
000000
ENDCHAR
STARTCHAR U_31C9
ENCODING 12745
SWIDTH 1000 0
DWIDTH 18 0
BBX 17 18 0 -3
BITMAP
000000
000000
000000
000000
000000
400000
400000
400000
400000
400000
7FE000
002000
002000
004000
024000
018000
000000
000000
ENDCHAR
STARTCHAR U_31CA
ENCODING 12746
SWIDTH 1000 0
DWIDTH 18 0
BBX 17 18 0 -3
BITMAP
000000
000000
000000
000000
000000
000000
000000
F80000
080000
080000
080000
080000
088000
0B0000
0C0000
000000
000000
000000
ENDCHAR
STARTCHAR U_31CB
ENCODING 12747
SWIDTH 1000 0
DWIDTH 18 0
BBX 17 18 0 -3
BITMAP
000000
000000
000000
000000
000000
FF8000
010000
020000
03C000
004000
004000
008000
010000
020000
040000
180000
000000
000000
ENDCHAR
STARTCHAR U_3220
ENCODING 12832
SWIDTH 1000 0
DWIDTH 16 0
BBX 15 14 0 -1
BITMAP
2008
4004
4004
8002
8002
8002
8012
BFFA
8002
8002
8002
4004
4004
2008
ENDCHAR
STARTCHAR U_3221
ENCODING 12833
SWIDTH 1000 0
DWIDTH 16 0
BBX 15 14 0 -1
BITMAP
2008
4004
4044
8FE2
8002
8002
8002
8002
8012
BFFA
8002
4004
4004
2008
ENDCHAR
STARTCHAR U_3222
ENCODING 12834
SWIDTH 1000 0
DWIDTH 16 0
BBX 15 14 0 -1
BITMAP
2008
4004
4024
9FF2
8002
8002
8022
8FF2
8002
8012
BFFA
4004
4004
2008
ENDCHAR
STARTCHAR U_3223
ENCODING 12835
SWIDTH 1000 0
DWIDTH 16 0
BBX 15 14 0 -1
BITMAP
2008
4004
5FF4
9292
9292
9292
9292
9492
98F2
9012
9FF2
5014
4004
2008
ENDCHAR
STARTCHAR U_3224
ENCODING 12836
SWIDTH 1000 0
DWIDTH 16 0
BBX 15 14 0 -1
BITMAP
2008
4024
5FF4
8102
8102
9FE2
8222
8222
8422
8422
BFFA
4004
4004
2008
ENDCHAR
STARTCHAR U_3225
ENCODING 12837
SWIDTH 1000 0
DWIDTH 16 0
BBX 15 14 0 -1
BITMAP
2008
4104
4104
8112
9FFA
8002
8002
8442
8422
8812
9012
4004
4004
2008
ENDCHAR
STARTCHAR U_3226
ENCODING 12838
SWIDTH 1000 0
DWIDTH 16 0
BBX 15 14 0 -1
BITMAP
2008
4404
4404
8402
843A
87C2
BC02
8402
8402
8412
8412
43F4
4004
2008
ENDCHAR
STARTCHAR U_3227
ENCODING 12839
SWIDTH 1000 0
DWIDTH 16 0
BBX 15 14 0 -1
BITMAP
2008
43C4
4044
8042
8442
8442
8442
8422
8822
8812
900A
6004
4004
2008
ENDCHAR
STARTCHAR U_3228
ENCODING 12840
SWIDTH 1000 0
DWIDTH 16 0
BBX 15 14 0 -1
BITMAP
2008
4204
4204
8202
9FE2
8222
8222
8222
8422
842A
882A
501C
4004
2008
ENDCHAR
STARTCHAR U_3229
ENCODING 12841
SWIDTH 1000 0
DWIDTH 16 0
BBX 15 14 0 -1
BITMAP
2008
4104
4104
8102
8102
8112
BFFA
8102
8102
8102
8102
4104
4104
2008
ENDCHAR
STARTCHAR U_3247
ENCODING 12871
SWIDTH 1000 0
DWIDTH 18 0
BBX 17 18 0 -3
BITMAP
03C000
0C3000
124800
277400
4AA200
407200
8FA100
854100
8FF100
811100
4FFA00
411200
2FF400
130800
0C3000
03C000
000000
000000
ENDCHAR
STARTCHAR U_3280
ENCODING 12928
SWIDTH 1000 0
DWIDTH 18 0
BBX 17 18 0 -3
BITMAP
03C000
0C3000
100800
200400
400200
400200
800100
800100
9FF900
800100
400200
400200
200400
100800
0C3000
03C000
000000
000000
ENDCHAR
STARTCHAR U_32A3
ENCODING 12963
SWIDTH 1000 0
DWIDTH 16 0
BBX 14 14 1 -1
BITMAP
0FC0
1020
3FF0
4108
8104
8904
89E4
8904
8904
8904
7FF8
2010
1020
0FC0
ENDCHAR
STARTCHAR U_338E
ENCODING 13198
SWIDTH 1000 0
DWIDTH 16 0
BBX 15 11 0 -2
BITMAP
D400
6A36
4A4A
4A48
4A48
4A30
4A40
4A38
4AC4
0084
0078
ENDCHAR
STARTCHAR U_338F
ENCODING 13199
SWIDTH 1000 0
DWIDTH 16 0
BBX 14 15 1 -2
BITMAP
4000
C000
4000
4000
5CE8
4914
5110
6110
5110
48E0
4980
ECF0
0108
0108
00F0
ENDCHAR
STARTCHAR U_339C
ENCODING 13212
SWIDTH 1000 0
DWIDTH 16 0
BBX 14 8 0 1
BITMAP
B4A8
4A54
4A54
4A54
4A54
4A54
4A54
4A54
ENDCHAR
STARTCHAR U_339D
ENCODING 13213
SWIDTH 1000 0
DWIDTH 16 0
BBX 13 8 1 1
BITMAP
3AD0
4528
8128
8128
8128
8128
4528
3928
ENDCHAR
STARTCHAR U_339E
ENCODING 13214
SWIDTH 1000 0
DWIDTH 16 0
BBX 13 12 1 1
BITMAP
4000
C000
4000
4000
5D50
48A8
50A8
60A8
50A8
48A8
48A8
ECA8
ENDCHAR
STARTCHAR U_33A1
ENCODING 13217
SWIDTH 1000 0
DWIDTH 16 0
BBX 15 12 0 1
BITMAP
0004
000A
0002
0004
5CC8
E32E
4220
4220
4220
4220
4220
E770
ENDCHAR
STARTCHAR U_33C4
ENCODING 13252
SWIDTH 1000 0
DWIDTH 16 0
BBX 13 9 1 1
BITMAP
3870
4488
8100
8100
8100
8100
8100
4488
3870
ENDCHAR
STARTCHAR U_33CE
ENCODING 13262
SWIDTH 1000 0
DWIDTH 16 0
BBX 14 12 1 1
BITMAP
DD8C
4888
48D8
50D8
50D8
60A8
50A8
50A8
48A8
48A8
44A8
CF8C
ENDCHAR
STARTCHAR U_33D1
ENCODING 13265
SWIDTH 1000 0
DWIDTH 16 0
BBX 12 11 2 1
BITMAP
C000
4000
4000
42C0
4720
4220
4220
4220
4220
4220
E770
ENDCHAR
STARTCHAR U_33D2
ENCODING 13266
SWIDTH 1000 0
DWIDTH 16 0
BBX 15 14 0 -1
BITMAP
C000
4000
4000
4000
4636
494A
4948
4948
4948
4930
4960
E658
0084
0078
ENDCHAR
STARTCHAR U_33D5
ENCODING 13269
SWIDTH 1000 0
DWIDTH 16 0
BBX 15 12 0 1
BITMAP
004C
0044
0004
0004
A844
54C4
5444
5444
5444
5444
5444
54EE
ENDCHAR
STARTCHAR U_3400
ENCODING 13312
SWIDTH 1000 0
DWIDTH 18 0
BBX 17 18 0 -3
BITMAP
042000
042000
042000
042000
042000
042000
7C3E00
042000
042000
042000
042000
042000
042000
042000
042000
FFFF00
000000
000000
ENDCHAR
STARTCHAR U_3401
ENCODING 13313
SWIDTH 1000 0
DWIDTH 18 0
BBX 17 18 0 -3
BITMAP
FFFF00
010000
010000
010000
7FFE00
410200
410200
410200
428200
426200
443200
481200
500200
400200
7FFE00
400200
000000
000000
ENDCHAR
STARTCHAR U_3403
ENCODING 13315
SWIDTH 1000 0
DWIDTH 18 0
BBX 17 18 0 -3
BITMAP
010000
028000
044000
082000
101000
200800
400400
FFFE00
010000
010000
010000
010000
010000
010000
010000
010000
000000
000000
ENDCHAR
STARTCHAR U_34E0
ENCODING 13536
SWIDTH 1000 0
DWIDTH 18 0
BBX 17 18 0 -3
BITMAP
000000
000000
000000
000000
000000
000000
000000
000000
000000
000000
000000
000000
000000
000000
000000
000000
000000
000000
ENDCHAR
STARTCHAR U_35E0
ENCODING 13792
SWIDTH 1000 0
DWIDTH 18 0
BBX 17 18 0 -3
BITMAP
000000
000000
000000
000000
000000
000000
000000
000000
000000
000000
000000
000000
000000
000000
000000
000000
000000
000000
ENDCHAR
STARTCHAR U_3887
ENCODING 14471
SWIDTH 1000 0
DWIDTH 18 0
BBX 17 18 0 -3
BITMAP
008000
00C000
008200
7FFF00
402000
47F000
400000
5FFC00
400000
47F000
400000
47F000
400000
47F000
841000
87F000
000000
000000
ENDCHAR
STARTCHAR U_3890
ENCODING 14480
SWIDTH 1000 0
DWIDTH 18 0
BBX 17 18 0 -3
BITMAP
010000
008000
3FFE00
200000
27F000
241000
279000
249000
2FF800
280800
2BE800
2A2800
2BE800
280800
482800
881000
000000
000000
ENDCHAR
STARTCHAR U_3BC8
ENCODING 15304
SWIDTH 1000 0
DWIDTH 18 0
BBX 17 18 0 -3
BITMAP
100800
120800
117F00
110800
FC3F00
13A900
10A900
30BF00
388800
549C00
509A00
90A900
10C900
108800
114000
163F00
000000
000000
ENDCHAR
STARTCHAR U_4000
ENCODING 16384
SWIDTH 1000 0
DWIDTH 18 0
BBX 17 18 0 -3
BITMAP
41FE00
210200
810200
410200
090200
110A00
E10400
210100
20FF00
000000
7FFE00
442200
442200
442200
442200
FFFF00
000000
000000
ENDCHAR
STARTCHAR U_44EA
ENCODING 17642
SWIDTH 1000 0
DWIDTH 18 0
BBX 17 18 0 -3
BITMAP
042000
FFFF00
042000
000000
3FFC00
200400
3FFC00
200400
3FFC00
100000
1FFE00
221200
442200
884200
308A00
030400
000000
000000
ENDCHAR
STARTCHAR U_470C
ENCODING 18188
SWIDTH 1000 0
DWIDTH 18 0
BBX 17 18 0 -3
BITMAP
220400
210400
408800
47E800
881100
53CA00
500A00
23C400
200400
53CA00
B25600
CA5900
124200
4A4900
A3D400
825000
000000
000000
ENDCHAR
STARTCHAR U_493E
ENCODING 18750
SWIDTH 1000 0
DWIDTH 18 0
BBX 17 18 0 -3
BITMAP
000000
000000
000000
000000
000000
000000
000000
000000
000000
000000
000000
000000
000000
000000
000000
000000
000000
000000
ENDCHAR
STARTCHAR U_4979
ENCODING 18809
SWIDTH 1000 0
DWIDTH 18 0
BBX 17 18 0 -3
BITMAP
000000
000000
000000
000000
000000
000000
000000
000000
000000
000000
000000
000000
000000
000000
000000
000000
000000
000000
ENDCHAR
STARTCHAR U_4A1D
ENCODING 18973
SWIDTH 1000 0
DWIDTH 18 0
BBX 17 18 0 -3
BITMAP
3FFE00
008000
7FFF00
508900
8CB200
308C00
008000
3FFE00
008000
1FFC00
008000
7FFF00
080800
0FF800
080800
0FF800
080800
081800
ENDCHAR
STARTCHAR U_4CA2
ENCODING 19618
SWIDTH 1000 0
DWIDTH 18 0
BBX 17 18 0 -3
BITMAP
3E1000
229200
225400
22FE00
3E2000
222000
23FF00
224400
22A200
3F7D00
228800
227E00
224A00
427E00
4E4A00
83FF00
000000
000000
ENDCHAR
STARTCHAR U_4D00
ENCODING 19712
SWIDTH 1000 0
DWIDTH 18 0
BBX 17 18 0 -3
BITMAP
201000
102000
FEFC00
448400
28FC00
FE8400
00FC00
7C8000
54FC00
7C8000
54FE00
7C0200
115600
7D5600
100200
FE0600
000000
000000
ENDCHAR
STARTCHAR U_4DAF
ENCODING 19887
SWIDTH 1000 0
DWIDTH 18 0
BBX 17 18 0 -3
BITMAP
204000
204000
204000
247E00
FE8400
25FF00
44A500
84E700
49A400
2BFF00
11A500
282700
29A500
47FF00
45A100
821F00
000000
000000
ENDCHAR
STARTCHAR U_4DB0
ENCODING 19888
SWIDTH 1000 0
DWIDTH 18 0
BBX 17 18 0 -3
BITMAP
200300
3E0C00
447000
881000
7F1300
551C00
777000
141000
741300
FF1C00
757000
171000
751100
FF1100
709100
0F8F00
000000
000000
ENDCHAR
STARTCHAR U_4E00
ENCODING 19968
SWIDTH 1000 0
DWIDTH 18 0
BBX 17 18 0 -3
BITMAP
000000
000000
000000
000000
000000
000000
000000
FFFF00
000000
000000
000000
000000
000000
000000
000000
000000
000000
000000
ENDCHAR
STARTCHAR U_4E01
ENCODING 19969
SWIDTH 1000 0
DWIDTH 18 0
BBX 16 16 0 -3
BITMAP
0000
7FFE
0080
0080
0080
0080
0080
0080
0080
0080
0080
0080
0080
0080
0480
0300
ENDCHAR
STARTCHAR U_4E02
ENCODING 19970
SWIDTH 1000 0
DWIDTH 18 0
BBX 16 16 0 -3
BITMAP
0000
FFFF
0400
0400
0800
0800
1000
1FF8
0008
0008
0008
0008
0008
0008
0050
0020
ENDCHAR
STARTCHAR U_4E03
ENCODING 19971
SWIDTH 1000 0
DWIDTH 18 0
BBX 16 16 0 -3
BITMAP
0200
0200
0200
0200
0200
021E
07E0
FA00
0200
0200
0200
0202
0202
0202
01FE
0000
ENDCHAR
STARTCHAR U_4E04
ENCODING 19972
SWIDTH 1000 0
DWIDTH 18 0
BBX 16 16 0 -3
BITMAP
0080
0080
0080
0080
0080
0080
0080
0080
0080
0080
0080
0080
0080
0080
FFFF
0000
ENDCHAR
STARTCHAR U_4E05
ENCODING 19973
SWIDTH 1000 0
DWIDTH 18 0
BBX 16 16 0 -3
BITMAP
0000
FFFF
0080
0080
0080
0080
0080
0080
0080
0080
0080
0080
0080
0080
0080
0080
ENDCHAR
STARTCHAR U_4E06
ENCODING 19974
SWIDTH 1000 0
DWIDTH 18 0
BBX 16 16 0 -3
BITMAP
0000
FFFF
0200
0200
0400
0400
0800
0800
1000
2000
4000
8000
0000
0000
0000
0000
ENDCHAR
STARTCHAR U_4E07
ENCODING 19975
SWIDTH 1000 0
DWIDTH 18 0
BBX 16 16 0 -3
BITMAP
0000
0000
FFFF
0400
0400
0400
07F8
0408
0408
0808
0808
1008
1008
2008
4050
8020
ENDCHAR
STARTCHAR U_4E08
ENCODING 19976
SWIDTH 1000 0
DWIDTH 18 0
BBX 17 16 0 -3
BITMAP
004000
004000
004000
004000
7FFE00
004000
084000
084000
044000
048000
028000
010000
028000
046000
181800
E00700
ENDCHAR
STARTCHAR U_4E09
ENCODING 19977
SWIDTH 1000 0
DWIDTH 18 0
BBX 16 16 0 -3
BITMAP
0000
0000
7FFE
0000
0000
0000
0000
3FFC
0000
0000
0000
0000
0000
FFFF
0000
0000
ENDCHAR
STARTCHAR U_4E0A
ENCODING 19978
SWIDTH 1000 0
DWIDTH 18 0
BBX 16 16 0 -3
BITMAP
0200
0200
0200
0200
0200
0200
03FC
0200
0200
0200
0200
0200
0200
0200
FFFF
0000
ENDCHAR
STARTCHAR U_4E0B
ENCODING 19979
SWIDTH 1000 0
DWIDTH 18 0
BBX 17 16 0 -3
BITMAP
000000
FFFF00
010000
010000
010000
010000
012000
011000
010800
010400
010400
010000
010000
010000
010000
010000
ENDCHAR
STARTCHAR U_4E0C
ENCODING 19980
SWIDTH 1000 0
DWIDTH 18 0
BBX 16 16 0 -3
BITMAP
0000
FFFF
0810
0810
0810
0810
0810
0810
0810
0810
0810
1010
1010
2010
4010
8010
ENDCHAR
STARTCHAR U_4E0D
ENCODING 19981
SWIDTH 1000 0
DWIDTH 18 0
BBX 17 16 0 -3
BITMAP
000000
7FFE00
004000
004000
008000
018000
02A000
049000
088800
108400
208200
408200
808000
008000
008000
008000
ENDCHAR
STARTCHAR U_4E0E
ENCODING 19982
SWIDTH 1000 0
DWIDTH 18 0
BBX 16 16 0 -3
BITMAP
1000
1000
1000
1FFE
1000
2000
2000
3FFC
0004
0004
0004
FFE4
0004
0004
0028
0010
ENDCHAR
STARTCHAR U_4E0F
ENCODING 19983
SWIDTH 1000 0
DWIDTH 18 0
BBX 16 16 0 -3
BITMAP
0000
FFFF
0080
0080
2080
20FE
2082
2082
2082
3FFE
0002
0002
0002
0002
0014
0008
ENDCHAR
STARTCHAR U_4E10
ENCODING 19984
SWIDTH 1000 0
DWIDTH 18 0
BBX 16 16 0 -3
BITMAP
0000
FFFF
0080
0080
2080
20FE
2080
2080
2080
3FFE
0002
0002
0002
0002
0014
0008
ENDCHAR
STARTCHAR U_4E11
ENCODING 19985
SWIDTH 1000 0
DWIDTH 18 0
BBX 16 16 0 -3
BITMAP
0000
3FF8
0208
0208
0208
0208
0208
3FF8
0408
0408
0408
0408
0408
0408
FFFF
0000
ENDCHAR
STARTCHAR U_4E12
ENCODING 19986
SWIDTH 1000 0
DWIDTH 18 0
BBX 16 16 0 -3
BITMAP
0000
3FFC
0084
0084
0C84
0284
0104
0184
0244
0244
0C04
1028
2010
0000
FFFF
0000
ENDCHAR
STARTCHAR U_4E13
ENCODING 19987
SWIDTH 1000 0
DWIDTH 18 0
BBX 16 16 0 -3
BITMAP
0100
0100
0100
3FFC
0200
0200
FFFF
0400
0800
0FF8
0008
0010
0620
01C0
0020
0010
ENDCHAR
STARTCHAR U_4E14
ENCODING 19988
SWIDTH 1000 0
DWIDTH 18 0
BBX 17 16 0 -3
BITMAP
000000
0FF000
081000
081000
081000
0FF000
081000
081000
081000
0FF000
081000
081000
081000
081000
FFFF00
000000
ENDCHAR
STARTCHAR U_4E15
ENCODING 19989
SWIDTH 1000 0
DWIDTH 18 0
BBX 16 16 0 -3
BITMAP
0000
7FFE
0040
0080
0080
03A0
0490
0888
3084
C082
0080
0080
0080
0000
FFFF
0000
ENDCHAR
STARTCHAR U_4E16
ENCODING 19990
SWIDTH 1000 0
DWIDTH 18 0
BBX 16 16 0 -3
BITMAP
0210
1210
1210
1210
1210
FFFF
1210
1210
1210
1210
13F0
1000
1000
1000
1FFE
0000
ENDCHAR
STARTCHAR U_4E17
ENCODING 19991
SWIDTH 1000 0
DWIDTH 18 0
BBX 16 16 0 -3
BITMAP
1088
1088
1088
1088
1088
1088
FFFF
1088
1088
1088
1088
1088
1088
1088
1FF8
1008
ENDCHAR
STARTCHAR U_4E18
ENCODING 19992
SWIDTH 1000 0
DWIDTH 18 0
BBX 16 16 0 -3
BITMAP
0008
003C
1FC0
1000
1000
1000
1000
1FFE
1020
1020
1020
1020
1020
1020
FFFF
0000
ENDCHAR
STARTCHAR U_4E19
ENCODING 19993
SWIDTH 1000 0
DWIDTH 18 0
BBX 16 16 0 -3
BITMAP
0000
FFFF
0100
0100
0100
7FFE
4102
4102
42C2
4222
4412
4812
4002
4002
400A
4004
ENDCHAR
STARTCHAR U_4E1A
ENCODING 19994
SWIDTH 1000 0
DWIDTH 18 0
BBX 17 18 0 -3
BITMAP
042000
042000
042000
042000
842200
442200
242400
242400
142800
143000
042000
042000
042000
042000
FFFF00
000000
000000
000000
ENDCHAR
STARTCHAR U_4E1B
ENCODING 19995
SWIDTH 1000 0
DWIDTH 18 0
BBX 16 16 0 -3
BITMAP
0810
0810
0810
0810
0810
0810
0810
1428
1228
2244
2044
4182
8201
0000
FFFF
0000
ENDCHAR
STARTCHAR U_4E1C
ENCODING 19996
SWIDTH 1000 0
DWIDTH 18 0
BBX 16 16 0 -3
BITMAP
0200
0200
0200
7FFE
0400
0900
1100
2100
3FFC
0100
0910
1108
2104
4102
0500
0200
ENDCHAR
STARTCHAR U_4E1D
ENCODING 19997
SWIDTH 1000 0
DWIDTH 18 0
BBX 17 16 0 -3
BITMAP
080800
080800
101000
101000
222200
244400
7C7C00
080800
081000
101000
202000
7E7E00
000000
000000
FFFF00
000000
ENDCHAR
STARTCHAR U_4E1E
ENCODING 19998
SWIDTH 1000 0
DWIDTH 18 0
BBX 16 16 0 -3
BITMAP
0000
3FF8
0010
0020
00C0
7D02
05C4
0928
0910
1108
2104
4103
8500
0200
FFFF
0000
ENDCHAR
STARTCHAR U_4E1F
ENCODING 19999
SWIDTH 1000 0
DWIDTH 18 0
BBX 16 16 0 -3
BITMAP
0000
7FFE
0100
0100
0100
3FFC
0100
0100
0100
FFFF
0200
0400
0810
1008
3FFC
1004
ENDCHAR
STARTCHAR U_4E20
ENCODING 20000
SWIDTH 1000 0
DWIDTH 18 0
BBX 16 16 0 -3
BITMAP
0420
0420
0420
0422
7C24
0428
0430
0420
0421
0421
1C21
E41F
4400
0000
FFFF
0000
ENDCHAR
STARTCHAR U_4E21
ENCODING 20001
SWIDTH 1000 0
DWIDTH 18 0
BBX 16 16 0 -3
BITMAP
0000
FFFF
0080
0080
0080
7FFE
4082
4892
4892
4892
4892
4FF2
4012
4002
400A
4004
ENDCHAR
STARTCHAR U_4E22
ENCODING 20002
SWIDTH 1000 0
DWIDTH 18 0
BBX 16 16 0 -3
BITMAP
0008
00FC
3F00
0100
0100
3FFC
0100
0100
0100
FFFF
0200
0400
0810
1008
3FFC
1004
ENDCHAR
STARTCHAR U_4E23
ENCODING 20003
SWIDTH 1000 0
DWIDTH 18 0
BBX 16 16 0 -3
BITMAP
0000
FFFF
0420
0420
0420
7C3E
4422
4422
4422
7C3E
0422
0820
0820
1020
2020
4020
ENDCHAR
STARTCHAR U_4E24
ENCODING 20004
SWIDTH 1000 0
DWIDTH 18 0
BBX 16 16 0 -3
BITMAP
0000
FFFF
0420
0420
0420
7FFE
4422
4422
4422
4A52
4A4A
518A
4202
4002
400A
4004
ENDCHAR
STARTCHAR U_4E25
ENCODING 20005
SWIDTH 1000 0
DWIDTH 18 0
BBX 16 16 0 -3
BITMAP
0000
7FFE
0220
1224
0A28
0220
3FFF
2000
2000
2000
2000
2000
2000
4000
4000
8000
ENDCHAR
STARTCHAR U_4E26
ENCODING 20006
SWIDTH 1000 0
DWIDTH 18 0
BBX 16 16 0 -3
BITMAP
1008
0810
0420
7FFE
0420
0420
0420
4422
2422
1424
1428
0420
0420
0420
FFFF
0000
ENDCHAR
STARTCHAR U_4E27
ENCODING 20007
SWIDTH 1000 0
DWIDTH 18 0
BBX 16 16 0 -3
BITMAP
0100
0100
7FFE
0100
1108
0908
0910
0100
FFFF
1200
1108
10D0
1020
1418
1807
1000
ENDCHAR
STARTCHAR U_4E28
ENCODING 20008
SWIDTH 1000 0
DWIDTH 18 0
BBX 16 16 0 -3
BITMAP
0080
0080
0080
0080
0080
0080
0080
0080
0080
0080
0080
0080
0080
0080
0080
0080
ENDCHAR
STARTCHAR U_4E29
ENCODING 20009
SWIDTH 1000 0
DWIDTH 18 0
BBX 16 16 0 -3
BITMAP
0020
0020
1020
1020
1020
1020
1020
1020
1060
13A0
1C20
1020
0020
0020
0020
0020
ENDCHAR
STARTCHAR U_4E2A
ENCODING 20010
SWIDTH 1000 0
DWIDTH 18 0
BBX 17 16 0 -3
BITMAP
008000
008000
014000
022000
041000
080800
308400
C08300
008000
008000
008000
008000
008000
008000
008000
008000
ENDCHAR
STARTCHAR U_4E2B
ENCODING 20011
SWIDTH 1000 0
DWIDTH 18 0
BBX 16 16 0 -3
BITMAP
0000
2008
1010
0820
0440
0080
0080
0080
0080
0080
0080
0080
0080
0080
0080
0080
ENDCHAR
STARTCHAR U_4E2C
ENCODING 20012
SWIDTH 1000 0
DWIDTH 18 0
BBX 16 16 0 -3
BITMAP
0080
0080
0080
1080
0880
0880
0080
0380
0480
0880
3080
0080
0080
0080
0080
0080
ENDCHAR
STARTCHAR U_4E2D
ENCODING 20013
SWIDTH 1000 0
DWIDTH 18 0
BBX 16 16 0 -3
BITMAP
0080
0080
0080
0080
3FFC
2084
2084
2084
2084
2084
3FFC
2084
0080
0080
0080
0080
ENDCHAR
STARTCHAR U_4E2E
ENCODING 20014
SWIDTH 1000 0
DWIDTH 18 0
BBX 16 16 0 -3
BITMAP
0000
7FF8
0408
0408
0408
7FE8
0408
0408
0408
FFE8
0409
0405
0405
0403
0401
0400
ENDCHAR
STARTCHAR U_4E2F
ENCODING 20015
SWIDTH 1000 0
DWIDTH 18 0
BBX 16 16 0 -3
BITMAP
0080
0086
00B8
07C0
7880
0086
00B8
07C0
7880
0086
00B8
07C0
7880
0080
0080
0080
ENDCHAR
STARTCHAR U_4E30
ENCODING 20016
SWIDTH 1000 0
DWIDTH 18 0
BBX 16 16 0 -3
BITMAP
0080
0080
0080
7FFE
0080
0080
0080
3FFC
0080
0080
0080
FFFF
0080
0080
0080
0080
ENDCHAR
STARTCHAR U_4E31
ENCODING 20017
SWIDTH 1000 0
DWIDTH 18 0
BBX 16 16 0 -3
BITMAP
0420
0420
4422
4422
4422
4422
4422
4C22
543E
6422
0420
0820
0820
1020
2020
C020
ENDCHAR
STARTCHAR U_4E32
ENCODING 20018
SWIDTH 1000 0
DWIDTH 18 0
BBX 16 16 0 -3
BITMAP
0080
0080
3FFC
2084
2084
3FFC
0080
0080
7FFE
4082
4082
7FFE
4082
0080
0080
0080
ENDCHAR
STARTCHAR U_4E33
ENCODING 20019
SWIDTH 1000 0
DWIDTH 18 0
BBX 16 16 0 -3
BITMAP
0420
0420
3FFC
2424
2424
3FFC
0420
0420
7FFE
4422
4422
7FFE
4822
1020
2020
4020
ENDCHAR
STARTCHAR U_4E34
ENCODING 20020
SWIDTH 1000 0
DWIDTH 18 0
BBX 16 16 0 -3
BITMAP
0840
0840
0840
48FF
48A0
4B10
4C10
4800
48FE
4892
4892
4892
4892
08FE
0882
0800
ENDCHAR
STARTCHAR U_4E35
ENCODING 20021
SWIDTH 1000 0
DWIDTH 18 0
BBX 16 16 0 -3
BITMAP
0420
2424
1428
0420
FFFF
0000
0810
0420
3FFC
0080
0080
FFFF
0080
0080
0080
0080
ENDCHAR
STARTCHAR U_4E36
ENCODING 20022
SWIDTH 1000 0
DWIDTH 18 0
BBX 16 16 0 -3
BITMAP
0000
0000
0000
0000
0000
0400
0200
0180
0040
0020
0020
0000
0000
0000
0000
0000
ENDCHAR
STARTCHAR U_4E37
ENCODING 20023
SWIDTH 1000 0
DWIDTH 18 0
BBX 16 16 0 -3
BITMAP
0000
0000
0000
0004
2004
1008
0808
0410
0420
0040
0000
0000
0000
0000
0000
0000
ENDCHAR
STARTCHAR U_4E38
ENCODING 20024
SWIDTH 1000 0
DWIDTH 18 0
BBX 16 16 0 -3
BITMAP
0200
0200
0200
0200
7FF0
0210
1210
0A10
0410
0410
0A10
0911
1111
2011
400F
8000
ENDCHAR
STARTCHAR U_4E39
ENCODING 20025
SWIDTH 1000 0
DWIDTH 18 0
BBX 16 16 0 -3
BITMAP
0000
1FF8
1008
1008
1308
1088
1088
1008
FFFF
1008
1008
1008
2008
2008
4028
8010
ENDCHAR
STARTCHAR U_4E3A
ENCODING 20026
SWIDTH 1000 0
DWIDTH 18 0
BBX 17 16 0 -3
BITMAP
010000
210000
110000
110000
010000
7FFC00
020400
020400
024400
042400
042400
080400
100400
200400
402800
801000
ENDCHAR
STARTCHAR U_4E3B
ENCODING 20027
SWIDTH 1000 0
DWIDTH 18 0
BBX 17 18 0 -3
BITMAP
020000
010000
000000
7FFC00
010000
010000
010000
010000
3FF800
010000
010000
010000
010000
010000
FFFF00
000000
000000
000000
ENDCHAR
STARTCHAR U_4E3C
ENCODING 20028
SWIDTH 1000 0
DWIDTH 18 0
BBX 16 16 0 -3
BITMAP
0810
0810
0810
0810
7FFE
0810
0A10
0990
0810
FFFF
0810
0810
1010
1010
2010
4010
ENDCHAR
STARTCHAR U_4E3D
ENCODING 20029
SWIDTH 1000 0
DWIDTH 18 0
BBX 16 16 0 -3
BITMAP
0000
FFFF
0000
0000
3E7C
2244
2244
2244
3264
2A54
2A54
2244
2244
2244
2A54
2448
ENDCHAR
STARTCHAR U_4E3E
ENCODING 20030
SWIDTH 1000 0
DWIDTH 18 0
BBX 16 16 0 -3
BITMAP
2304
1084
1088
0010
FFFF
0810
1088
2084
CFF3
0080
0080
7FFE
0080
0080
0080
0080
ENDCHAR
STARTCHAR U_4E3F
ENCODING 20031
SWIDTH 1000 0
DWIDTH 18 0
BBX 16 16 0 -3
BITMAP
0100
0100
0100
0100
0100
0100
0100
0100
0100
0200
0200
0400
0400
0800
1000
2000
ENDCHAR
STARTCHAR U_4E40
ENCODING 20032
SWIDTH 1000 0
DWIDTH 18 0
BBX 16 16 0 -3
BITMAP
0000
0000
0000
0800
0800
1400
1400
2400
4200
0180
0060
0018
0007
0000
0000
0000
ENDCHAR
STARTCHAR U_4E41
ENCODING 20033
SWIDTH 1000 0
DWIDTH 18 0
BBX 16 16 0 -3
BITMAP
0000
0000
3F80
0080
0080
0080
0080
0080
0080
0040
0040
0020
0010
0008
0004
0003
ENDCHAR
STARTCHAR U_4E42
ENCODING 20034
SWIDTH 1000 0
DWIDTH 18 0
BBX 16 16 0 -3
BITMAP
0000
0008
2008
2008
1010
1010
0810
0820
0420
0240
0180
0240
0420
0810
300C
C003
ENDCHAR
STARTCHAR U_4E43
ENCODING 20035
SWIDTH 1000 0
DWIDTH 18 0
BBX 17 16 0 -3
BITMAP
000000
3FF800
040800
041000
041000
042000
043E00
040200
080200
080200
080200
100200
100200
204400
402800
801000
ENDCHAR
STARTCHAR U_4E44
ENCODING 20036
SWIDTH 1000 0
DWIDTH 18 0
BBX 16 16 0 -3
BITMAP
0000
0008
0008
0008
0008
0210
0190
0060
0020
0050
0188
2208
2400
3800
2000
0000
ENDCHAR
STARTCHAR U_4E45
ENCODING 20037
SWIDTH 1000 0
DWIDTH 18 0
BBX 16 16 0 -3
BITMAP
0400
0400
0400
07F0
0810
0810
1020
2020
4040
0040
01A0
0220
0410
0808
3004
C003
ENDCHAR
STARTCHAR U_4E46
ENCODING 20038
SWIDTH 1000 0
DWIDTH 18 0
BBX 16 16 0 -3
BITMAP
0008
0808
0808
1010
1010
2020
7FE0
2040
0040
00A0
00A0
0310
0410
0808
3004
C003
ENDCHAR
STARTCHAR U_4E47
ENCODING 20039
SWIDTH 1000 0
DWIDTH 18 0
BBX 17 16 0 -3
BITMAP
001000
01F800
3E0000
020000
020000
020000
020000
03FE00
FE0000
020000
020000
020200
020200
020200
01FE00
000000
ENDCHAR
STARTCHAR U_4E48
ENCODING 20040
SWIDTH 1000 0
DWIDTH 18 0
BBX 17 18 0 -3
BITMAP
010000
010000
010000
020000
020000
044000
084000
108000
208000
410000
820000
041000
080800
100400
3FFE00
100200
000000
000000
ENDCHAR
STARTCHAR U_4E49
ENCODING 20041
SWIDTH 1000 0
DWIDTH 18 0
BBX 17 16 0 -3
BITMAP
010000
008800
088800
080800
081000
041000
041000
022000
022000
014000
008000
014000
022000
041000
180C00
E00300
ENDCHAR
STARTCHAR U_4E4A
ENCODING 20042
SWIDTH 1000 0
DWIDTH 18 0
BBX 16 16 0 -3
BITMAP
0000
0004
01FE
7E00
0004
2004
1008
1008
0810
0820
0000
0000
0000
0000
0000
0000
ENDCHAR
STARTCHAR U_4E4B
ENCODING 20043
SWIDTH 1000 0
DWIDTH 18 0
BBX 16 16 0 -3
BITMAP
0300
0080
0080
0000
7FFC
0008
0010
0020
0040
0080
0300
0400
1800
2400
43FF
0000
ENDCHAR
STARTCHAR U_4E4C
ENCODING 20044
SWIDTH 1000 0
DWIDTH 18 0
BBX 16 16 0 -3
BITMAP
0180
0200
1FF8
1008
1008
1008
1028
1010
1000
1FFE
0002
0002
7FF2
0002
0014
0008
ENDCHAR
STARTCHAR U_4E4D
ENCODING 20045
SWIDTH 1000 0
DWIDTH 18 0
BBX 16 16 0 -3
BITMAP
0800
0800
0FFF
1200
1200
2200
43FC
8200
0200
0200
03FE
0200
0200
0200
0200
0200
ENDCHAR
STARTCHAR U_4E4E
ENCODING 20046
SWIDTH 1000 0
DWIDTH 18 0
BBX 16 16 0 -3
BITMAP
0008
007C
3F80
0080
1088
0888
0890
0080
FFFF
0080
0080
0080
0080
0080
0480
0300
ENDCHAR
STARTCHAR U_4E4F
ENCODING 20047
SWIDTH 1000 0
DWIDTH 18 0
BBX 16 16 0 -3
BITMAP
0008
00FC
7F00
0000
0300
0080
0080
7FFC
0018
0060
0380
0C00
3000
4800
87FF
0000
ENDCHAR
STARTCHAR U_4E50
ENCODING 20048
SWIDTH 1000 0
DWIDTH 18 0
BBX 16 16 0 -3
BITMAP
0010
0078
1F80
1000
1080
2080
2080
3FFE
0080
0890
0888
1084
2082
4082
0480
0300
ENDCHAR
STARTCHAR U_4E51
ENCODING 20049
SWIDTH 1000 0
DWIDTH 18 0
BBX 16 16 0 -3
BITMAP
0004
00FE
7F80
0080
0882
0884
10C8
20D0
44A0
84A0
0890
1088
2084
4083
8080
0080
ENDCHAR
STARTCHAR U_4E52
ENCODING 20050
SWIDTH 1000 0
DWIDTH 18 0
BBX 16 16 0 -3
BITMAP
0010
0078
1F80
1000
1000
1FFC
1040
1040
1040
1040
FFFF
0000
0800
1000
2000
4000
ENDCHAR
STARTCHAR U_4E53
ENCODING 20051
SWIDTH 1000 0
DWIDTH 18 0
BBX 16 16 0 -3
BITMAP
0010
0078
1F80
1000
1000
1FFC
1040
1040
1040
1040
FFFF
0000
0020
0010
0008
0004
ENDCHAR
STARTCHAR U_4E54
ENCODING 20052
SWIDTH 1000 0
DWIDTH 18 0
BBX 16 16 0 -3
BITMAP
0008
00FC
3F00
0100
0200
7FFE
0420
0810
300C
C813
0810
0810
0810
1010
1010
2010
ENDCHAR
STARTCHAR U_4E55
ENCODING 20053
SWIDTH 1000 0
DWIDTH 18 0
BBX 16 16 0 -3
BITMAP
0004
007E
3FC0
2040
2FFC
2040
2040
3FFF
2040
2040
2FFC
2844
4844
4854
8848
0040
ENDCHAR
STARTCHAR U_4E56
ENCODING 20054
SWIDTH 1000 0
DWIDTH 18 0
BBX 16 16 0 -3
BITMAP
0038
1FC0
0080
0080
FFFF
0080
0890
0892
7894
0898
0891
1891
E88F
0080
0080
0080
ENDCHAR
STARTCHAR U_4E57
ENCODING 20055
SWIDTH 1000 0
DWIDTH 18 0
BBX 16 16 0 -3
BITMAP
007C
3F80
0080
7FFE
0890
0890
FFFF
0890
0890
7FFE
01C0
06A0
0890
308C
C083
0080
ENDCHAR
STARTCHAR U_4E58
ENCODING 20056
SWIDTH 1000 0
DWIDTH 18 0
BBX 16 16 0 -3
BITMAP
007C
3F80
0080
7FFE
0080
0892
F89C
0891
3891
CBCF
04A0
0890
308C
C083
0080
0080
ENDCHAR
STARTCHAR U_4E59
ENCODING 20057
SWIDTH 1000 0
DWIDTH 18 0
BBX 16 16 0 -3
BITMAP
0000
7FF8
0010
0020
0040
0180
0200
0400
0800
1000
1000
2002
2002
2002
1FFE
0000
ENDCHAR
STARTCHAR U_4E5A
ENCODING 20058
SWIDTH 1000 0
DWIDTH 18 0
BBX 16 16 0 -3
BITMAP
1000
1000
1000
1000
1000
1000
1000
1000
1000
1000
1000
1002
1002
1002
0FFE
0000
ENDCHAR
STARTCHAR U_4E5B
ENCODING 20059
SWIDTH 1000 0
DWIDTH 18 0
BBX 16 16 0 -3
BITMAP
0000
0000
FFFE
0002
0004
0008
0000
0000
0000
0000
0000
0000
0000
0000
0000
0000
ENDCHAR
STARTCHAR U_4E5C
ENCODING 20060
SWIDTH 1000 0
DWIDTH 18 0
BBX 16 16 0 -3
BITMAP
0000
0000
1000
1018
1068
1788
3808
D008
1008
1028
1010
1001
1001
1001
0FFF
0000
ENDCHAR
STARTCHAR U_4E5D
ENCODING 20061
SWIDTH 1000 0
DWIDTH 18 0
BBX 16 16 0 -3
BITMAP
0400
0400
0400
0400
7FF0
0410
0410
0410
0810
0810
0810
1011
1011
2011
400F
8000
ENDCHAR
STARTCHAR U_4E5E
ENCODING 20062
SWIDTH 1000 0
DWIDTH 18 0
BBX 16 16 0 -3
BITMAP
0800
0800
1FFE
1000
2000
4000
9FF0
0010
0020
01C0
0600
0802
1002
1002
0FFE
0000
ENDCHAR
STARTCHAR U_4E5F
ENCODING 20063
SWIDTH 1000 0
DWIDTH 18 0
BBX 17 16 0 -3
BITMAP
010000
010000
010000
110000
113800
11C800
170800
390800
D10800
112800
111000
110200
100200
100200
0FFE00
000000
ENDCHAR
STARTCHAR U_4E60
ENCODING 20064
SWIDTH 1000 0
DWIDTH 18 0
BBX 16 16 0 -3
BITMAP
0000
7FFC
0004
0004
0804
0404
0204
0204
0034
01C4
0E04
7004
2004
0004
0028
0010
ENDCHAR
STARTCHAR U_4E61
ENCODING 20065
SWIDTH 1000 0
DWIDTH 18 0
BBX 16 16 0 -3
BITMAP
0200
0200
0410
0810
1020
3FC0
0104
0204
0408
1FF0
0020
00C0
0100
0600
1800
E000
ENDCHAR
STARTCHAR U_4E62
ENCODING 20066
SWIDTH 1000 0
DWIDTH 18 0
BBX 16 16 0 -3
BITMAP
0810
0810
0810
0810
4890
4890
4890
4890
4890
4890
4890
4F91
7891
0011
000F
0000
ENDCHAR
STARTCHAR U_4E63
ENCODING 20067
SWIDTH 1000 0
DWIDTH 18 0
BBX 16 16 0 -3
BITMAP
0820
0820
1020
1020
2220
4220
FC20
0420
0820
1020
2420
4221
FE21
4221
001F
0000
ENDCHAR
STARTCHAR U_4E64
ENCODING 20068
SWIDTH 1000 0
DWIDTH 18 0
BBX 16 16 0 -3
BITMAP
0000
FFFF
0200
0220
0210
0208
0204
0200
0000
7FF8
0030
01C0
0600
1802
2002
1FFE
ENDCHAR
STARTCHAR U_4E65
ENCODING 20069
SWIDTH 1000 0
DWIDTH 18 0
BBX 16 16 0 -3
BITMAP
0004
01FE
7E00
0008
1008
0810
0420
0040
0000
7FF8
0030
01C0
0600
1802
2002
1FFE
ENDCHAR
STARTCHAR U_4E66
ENCODING 20070
SWIDTH 1000 0
DWIDTH 18 0
BBX 16 16 0 -3
BITMAP
0210
0208
0204
3FF0
0210
0210
0210
0210
FFFE
0202
0202
0202
0202
0214
0208
0200
ENDCHAR
STARTCHAR U_4E67
ENCODING 20071
SWIDTH 1000 0
DWIDTH 18 0
BBX 16 16 0 -3
BITMAP
0020
0420
0220
1220
0820
09FE
7E20
0020
0020
0000
7FF8
0030
03C0
1C02
2002
1FFE
ENDCHAR
STARTCHAR U_4E68
ENCODING 20072
SWIDTH 1000 0
DWIDTH 18 0
BBX 16 16 0 -3
BITMAP
0810
0810
1010
2310
4090
FFD0
0050
0010
7F90
4090
4090
4091
4091
4091
7F8F
4080
ENDCHAR
STARTCHAR U_4E69
ENCODING 20073
SWIDTH 1000 0
DWIDTH 18 0
BBX 16 16 0 -3
BITMAP
0810
0810
0810
0810
0FD0
0810
0810
0810
7F90
4090
4090
4091
4091
4091
7F8F
4080
ENDCHAR
STARTCHAR U_4E6A
ENCODING 20074
SWIDTH 1000 0
DWIDTH 18 0
BBX 16 16 0 -3
BITMAP
0000
FCFE
0492
0492
0892
0892
10FE
1092
2092
2092
4092
40FE
4001
4001
3FFF
0000
ENDCHAR
STARTCHAR U_4E6B
ENCODING 20075
SWIDTH 1000 0
DWIDTH 18 0
BBX 17 18 0 -3
BITMAP
100000
100000
FF3E00
112200
112200
212200
453E00
822200
000000
7FF800
006000
018000
060000
180200
200200
1FFE00
000000
000000
ENDCHAR
STARTCHAR U_4E6C
ENCODING 20076
SWIDTH 1000 0
DWIDTH 18 0
BBX 16 16 0 -3
BITMAP
0000
3FFE
2000
3FFC
2004
3FFC
2000
3FFE
0000
7FF8
0030
01C0
0600
1802
2002
1FFE
ENDCHAR
STARTCHAR U_4E6D
ENCODING 20077
SWIDTH 1000 0
DWIDTH 18 0
BBX 16 16 0 -3
BITMAP
0000
FFFF
0400
0800
1FF8
2808
C808
0FF8
0000
7FF8
0030
01C0
0600
1802
2002
1FFE
ENDCHAR
STARTCHAR U_4E6E
ENCODING 20078
SWIDTH 1000 0
DWIDTH 18 0
BBX 16 16 0 -3
BITMAP
0C00
707E
4042
4442
5C42
644A
4444
0840
1040
7FF8
0030
01C0
0600
1802
2002
1FFE
ENDCHAR
STARTCHAR U_4E6F
ENCODING 20079
SWIDTH 1000 0
DWIDTH 18 0
BBX 16 16 0 -3
BITMAP
00FC
7F00
1108
0910
FFFF
0100
0100
0500
0200
7FF8
0030
01C0
0600
1802
2002
1FFE
ENDCHAR
STARTCHAR U_4E70
ENCODING 20080
SWIDTH 1000 0
DWIDTH 18 0
BBX 16 16 0 -3
BITMAP
0000
7FFE
0002
0844
0440
2440
1040
1040
0080
FFFF
0080
0360
0410
0808
3004
C002
ENDCHAR
STARTCHAR U_4E71
ENCODING 20081
SWIDTH 1000 0
DWIDTH 18 0
BBX 17 16 0 -3
BITMAP
062000
382000
082000
082000
082000
FFA000
082000
082000
082000
3E2000
222000
222100
222100
222100
3E2100
221F00
ENDCHAR
STARTCHAR U_4E72
ENCODING 20082
SWIDTH 1000 0
DWIDTH 18 0
BBX 16 16 0 -3
BITMAP
4040
2040
09FE
1202
2424
E020
2050
238C
2C03
0000
7FF8
0030
03C0
1C02
2002
1FFE
ENDCHAR
STARTCHAR U_4E73
ENCODING 20083
SWIDTH 1000 0
DWIDTH 18 0
BBX 16 16 0 -3
BITMAP
0210
0F10
F010
0110
9110
4A10
0010
FE10
0410
0810
0F10
F811
4811
0811
280F
1000
ENDCHAR
STARTCHAR U_4E74
ENCODING 20084
SWIDTH 1000 0
DWIDTH 18 0
BBX 16 16 0 -3
BITMAP
0806
0878
7E40
0840
0E7F
7844
0844
2984
1204
0000
7FF8
0030
03C0
1C02
2002
1FFE
ENDCHAR
STARTCHAR U_4E75
ENCODING 20085
SWIDTH 1000 0
DWIDTH 18 0
BBX 16 16 0 -3
BITMAP
1010
0810
7F90
0010
2210
1410
FFD0
0810
0810
0810
7F90
0811
0811
0811
080F
0800
ENDCHAR
STARTCHAR U_4E76
ENCODING 20086
SWIDTH 1000 0
DWIDTH 18 0
BBX 16 16 0 -3
BITMAP
0090
0088
7FFE
0080
3FFC
2084
3FFC
2084
3FFC
2084
0000
3FF8
00E0
1F02
2002
1FFE
ENDCHAR
STARTCHAR U_4E77
ENCODING 20087
SWIDTH 1000 0
DWIDTH 18 0
BBX 16 16 0 -3
BITMAP
1010
0810
4054
2452
0991
1214
7018
1060
1780
0000
7FF8
0030
03C0
1C02
2002
1FFE
ENDCHAR
STARTCHAR U_4E78
ENCODING 20088
SWIDTH 1000 0
DWIDTH 18 0
BBX 16 16 0 -3
BITMAP
0800
083E
2822
2E32
3A2A
EA7F
2A22
2A52
2A4A
2E7F
2802
2815
2009
2001
1FFF
0000
ENDCHAR
STARTCHAR U_4E79
ENCODING 20089
SWIDTH 1000 0
DWIDTH 18 0
BBX 16 16 0 -3
BITMAP
0810
0810
FFD0
0810
7F90
4090
7F90
4090
7F90
4890
0810
FFD1
0811
0811
080F
0800
ENDCHAR
STARTCHAR U_4E7A
ENCODING 20090
SWIDTH 1000 0
DWIDTH 18 0
BBX 16 16 0 -3
BITMAP
060C
3870
2040
3E7E
2248
3E48
2048
4188
8000
7FF8
0030
01C0
0600
1802
2002
1FFE
ENDCHAR
STARTCHAR U_4E7B
ENCODING 20091
SWIDTH 1000 0
DWIDTH 18 0
BBX 16 16 0 -3
BITMAP
1008
0808
FF94
2022
3E41
2208
2204
4210
4A08
8404
7FF8
0030
03C0
1C02
2002
1FFE
ENDCHAR
STARTCHAR U_4E7C
ENCODING 20092
SWIDTH 1000 0
DWIDTH 18 0
BBX 16 16 0 -3
BITMAP
2040
1020
87FE
4020
1020
23FC
E020
2020
27FE
2000
7FF8
0030
03C0
1C02
2002
1FFE
ENDCHAR
STARTCHAR U_4E7D
ENCODING 20093
SWIDTH 1000 0
DWIDTH 18 0
BBX 16 16 0 -3
BITMAP
0084
0FE8
0090
7FFE
0100
07F8
3C08
C7F8
0408
07F8
0000
3FF8
00E0
0F02
3002
0FFE
ENDCHAR
STARTCHAR U_4E7E
ENCODING 20094
SWIDTH 1000 0
DWIDTH 18 0
BBX 16 16 0 -3
BITMAP
1020
1020
1040
FF7F
1080
7F00
447E
7C04
4408
7C10
1020
FF40
1081
1081
107F
1000
ENDCHAR
STARTCHAR U_4E7F
ENCODING 20095
SWIDTH 1000 0
DWIDTH 18 0
BBX 16 16 0 -3
BITMAP
0F90
F010
1090
8890
4310
1010
2310
7C10
0810
1090
FFD0
0851
4B11
8891
280F
1000
ENDCHAR
STARTCHAR U_4E80
ENCODING 20096
SWIDTH 1000 0
DWIDTH 18 0
BBX 16 16 0 -3
BITMAP
0400
0FF0
1020
3FF8
5088
1FF8
1088
1FF8
0080
3FFC
2084
3FFC
2084
3FFD
0081
007F
ENDCHAR
STARTCHAR U_4E81
ENCODING 20097
SWIDTH 1000 0
DWIDTH 18 0
BBX 17 16 0 -3
BITMAP
081000
081000
FF9000
083F00
7F2000
414000
7FBE00
410200
7F0400
000800
7F1000
082000
FFA100
082100
081F00
080000
ENDCHAR
STARTCHAR U_4E82
ENCODING 20098
SWIDTH 1000 0
DWIDTH 18 0
BBX 17 18 0 -3
BITMAP
0E4000
704000
524000
894000
7F4000
014000
0E4000
044000
FF4000
914000
BD4000
834100
BD4100
954100
894100
B53E00
000000
000000
ENDCHAR
STARTCHAR U_4E83
ENCODING 20099
SWIDTH 1000 0
DWIDTH 18 0
BBX 16 16 0 -3
BITMAP
0810
4910
2A10
FFD0
2A10
4910
88D0
4110
4110
77D0
9110
5511
27D1
4111
810F
0100
ENDCHAR
STARTCHAR U_4E84
ENCODING 20100
SWIDTH 1000 0
DWIDTH 18 0
BBX 17 16 0 -3
BITMAP
082000
FFA000
082000
7F2000
002000
FFA000
80A000
7F2000
002000
7F2000
412000
7F2100
422100
242100
0F9F00
F00000
ENDCHAR
STARTCHAR U_4E85
ENCODING 20101
SWIDTH 1000 0
DWIDTH 18 0
BBX 16 16 0 -3
BITMAP
0008
0008
0008
0008
0008
0008
0008
0008
0008
0008
0008
0008
0008
0008
0028
0010
ENDCHAR
STARTCHAR U_4E86
ENCODING 20102
SWIDTH 1000 0
DWIDTH 18 0
BBX 16 16 0 -3
BITMAP
0000
7FFC
0008
0010
0020
00C0
0080
0080
0080
0080
0080
0080
0080
0080
0480
0300
ENDCHAR
STARTCHAR U_4E87
ENCODING 20103
SWIDTH 1000 0
DWIDTH 18 0
BBX 16 16 0 -3
BITMAP
0800
0800
0800
0FFE
1002
1084
2088
4080
0080
0080
0080
0080
0080
0080
0480
0300
ENDCHAR
STARTCHAR U_4E88
ENCODING 20104
SWIDTH 1000 0
DWIDTH 18 0
BBX 16 16 0 -3
BITMAP
0000
1FF8
0008
0210
01A0
0040
7FFF
0041
0042
0040
0040
0040
0040
0040
0240
0180
ENDCHAR
STARTCHAR U_4E89
ENCODING 20105
SWIDTH 1000 0
DWIDTH 18 0
BBX 17 16 0 -3
BITMAP
040000
040000
0FF000
101000
202000
7FFC00
008400
008400
FFFF00
008400
008400
3FFC00
008000
008000
048000
030000
ENDCHAR
STARTCHAR U_4E8A
ENCODING 20106
SWIDTH 1000 0
DWIDTH 18 0
BBX 16 16 0 -3
BITMAP
0080
0080
7FFE
1088
0890
3FFC
0084
0084
FFFF
0084
0084
3FFC
0084
0080
0480
0300
ENDCHAR
STARTCHAR U_4E8B
ENCODING 20107
SWIDTH 1000 0
DWIDTH 18 0
BBX 16 16 0 -3
BITMAP
0080
0080
FFFF
0080
3FFC
2084
3FFC
0080
3FFC
0084
FFFF
0084
3FFC
0080
0480
0300
ENDCHAR
STARTCHAR U_4E8C
ENCODING 20108
SWIDTH 1000 0
DWIDTH 18 0
BBX 16 16 0 -3
BITMAP
0000
0000
0000
3FFC
0000
0000
0000
0000
0000
0000
0000
0000
FFFF
0000
0000
0000
ENDCHAR
STARTCHAR U_4E8D
ENCODING 20109
SWIDTH 1000 0
DWIDTH 18 0
BBX 16 16 0 -3
BITMAP
0000
3FFC
0000
0000
0000
0000
FFFF
0080
0080
0080
0080
0080
0080
0080
0480
0300
ENDCHAR
STARTCHAR U_4E8E
ENCODING 20110
SWIDTH 1000 0
DWIDTH 18 0
BBX 16 16 0 -3
BITMAP
0000
3FFC
0080
0080
0080
0080
FFFF
0080
0080
0080
0080
0080
0080
0080
0480
0300
ENDCHAR
STARTCHAR U_4E8F
ENCODING 20111
SWIDTH 1000 0
DWIDTH 18 0
BBX 16 16 0 -3
BITMAP
0000
3FFC
0000
0000
0000
FFFF
0400
0400
0800
0FF8
0008
0008
0008
0008
0050
0020
ENDCHAR
STARTCHAR U_4E90
ENCODING 20112
SWIDTH 1000 0
DWIDTH 18 0
BBX 16 16 0 -3
BITMAP
0000
3FFC
0200
0200
0200
FFFF
0400
0400
0800
0FF8
0008
0008
0008
0008
0050
0020
ENDCHAR
STARTCHAR U_4E91
ENCODING 20113
SWIDTH 1000 0
DWIDTH 18 0
BBX 16 16 0 -3
BITMAP
0000
3FFC
0000
0000
0000
0000
FFFF
0200
0400
0400
0820
1010
2008
7FFC
2004
0004
ENDCHAR
STARTCHAR U_4E92
ENCODING 20114
SWIDTH 1000 0
DWIDTH 18 0
BBX 17 16 0 -3
BITMAP
000000
7FFE00
040000
040000
040000
07F000
081000
081000
081000
081000
0FE000
002000
002000
002000
FFFF00
000000
ENDCHAR
STARTCHAR U_4E93
ENCODING 20115
SWIDTH 1000 0
DWIDTH 18 0
BBX 16 16 0 -3
BITMAP
0000
3FFC
0000
0000
0000
FFFF
0810
0810
0810
0810
0810
1010
1010
2010
4010
8010
ENDCHAR
STARTCHAR U_4E94
ENCODING 20116
SWIDTH 1000 0
DWIDTH 18 0
BBX 16 16 0 -3
BITMAP
0000
7FFE
0200
0200
0200
0200
3FF8
0408
0408
0408
0408
0808
0808
0808
FFFF
0000
ENDCHAR
STARTCHAR U_4E95
ENCODING 20117
SWIDTH 1000 0
DWIDTH 18 0
BBX 16 16 0 -3
BITMAP
0810
0810
0810
0810
7FFE
0810
0810
0810
0810
FFFF
0810
0810
1010
1010
2010
4010
ENDCHAR
STARTCHAR U_4E96
ENCODING 20118
SWIDTH 1000 0
DWIDTH 18 0
BBX 16 16 0 -3
BITMAP
0000
0000
3FFC
0000
0000
0000
FFFF
0000
0000
0000
3FFC
0000
0000
0000
FFFF
0000
ENDCHAR
ENDFONT
